  0
SECTION
  2
HEADER
  9
$ACADVER
  1
AC1032
  9
$DWGCODEPAGE
  3
ANSI_1252
  9
$EXTMAX
 10
1953.125
 20
1647.94921875
 30
0.0
  9
$EXTMIN
 10
0.0
 20
0.0
 30
0.0
  9
$LIMMIN
 10
0.0
 20
0.0
  9
$LIMMAX
 10
1953.125
 20
1647.94921875
  9
$VIEWCTR
 10
976.5625
 20
823.974609375
  9
$VIEWSIZE
 40
1647.94921875
  9
$CLAYER
  8
0
  9
$LTSCALE
 40
127.3148148148
  9
$CELTYPE
  6
BYLAYER
  9
$DIMSCALE
 40
1.0
  9
$DIMASZ
 40
0.1875
  9
$DIMEXO
 40
0.0625
  9
$DIMDLI
 40
38.0
  9
$DIMEXE
 40
0.125
  9
$DIMCEN
 40
9.0
  9
$DIMLFAC
 40
1.0
  9
$DIMBLK
  1
_CLOSED
  9
$DIMALT
 70
0
  9
$DIMALTF
 40
0.0393700787
  9
$DIMTXT
 40
0.15625
  9
$DIMDSEP
 70
46
  9
$AUNITS
 70
0
  9
$PDMODE
 70
0
  9
$PDSIZE
 40
0.3125
  9
$HANDSEED
  5
3E5
  9
$TILEMODE
 70
1
  9
$MEASUREMENT
 70
1
  9
$INSUNITS
 70
4
  0
ENDSEC
  0
SECTION
  2
CLASSES
  0
CLASS
  1
ACDBDICTIONARYWDFLT
  2
AcDbDictionaryWithDefault
  3
AutoCAD 2000
 90
0
 91
1
280
0
281
0
  0
CLASS
  1
ACDBPLACEHOLDER
  2
AcDbPlaceHolder
  3
AutoCAD 2000
 90
0
 91
1
280
0
281
0
  0
CLASS
  1
LAYOUT
  2
AcDbLayout
  3
AutoCAD 2000
 90
0
 91
0
280
0
281
0
  0
ENDSEC
  0
SECTION
  2
TABLES
  0
TABLE
  2
VPORT
  5
8
100
AcDbSymbolTable
 70
2
  0
VPORT
  5
1F4
100
AcDbSymbolTableRecord
100
AcDbViewportTableRecord
  2
*ACTIVE
 70
0
 10
0.0
 20
0.0
 11
1.0
 21
1.0
 12
976.5625
 22
823.974609375
 13
0.0
 23
0.0
 14
1.0
 24
1.0
 15
0.0
 25
0.0
 16
0.0
 26
0.0
 36
1.0
 17
0.0
 27
0.0
 37
0.0
 40
1647.94921875
 41
1.1851851852
 42
50.0
 43
0.0
 44
0.0
 50
0.0
 51
0.0
 71
0
 72
100
 73
1
 74
1
 75
0
 76
0
 77
0
 78
0
  0
ENDTAB
  0
TABLE
  2
LTYPE
  5
5
100
AcDbSymbolTable
 70
6
  0
LTYPE
  5
14
100
AcDbSymbolTableRecord
100
AcDbLinetypeTableRecord
  2
BYBLOCK
 70
0
  3

 72
65
 73
0
 40
0.0
  0
LTYPE
  5
15
100
AcDbSymbolTableRecord
100
AcDbLinetypeTableRecord
  2
BYLAYER
 70
0
  3

 72
65
 73
0
 40
0.0
  0
LTYPE
  5
16
100
AcDbSymbolTableRecord
100
AcDbLinetypeTableRecord
  2
CONTINUOUS
 70
64
  3
Solid line
 72
65
 73
0
 40
0.0
  0
LTYPE
  5
1F5
100
AcDbSymbolTableRecord
100
AcDbLinetypeTableRecord
  2
CENTER
 70
64
  3
____ _ ____ _ ____ _ ____ _ ____ _ ____ _ ____
 72
65
 73
4
 40
0.6
 49
0.375
 74
0
 49
-0.075
 74
0
 49
0.075
 74
0
 49
-0.075
 74
0
  0
LTYPE
  5
1F6
100
AcDbSymbolTableRecord
100
AcDbLinetypeTableRecord
  2
HIDDEN
 70
64
  3
- - - - - - - - - - - - - - - - - - - -
 72
65
 73
2
 40
0.2
 49
0.1
 74
0
 49
-0.1
 74
0
  0
LTYPE
  5
1F7
100
AcDbSymbolTableRecord
100
AcDbLinetypeTableRecord
  2
PHANTOM
 70
64
  3
_____ _ _ _____ _ _ _____ _ _ _____
 72
65
 73
6
 40
0.8
 49
0.45
 74
0
 49
-0.05
 74
0
 49
0.1
 74
0
 49
-0.05
 74
0
 49
0.1
 74
0
 49
-0.05
 74
0
  0
LTYPE
  5
1F8
100
AcDbSymbolTableRecord
100
AcDbLinetypeTableRecord
  2
DOT
 70
64
  3
. . . . . . . . . . . . . . . . . . . .
 72
65
 73
2
 40
0.08
 49
0.0
 74
0
 49
-0.08
 74
0
  0
LTYPE
  5
1F9
100
AcDbSymbolTableRecord
100
AcDbLinetypeTableRecord
  2
DASHED
 70
64
  3
- - - - - - - - - - - - - - - - - - - -
 72
65
 73
2
 40
0.2
 49
0.1
 74
0
 49
-0.1
 74
0
  0
ENDTAB
  0
TABLE
  2
LAYER
  5
2
100
AcDbSymbolTable
 70
36
  0
LAYER
  5
10
100
AcDbSymbolTableRecord
100
AcDbLayerTableRecord
  2
0
 70
0
 62
7
  6
CONTINUOUS
370
-3
390
F
  0
LAYER
  5
1FA
100
AcDbSymbolTableRecord
100
AcDbLayerTableRecord
  2
DEFAULT_1
 70
0
 62
7
  6
CENTER
370
-3
390
F
  0
LAYER
  5
1FB
100
AcDbSymbolTableRecord
100
AcDbLayerTableRecord
  2
DEFAULT_2
 70
0
 62
8
  6
HIDDEN
370
-3
390
F
  0
LAYER
  5
1FC
100
AcDbSymbolTableRecord
100
AcDbLayerTableRecord
  2
DEFAULT_3
 70
0
 62
7
  6
PHANTOM
370
-3
390
F
  0
LAYER
  5
1FD
100
AcDbSymbolTableRecord
100
AcDbLayerTableRecord
  2
1
 70
0
 62
7
  6
CONTINUOUS
370
-3
390
F
  0
LAYER
  5
1FE
100
AcDbSymbolTableRecord
100
AcDbLayerTableRecord
  2
2
 70
0
 62
7
  6
CONTINUOUS
370
-3
390
F
  0
LAYER
  5
1FF
100
AcDbSymbolTableRecord
100
AcDbLayerTableRecord
  2
3
 70
0
 62
7
  6
CONTINUOUS
370
-3
390
F
  0
LAYER
  5
200
100
AcDbSymbolTableRecord
100
AcDbLayerTableRecord
  2
4
 70
0
 62
7
  6
CONTINUOUS
370
-3
390
F
  0
LAYER
  5
201
100
AcDbSymbolTableRecord
100
AcDbLayerTableRecord
  2
5
 70
0
 62
7
  6
CONTINUOUS
370
-3
390
F
  0
LAYER
  5
202
100
AcDbSymbolTableRecord
100
AcDbLayerTableRecord
  2
6
 70
0
 62
7
  6
CONTINUOUS
370
-3
390
F
  0
LAYER
  5
203
100
AcDbSymbolTableRecord
100
AcDbLayerTableRecord
  2
7
 70
0
 62
7
  6
CONTINUOUS
370
-3
390
F
  0
LAYER
  5
204
100
AcDbSymbolTableRecord
100
AcDbLayerTableRecord
  2
8
 70
0
 62
7
  6
CONTINUOUS
370
-3
390
F
  0
LAYER
  5
205
100
AcDbSymbolTableRecord
100
AcDbLayerTableRecord
  2
9
 70
0
 62
7
  6
CONTINUOUS
370
-3
390
F
  0
LAYER
  5
206
100
AcDbSymbolTableRecord
100
AcDbLayerTableRecord
  2
10
 70
0
 62
7
  6
CONTINUOUS
370
-3
390
F
  0
LAYER
  5
207
100
AcDbSymbolTableRecord
100
AcDbLayerTableRecord
  2
11
 70
0
 62
7
  6
CONTINUOUS
370
-3
390
F
  0
LAYER
  5
208
100
AcDbSymbolTableRecord
100
AcDbLayerTableRecord
  2
12
 70
0
 62
7
  6
CONTINUOUS
370
-3
390
F
  0
LAYER
  5
209
100
AcDbSymbolTableRecord
100
AcDbLayerTableRecord
  2
13
 70
0
 62
7
  6
CONTINUOUS
370
-3
390
F
  0
LAYER
  5
20A
100
AcDbSymbolTableRecord
100
AcDbLayerTableRecord
  2
14
 70
0
 62
7
  6
CONTINUOUS
370
-3
390
F
  0
LAYER
  5
20B
100
AcDbSymbolTableRecord
100
AcDbLayerTableRecord
  2
15
 70
0
 62
7
  6
CONTINUOUS
370
-3
390
F
  0
LAYER
  5
20C
100
AcDbSymbolTableRecord
100
AcDbLayerTableRecord
  2
16
 70
0
 62
7
  6
CONTINUOUS
370
-3
390
F
  0
LAYER
  5
20D
100
AcDbSymbolTableRecord
100
AcDbLayerTableRecord
  2
17
 70
0
 62
7
  6
CONTINUOUS
370
-3
390
F
  0
LAYER
  5
20E
100
AcDbSymbolTableRecord
100
AcDbLayerTableRecord
  2
18
 70
0
 62
7
  6
CONTINUOUS
370
-3
390
F
  0
LAYER
  5
20F
100
AcDbSymbolTableRecord
100
AcDbLayerTableRecord
  2
19
 70
0
 62
7
  6
CONTINUOUS
370
-3
390
F
  0
LAYER
  5
210
100
AcDbSymbolTableRecord
100
AcDbLayerTableRecord
  2
20
 70
0
 62
7
  6
CONTINUOUS
370
-3
390
F
  0
LAYER
  5
211
100
AcDbSymbolTableRecord
100
AcDbLayerTableRecord
  2
21
 70
0
 62
7
  6
CONTINUOUS
370
-3
390
F
  0
LAYER
  5
212
100
AcDbSymbolTableRecord
100
AcDbLayerTableRecord
  2
22
 70
0
 62
7
  6
CONTINUOUS
370
-3
390
F
  0
LAYER
  5
213
100
AcDbSymbolTableRecord
100
AcDbLayerTableRecord
  2
23
 70
0
 62
7
  6
CONTINUOUS
370
-3
390
F
  0
LAYER
  5
214
100
AcDbSymbolTableRecord
100
AcDbLayerTableRecord
  2
24
 70
0
 62
7
  6
CONTINUOUS
370
-3
390
F
  0
LAYER
  5
215
100
AcDbSymbolTableRecord
100
AcDbLayerTableRecord
  2
25
 70
0
 62
7
  6
CONTINUOUS
370
-3
390
F
  0
LAYER
  5
216
100
AcDbSymbolTableRecord
100
AcDbLayerTableRecord
  2
26
 70
0
 62
7
  6
CONTINUOUS
370
-3
390
F
  0
LAYER
  5
217
100
AcDbSymbolTableRecord
100
AcDbLayerTableRecord
  2
27
 70
0
 62
7
  6
CONTINUOUS
370
-3
390
F
  0
LAYER
  5
218
100
AcDbSymbolTableRecord
100
AcDbLayerTableRecord
  2
28
 70
0
 62
7
  6
CONTINUOUS
370
-3
390
F
  0
LAYER
  5
219
100
AcDbSymbolTableRecord
100
AcDbLayerTableRecord
  2
29
 70
0
 62
7
  6
CONTINUOUS
370
-3
390
F
  0
LAYER
  5
21A
100
AcDbSymbolTableRecord
100
AcDbLayerTableRecord
  2
30
 70
0
 62
7
  6
CONTINUOUS
370
-3
390
F
  0
LAYER
  5
21B
100
AcDbSymbolTableRecord
100
AcDbLayerTableRecord
  2
31
 70
0
 62
7
  6
CONTINUOUS
370
-3
390
F
  0
LAYER
  5
21C
100
AcDbSymbolTableRecord
100
AcDbLayerTableRecord
  2
32
 70
0
 62
7
  6
CONTINUOUS
370
-3
390
F
  0
LAYER
  5
21D
100
AcDbSymbolTableRecord
100
AcDbLayerTableRecord
  2
33
 70
0
 62
7
  6
CONTINUOUS
370
-3
390
F
  0
LAYER
  5
21E
100
AcDbSymbolTableRecord
100
AcDbLayerTableRecord
  2
34
 70
0
 62
7
  6
CONTINUOUS
370
-3
390
F
  0
LAYER
  5
21F
100
AcDbSymbolTableRecord
100
AcDbLayerTableRecord
  2
35
 70
0
 62
7
  6
CONTINUOUS
370
-3
390
F
  0
LAYER
  5
220
100
AcDbSymbolTableRecord
100
AcDbLayerTableRecord
  2
36
 70
0
 62
7
  6
CONTINUOUS
370
-3
390
F
  0
LAYER
  5
221
100
AcDbSymbolTableRecord
100
AcDbLayerTableRecord
  2
37
 70
0
 62
7
  6
CONTINUOUS
370
-3
390
F
  0
LAYER
  5
222
100
AcDbSymbolTableRecord
100
AcDbLayerTableRecord
  2
38
 70
0
 62
7
  6
CONTINUOUS
370
-3
390
F
  0
LAYER
  5
223
100
AcDbSymbolTableRecord
100
AcDbLayerTableRecord
  2
39
 70
0
 62
7
  6
CONTINUOUS
370
-3
390
F
  0
LAYER
  5
224
100
AcDbSymbolTableRecord
100
AcDbLayerTableRecord
  2
40
 70
0
 62
7
  6
CONTINUOUS
370
-3
390
F
  0
LAYER
  5
225
100
AcDbSymbolTableRecord
100
AcDbLayerTableRecord
  2
41
 70
0
 62
7
  6
CONTINUOUS
370
-3
390
F
  0
LAYER
  5
226
100
AcDbSymbolTableRecord
100
AcDbLayerTableRecord
  2
42
 70
0
 62
7
  6
CONTINUOUS
370
-3
390
F
  0
LAYER
  5
227
100
AcDbSymbolTableRecord
100
AcDbLayerTableRecord
  2
43
 70
0
 62
7
  6
CONTINUOUS
370
-3
390
F
  0
LAYER
  5
228
100
AcDbSymbolTableRecord
100
AcDbLayerTableRecord
  2
44
 70
0
 62
7
  6
CONTINUOUS
370
-3
390
F
  0
LAYER
  5
229
100
AcDbSymbolTableRecord
100
AcDbLayerTableRecord
  2
45
 70
0
 62
7
  6
CONTINUOUS
370
-3
390
F
  0
LAYER
  5
22A
100
AcDbSymbolTableRecord
100
AcDbLayerTableRecord
  2
46
 70
0
 62
7
  6
CONTINUOUS
370
-3
390
F
  0
LAYER
  5
22B
100
AcDbSymbolTableRecord
100
AcDbLayerTableRecord
  2
47
 70
0
 62
7
  6
CONTINUOUS
370
-3
390
F
  0
LAYER
  5
22C
100
AcDbSymbolTableRecord
100
AcDbLayerTableRecord
  2
48
 70
0
 62
7
  6
CONTINUOUS
370
-3
390
F
  0
LAYER
  5
22D
100
AcDbSymbolTableRecord
100
AcDbLayerTableRecord
  2
49
 70
0
 62
7
  6
CONTINUOUS
370
-3
390
F
  0
LAYER
  5
22E
100
AcDbSymbolTableRecord
100
AcDbLayerTableRecord
  2
50
 70
0
 62
7
  6
CONTINUOUS
370
-3
390
F
  0
LAYER
  5
22F
100
AcDbSymbolTableRecord
100
AcDbLayerTableRecord
  2
51
 70
0
 62
7
  6
CONTINUOUS
370
-3
390
F
  0
LAYER
  5
230
100
AcDbSymbolTableRecord
100
AcDbLayerTableRecord
  2
52
 70
0
 62
7
  6
CONTINUOUS
370
-3
390
F
  0
LAYER
  5
231
100
AcDbSymbolTableRecord
100
AcDbLayerTableRecord
  2
53
 70
0
 62
7
  6
CONTINUOUS
370
-3
390
F
  0
LAYER
  5
232
100
AcDbSymbolTableRecord
100
AcDbLayerTableRecord
  2
54
 70
0
 62
7
  6
CONTINUOUS
370
-3
390
F
  0
LAYER
  5
233
100
AcDbSymbolTableRecord
100
AcDbLayerTableRecord
  2
55
 70
0
 62
7
  6
CONTINUOUS
370
-3
390
F
  0
LAYER
  5
234
100
AcDbSymbolTableRecord
100
AcDbLayerTableRecord
  2
56
 70
0
 62
7
  6
CONTINUOUS
370
-3
390
F
  0
LAYER
  5
235
100
AcDbSymbolTableRecord
100
AcDbLayerTableRecord
  2
57
 70
0
 62
7
  6
CONTINUOUS
370
-3
390
F
  0
LAYER
  5
236
100
AcDbSymbolTableRecord
100
AcDbLayerTableRecord
  2
58
 70
0
 62
7
  6
CONTINUOUS
370
-3
390
F
  0
LAYER
  5
237
100
AcDbSymbolTableRecord
100
AcDbLayerTableRecord
  2
59
 70
0
 62
7
  6
CONTINUOUS
370
-3
390
F
  0
LAYER
  5
238
100
AcDbSymbolTableRecord
100
AcDbLayerTableRecord
  2
60
 70
0
 62
7
  6
CONTINUOUS
370
-3
390
F
  0
LAYER
  5
239
100
AcDbSymbolTableRecord
100
AcDbLayerTableRecord
  2
61
 70
0
 62
7
  6
CONTINUOUS
370
-3
390
F
  0
LAYER
  5
23A
100
AcDbSymbolTableRecord
100
AcDbLayerTableRecord
  2
62
 70
0
 62
7
  6
CONTINUOUS
370
-3
390
F
  0
LAYER
  5
23B
100
AcDbSymbolTableRecord
100
AcDbLayerTableRecord
  2
63
 70
0
 62
7
  6
CONTINUOUS
370
-3
390
F
  0
LAYER
  5
23C
100
AcDbSymbolTableRecord
100
AcDbLayerTableRecord
  2
64
 70
0
 62
7
  6
CONTINUOUS
370
-3
390
F
  0
ENDTAB
  0
TABLE
  2
STYLE
  5
3
100
AcDbSymbolTable
 70
1
  0
ENDTAB
  0
TABLE
  2
VIEW
  5
6
100
AcDbSymbolTable
 70
0
  0
ENDTAB
  0
TABLE
  2
UCS
  5
7
100
AcDbSymbolTable
 70
0
  0
ENDTAB
  0
TABLE
  2
APPID
  5
9
100
AcDbSymbolTable
 70
1
  0
APPID
  5
23D
100
AcDbSymbolTableRecord
100
AcDbRegAppTableRecord
  2
ACAD
 70
0
  0
ENDTAB
  0
TABLE
  2
BLOCK_RECORD
  5
1
100
AcDbSymbolTable
 70
0
  0
BLOCK_RECORD
  5
23E
100
AcDbSymbolTableRecord
100
AcDbBlockTableRecord
  2
*Model_Space
  0
BLOCK_RECORD
  5
23F
100
AcDbSymbolTableRecord
100
AcDbBlockTableRecord
  2
*Paper_Space
  0
BLOCK_RECORD
  5
240
100
AcDbSymbolTableRecord
100
AcDbBlockTableRecord
  2
_CLOSED
  0
ENDTAB
  0
TABLE
  2
DIMSTYLE
  5
A
100
AcDbSymbolTable
 70
1
100
AcDbDimStyleTable
 71
0
  0
ENDTAB
  0
ENDSEC
  0
SECTION
  2
BLOCKS
  0
BLOCK
  5
20
100
AcDbEntity
  8
0
100
AcDbBlockBegin
  2
*Model_Space
 70
0
 10
0.0
 20
0.0
 30
0.0
  3
*Model_Space
  1

  0
ENDBLK
  5
21
100
AcDbEntity
  8
0
100
AcDbBlockEnd
  0
BLOCK
  5
1C
100
AcDbEntity
  8
0
100
AcDbBlockBegin
  2
*Paper_Space
 70
0
 10
0.0
 20
0.0
 30
0.0
  3
*Paper_Space
  1

  0
ENDBLK
  5
1D
100
AcDbEntity
  8
0
100
AcDbBlockEnd
  0
BLOCK
  5
241
100
AcDbEntity
  8
0
100
AcDbBlockBegin
  2
_CLOSED
 70
64
 10
0.0
 20
0.0
  3
_CLOSED
  1

  0
LINE
  5
242
100
AcDbEntity
  8
0
  6
BYBLOCK
 62
0
100
AcDbLine
 10
0.0
 20
0.0
 11
-1.0
 21
0.1666666667
  0
LINE
  5
243
100
AcDbEntity
  8
0
  6
BYBLOCK
 62
0
100
AcDbLine
 10
-1.0
 20
0.1666666667
 11
-1.0
 21
-0.1666666667
  0
LINE
  5
244
100
AcDbEntity
  8
0
  6
BYBLOCK
 62
0
100
AcDbLine
 10
-1.0
 20
-0.1666666667
 11
0.0
 21
0.0
  0
LINE
  5
245
100
AcDbEntity
  8
0
  6
BYBLOCK
 62
0
100
AcDbLine
 10
-1.0
 20
0.0
 11
0.0
 21
0.0
  0
ENDBLK
  5
246
100
AcDbEntity
  8
0
  6
BYBLOCK
 62
0
100
AcDbBlockEnd
  0
ENDSEC
  0
SECTION
  2
ENTITIES
  0
3DFACE
  5
247
100
AcDbEntity
  8
1
100
AcDbFace
  6
CONTINUOUS
 10
-39.2326333267
 20
19.2159265869
 30
0.0
 11
-38.5
 21
20.9832932602
 31
0.0
 12
-39.0
 22
15.5
 32
0.0
 13
-39.2326333267
 23
19.2159265869
 33
0.0
  0
3DFACE
  5
248
100
AcDbEntity
  8
1
100
AcDbFace
  6
CONTINUOUS
 10
-38.5
 20
20.9832932602
 30
0.0
 11
-39.2326333267
 21
22.7506599336
 31
0.0
 12
-28.5720239225
 22
22.7350869828
 32
0.0
 13
-38.5
 23
20.9832932602
 33
0.0
  0
3DFACE
  5
249
100
AcDbEntity
  8
1
100
AcDbFace
  6
CONTINUOUS
 10
-38.5
 20
20.9832932602
 30
0.0
 11
-28.5720239225
 21
22.7350869828
 31
0.0
 12
-38.2928932188
 22
15.2071067812
 32
0.0
 13
-38.5
 23
20.9832932602
 33
0.0
  0
3DFACE
  5
24A
100
AcDbEntity
  8
1
100
AcDbFace
  6
CONTINUOUS
 10
-39.0
 20
15.5
 30
0.0
 11
-38.5
 21
20.9832932602
 31
0.0
 12
-38.2928932188
 22
15.2071067812
 32
0.0
 13
-39.0
 23
15.5
 33
0.0
  0
3DFACE
  5
24B
100
AcDbEntity
  8
1
100
AcDbFace
  6
CONTINUOUS
 10
-41.0
 20
18.4832932602
 30
0.0
 11
-39.2326333267
 21
19.2159265869
 31
0.0
 12
-40.5716368105
 22
15.5
 32
0.0
 13
-41.0
 23
18.4832932602
 33
0.0
  0
3DFACE
  5
24C
100
AcDbEntity
  8
1
100
AcDbFace
  6
CONTINUOUS
 10
-40.5716368105
 20
15.5
 30
0.0
 11
-39.2326333267
 21
19.2159265869
 31
0.0
 12
-39.0
 22
15.5
 32
0.0
 13
-40.5716368105
 23
15.5
 33
0.0
  0
3DFACE
  5
24D
100
AcDbEntity
  8
1
100
AcDbFace
  6
CONTINUOUS
 10
-42.7673666733
 20
19.2159265869
 30
0.0
 11
-41.0
 21
18.4832932602
 31
0.0
 12
-44.0948370063
 22
16.4372990201
 32
0.0
 13
-42.7673666733
 23
19.2159265869
 33
0.0
  0
3DFACE
  5
24E
100
AcDbEntity
  8
1
100
AcDbFace
  6
CONTINUOUS
 10
-44.0948370063
 20
16.4372990201
 30
0.0
 11
-41.0
 21
18.4832932602
 31
0.0
 12
-40.5716368105
 22
15.5
 32
0.0
 13
-44.0948370063
 23
16.4372990201
 33
0.0
  0
3DFACE
  5
24F
100
AcDbEntity
  8
1
100
AcDbFace
  6
CONTINUOUS
 10
-43.5
 20
20.9832932602
 30
0.0
 11
-42.7673666733
 21
19.2159265869
 31
0.0
 12
-44.0948370063
 22
16.4372990201
 32
0.0
 13
-43.5
 23
20.9832932602
 33
0.0
  0
3DFACE
  5
250
100
AcDbEntity
  8
1
100
AcDbFace
  6
CONTINUOUS
 10
-42.7673666733
 20
22.7506599336
 30
0.0
 11
-43.5
 21
20.9832932602
 31
0.0
 12
-43.7209241186
 22
25.7624826966
 32
0.0
 13
-42.7673666733
 23
22.7506599336
 33
0.0
  0
3DFACE
  5
251
100
AcDbEntity
  8
1
100
AcDbFace
  6
CONTINUOUS
 10
-43.7209241186
 20
25.7624826966
 30
0.0
 11
-43.5
 21
20.9832932602
 31
0.0
 12
-44.0948370063
 22
16.4372990201
 32
0.0
 13
-43.7209241186
 23
25.7624826966
 33
0.0
  0
3DFACE
  5
252
100
AcDbEntity
  8
1
100
AcDbFace
  6
CONTINUOUS
 10
-41.0
 20
23.4832932602
 30
0.0
 11
-42.7673666733
 21
22.7506599336
 31
0.0
 12
-40.1339894828
 22
26.4146858795
 32
0.0
 13
-41.0
 23
23.4832932602
 33
0.0
  0
3DFACE
  5
253
100
AcDbEntity
  8
1
100
AcDbFace
  6
CONTINUOUS
 10
-40.1339894828
 20
26.4146858795
 30
0.0
 11
-42.7673666733
 21
22.7506599336
 31
0.0
 12
-43.7209241186
 22
25.7624826966
 32
0.0
 13
-40.1339894828
 23
26.4146858795
 33
0.0
  0
3DFACE
  5
254
100
AcDbEntity
  8
1
100
AcDbFace
  6
CONTINUOUS
 10
-39.2326333267
 20
22.7506599336
 30
0.0
 11
-41.0
 21
23.4832932602
 31
0.0
 12
-40.1339894828
 22
26.4146858795
 32
0.0
 13
-39.2326333267
 23
22.7506599336
 33
0.0
  0
3DFACE
  5
255
100
AcDbEntity
  8
1
100
AcDbFace
  6
CONTINUOUS
 10
-28.5720239225
 20
22.7350869828
 30
0.0
 11
-39.2326333267
 21
22.7506599336
 31
0.0
 12
-40.1339894828
 22
26.4146858795
 32
0.0
 13
-28.5720239225
 23
22.7350869828
 33
0.0
  0
3DFACE
  5
256
100
AcDbEntity
  8
1
100
AcDbFace
  6
CONTINUOUS
 10
-4.0
 20
14.4932932602
 30
0.0
 11
0.0
 21
12.0
 31
0.0
 12
-7.5
 22
0.0
 32
0.0
 13
-4.0
 23
14.4932932602
 33
0.0
  0
3DFACE
  5
257
100
AcDbEntity
  8
1
100
AcDbFace
  6
CONTINUOUS
 10
-7.5
 20
0.0
 30
0.0
 11
0.0
 21
12.0
 31
0.0
 12
0.0
 22
0.0
 32
0.0
 13
-7.5
 23
0.0
 33
0.0
  0
3DFACE
  5
258
100
AcDbEntity
  8
1
100
AcDbFace
  6
CONTINUOUS
 10
-4.0
 20
16.9832932602
 30
0.0
 11
-4.0
 21
14.4932932602
 31
0.0
 12
-7.5
 22
0.0
 32
0.0
 13
-4.0
 23
16.9832932602
 33
0.0
  0
3DFACE
  5
259
100
AcDbEntity
  8
1
100
AcDbFace
  6
CONTINUOUS
 10
-4.0
 20
19.4832932602
 30
0.0
 11
-4.0
 21
16.9832932602
 31
0.0
 12
-7.5
 22
0.0
 32
0.0
 13
-4.0
 23
19.4832932602
 33
0.0
  0
3DFACE
  5
25A
100
AcDbEntity
  8
1
100
AcDbFace
  6
CONTINUOUS
 10
0.0
 20
22.234789913
 30
0.0
 11
-4.0
 21
19.4832932602
 31
0.0
 12
0.0
 22
22.734789913
 32
0.0
 13
0.0
 23
22.234789913
 33
0.0
  0
3DFACE
  5
25B
100
AcDbEntity
  8
1
100
AcDbFace
  6
CONTINUOUS
 10
0.0
 20
22.734789913
 30
0.0
 11
-4.0
 21
19.4832932602
 31
0.0
 12
0.0
 22
34.734789913
 32
0.0
 13
0.0
 23
22.734789913
 33
0.0
  0
3DFACE
  5
25C
100
AcDbEntity
  8
1
100
AcDbFace
  6
CONTINUOUS
 10
0.0
 20
34.734789913
 30
0.0
 11
-4.0
 21
19.4832932602
 31
0.0
 12
-7.5
 22
8.0
 32
0.0
 13
0.0
 23
34.734789913
 33
0.0
  0
3DFACE
  5
25D
100
AcDbEntity
  8
1
100
AcDbFace
  6
CONTINUOUS
 10
-7.5
 20
8.0
 30
0.0
 11
-4.0
 21
19.4832932602
 31
0.0
 12
-7.5
 22
0.0
 32
0.0
 13
-7.5
 23
8.0
 33
0.0
  0
3DFACE
  5
25E
100
AcDbEntity
  8
1
100
AcDbFace
  6
CONTINUOUS
 10
-7.5
 20
34.734789913
 30
0.0
 11
0.0
 21
34.734789913
 31
0.0
 12
-7.5
 22
23.234789913
 32
0.0
 13
-7.5
 23
34.734789913
 33
0.0
  0
3DFACE
  5
25F
100
AcDbEntity
  8
1
100
AcDbFace
  6
CONTINUOUS
 10
-7.5
 20
23.234789913
 30
0.0
 11
0.0
 21
34.734789913
 31
0.0
 12
-7.5
 22
17.2332932602
 32
0.0
 13
-7.5
 23
23.234789913
 33
0.0
  0
3DFACE
  5
260
100
AcDbEntity
  8
1
100
AcDbFace
  6
CONTINUOUS
 10
0.0
 20
34.734789913
 30
0.0
 11
-7.5
 21
8.0
 31
0.0
 12
-7.5
 22
16.7432932602
 32
0.0
 13
0.0
 23
34.734789913
 33
0.0
  0
3DFACE
  5
261
100
AcDbEntity
  8
1
100
AcDbFace
  6
CONTINUOUS
 10
-7.5
 20
16.9832932602
 30
0.0
 11
0.0
 21
34.734789913
 31
0.0
 12
-7.5
 22
16.7432932602
 32
0.0
 13
-7.5
 23
16.9832932602
 33
0.0
  0
3DFACE
  5
262
100
AcDbEntity
  8
1
100
AcDbFace
  6
CONTINUOUS
 10
0.0
 20
34.734789913
 30
0.0
 11
-7.5
 21
16.9832932602
 31
0.0
 12
-7.5
 22
17.2332932602
 32
0.0
 13
0.0
 23
34.734789913
 33
0.0
  0
3DFACE
  5
263
100
AcDbEntity
  8
1
100
AcDbFace
  6
CONTINUOUS
 10
-7.7928932188
 20
22.5276831319
 30
0.0
 11
-7.5
 21
23.234789913
 31
0.0
 12
-8.159369994
 22
18.8239232662
 32
0.0
 13
-7.7928932188
 23
22.5276831319
 33
0.0
  0
3DFACE
  5
264
100
AcDbEntity
  8
1
100
AcDbFace
  6
CONTINUOUS
 10
-8.159369994
 20
18.8239232662
 30
0.0
 11
-7.5
 21
23.234789913
 31
0.0
 12
-7.5
 22
17.2332932602
 32
0.0
 13
-8.159369994
 23
18.8239232662
 33
0.0
  0
3DFACE
  5
265
100
AcDbEntity
  8
1
100
AcDbFace
  6
CONTINUOUS
 10
-8.5
 20
22.234789913
 30
0.0
 11
-7.7928932188
 21
22.5276831319
 31
0.0
 12
-8.159369994
 22
18.8239232662
 32
0.0
 13
-8.5
 23
22.234789913
 33
0.0
  0
3DFACE
  5
266
100
AcDbEntity
  8
1
100
AcDbFace
  6
CONTINUOUS
 10
-18.5
 20
22.234789913
 30
0.0
 11
-8.5
 21
22.234789913
 31
0.0
 12
-9.75
 22
19.4832932602
 32
0.0
 13
-18.5
 23
22.234789913
 33
0.0
  0
3DFACE
  5
267
100
AcDbEntity
  8
1
100
AcDbFace
  6
CONTINUOUS
 10
-9.75
 20
19.4832932602
 30
0.0
 11
-8.5
 21
22.234789913
 31
0.0
 12
-8.159369994
 22
18.8239232662
 32
0.0
 13
-9.75
 23
19.4832932602
 33
0.0
  0
3DFACE
  5
268
100
AcDbEntity
  8
1
100
AcDbFace
  6
CONTINUOUS
 10
-19.2071067812
 20
22.5276831319
 30
0.0
 11
-18.5
 21
22.234789913
 31
0.0
 12
-31.25
 22
19.4832932602
 32
0.0
 13
-19.2071067812
 23
22.5276831319
 33
0.0
  0
3DFACE
  5
269
100
AcDbEntity
  8
1
100
AcDbFace
  6
CONTINUOUS
 10
-31.25
 20
19.4832932602
 30
0.0
 11
-18.5
 21
22.234789913
 31
0.0
 12
-9.75
 22
19.4832932602
 32
0.0
 13
-31.25
 23
19.4832932602
 33
0.0
  0
3DFACE
  5
26A
100
AcDbEntity
  8
1
100
AcDbFace
  6
CONTINUOUS
 10
-19.5
 20
23.234789913
 30
0.0
 11
-19.2071067812
 21
22.5276831319
 31
0.0
 12
-31.25
 22
19.4832932602
 32
0.0
 13
-19.5
 23
23.234789913
 33
0.0
  0
3DFACE
  5
26B
100
AcDbEntity
  8
1
100
AcDbFace
  6
CONTINUOUS
 10
-19.5
 20
34.734789913
 30
0.0
 11
-19.5
 21
23.234789913
 31
0.0
 12
-27.4946052568
 22
22.9112470429
 32
0.0
 13
-19.5
 23
34.734789913
 33
0.0
  0
3DFACE
  5
26C
100
AcDbEntity
  8
1
100
AcDbFace
  6
CONTINUOUS
 10
-27.4946052568
 20
22.9112470429
 30
0.0
 11
-19.5
 21
23.234789913
 31
0.0
 12
-31.25
 22
19.4832932602
 32
0.0
 13
-27.4946052568
 23
22.9112470429
 33
0.0
  0
3DFACE
  5
26D
100
AcDbEntity
  8
1
100
AcDbFace
  6
CONTINUOUS
 10
-27.0
 20
34.734789913
 30
0.0
 11
-19.5
 21
34.734789913
 31
0.0
 12
-27.0
 22
23.88450394
 32
0.0
 13
-27.0
 23
34.734789913
 33
0.0
  0
3DFACE
  5
26E
100
AcDbEntity
  8
1
100
AcDbFace
  6
CONTINUOUS
 10
-27.0
 20
23.88450394
 30
0.0
 11
-19.5
 21
34.734789913
 31
0.0
 12
-27.4946052568
 22
22.9112470429
 32
0.0
 13
-27.0
 23
23.88450394
 33
0.0
  0
3DFACE
  5
26F
100
AcDbEntity
  8
1
100
AcDbFace
  6
CONTINUOUS
 10
-28.5720239225
 20
22.7350869828
 30
0.0
 11
-27.4946052568
 21
22.9112470429
 31
0.0
 12
-31.25
 22
19.4832932602
 32
0.0
 13
-28.5720239225
 23
22.7350869828
 33
0.0
  0
3DFACE
  5
270
100
AcDbEntity
  8
1
100
AcDbFace
  6
CONTINUOUS
 10
-38.2928932188
 20
15.2071067812
 30
0.0
 11
-28.5720239225
 21
22.7350869828
 31
0.0
 12
-38.0
 22
14.5
 32
0.0
 13
-38.2928932188
 23
15.2071067812
 33
0.0
  0
3DFACE
  5
271
100
AcDbEntity
  8
1
100
AcDbFace
  6
CONTINUOUS
 10
-38.0
 20
14.5
 30
0.0
 11
-28.5720239225
 21
22.7350869828
 31
0.0
 12
-32.840630006
 22
18.8239232662
 32
0.0
 13
-38.0
 23
14.5
 33
0.0
  0
3DFACE
  5
272
100
AcDbEntity
  8
1
100
AcDbFace
  6
CONTINUOUS
 10
-32.840630006
 20
18.8239232662
 30
0.0
 11
-28.5720239225
 21
22.7350869828
 31
0.0
 12
-31.25
 22
19.4832932602
 32
0.0
 13
-32.840630006
 23
18.8239232662
 33
0.0
  0
3DFACE
  5
273
100
AcDbEntity
  8
1
100
AcDbFace
  6
CONTINUOUS
 10
-46.1112513964
 20
23.0136830297
 30
0.0
 11
-43.7209241186
 21
25.7624826966
 31
0.0
 12
-44.0948370063
 22
16.4372990201
 32
0.0
 13
-46.1112513964
 23
23.0136830297
 33
0.0
  0
3DFACE
  5
274
100
AcDbEntity
  8
1
100
AcDbFace
  6
CONTINUOUS
 10
-46.2574064083
 20
19.3686566724
 30
0.0
 11
-46.1112513964
 21
23.0136830297
 31
0.0
 12
-44.0948370063
 22
16.4372990201
 32
0.0
 13
-46.2574064083
 23
19.3686566724
 33
0.0
  0
3DFACE
  5
275
100
AcDbEntity
  8
1
100
AcDbFace
  6
CONTINUOUS
 10
-38.0
 20
10.5
 30
0.0
 11
-38.0
 21
14.5
 31
0.0
 12
-32.840630006
 22
18.8239232662
 32
0.0
 13
-38.0
 23
10.5
 33
0.0
  0
3DFACE
  5
276
100
AcDbEntity
  8
1
100
AcDbFace
  6
CONTINUOUS
 10
-37.5606601718
 20
9.4393398282
 30
0.0
 11
-38.0
 21
10.5
 31
0.0
 12
-32.840630006
 22
18.8239232662
 32
0.0
 13
-37.5606601718
 23
9.4393398282
 33
0.0
  0
3DFACE
  5
277
100
AcDbEntity
  8
1
100
AcDbFace
  6
CONTINUOUS
 10
-36.5
 20
9.0
 30
0.0
 11
-37.5606601718
 21
9.4393398282
 31
0.0
 12
-33.5
 22
17.2332932602
 32
0.0
 13
-36.5
 23
9.0
 33
0.0
  0
3DFACE
  5
278
100
AcDbEntity
  8
1
100
AcDbFace
  6
CONTINUOUS
 10
-33.5
 20
17.2332932602
 30
0.0
 11
-37.5606601718
 21
9.4393398282
 31
0.0
 12
-32.840630006
 22
18.8239232662
 32
0.0
 13
-33.5
 23
17.2332932602
 33
0.0
  0
3DFACE
  5
279
100
AcDbEntity
  8
1
100
AcDbFace
  6
CONTINUOUS
 10
-28.5
 20
9.0
 30
0.0
 11
-36.5
 21
9.0
 31
0.0
 12
-30.0
 22
14.4932932602
 32
0.0
 13
-28.5
 23
9.0
 33
0.0
  0
3DFACE
  5
27A
100
AcDbEntity
  8
1
100
AcDbFace
  6
CONTINUOUS
 10
-30.0
 20
14.4932932602
 30
0.0
 11
-36.5
 21
9.0
 31
0.0
 12
-31.25
 22
14.4932932602
 32
0.0
 13
-30.0
 23
14.4932932602
 33
0.0
  0
3DFACE
  5
27B
100
AcDbEntity
  8
1
100
AcDbFace
  6
CONTINUOUS
 10
-31.25
 20
14.4932932602
 30
0.0
 11
-36.5
 21
9.0
 31
0.0
 12
-32.840630006
 22
15.1526632542
 32
0.0
 13
-31.25
 23
14.4932932602
 33
0.0
  0
3DFACE
  5
27C
100
AcDbEntity
  8
1
100
AcDbFace
  6
CONTINUOUS
 10
-32.840630006
 20
15.1526632542
 30
0.0
 11
-36.5
 21
9.0
 31
0.0
 12
-33.5
 22
16.7432932602
 32
0.0
 13
-32.840630006
 23
15.1526632542
 33
0.0
  0
3DFACE
  5
27D
100
AcDbEntity
  8
1
100
AcDbFace
  6
CONTINUOUS
 10
-33.5
 20
16.7432932602
 30
0.0
 11
-36.5
 21
9.0
 31
0.0
 12
-33.5
 22
16.9832932602
 32
0.0
 13
-33.5
 23
16.7432932602
 33
0.0
  0
3DFACE
  5
27E
100
AcDbEntity
  8
1
100
AcDbFace
  6
CONTINUOUS
 10
-33.5
 20
16.9832932602
 30
0.0
 11
-36.5
 21
9.0
 31
0.0
 12
-33.5
 22
17.2332932602
 32
0.0
 13
-33.5
 23
16.9832932602
 33
0.0
  0
3DFACE
  5
27F
100
AcDbEntity
  8
1
100
AcDbFace
  6
CONTINUOUS
 10
-28.0021034741
 20
9.0
 30
0.0
 11
-28.5
 21
9.0
 31
0.0
 12
-9.75
 22
14.4932932602
 32
0.0
 13
-28.0021034741
 23
9.0
 33
0.0
  0
3DFACE
  5
280
100
AcDbEntity
  8
1
100
AcDbFace
  6
CONTINUOUS
 10
-9.75
 20
14.4932932602
 30
0.0
 11
-28.5
 21
9.0
 31
0.0
 12
-30.0
 22
14.4932932602
 32
0.0
 13
-9.75
 23
14.4932932602
 33
0.0
  0
3DFACE
  5
281
100
AcDbEntity
  8
1
100
AcDbFace
  6
CONTINUOUS
 10
-27.2935093121
 20
8.7064906879
 30
0.0
 11
-28.0021034741
 21
9.0
 31
0.0
 12
-9.75
 22
14.4932932602
 32
0.0
 13
-27.2935093121
 23
8.7064906879
 33
0.0
  0
3DFACE
  5
282
100
AcDbEntity
  8
1
100
AcDbFace
  6
CONTINUOUS
 10
-27.0
 20
7.9978965259
 30
0.0
 11
-27.2935093121
 21
8.7064906879
 31
0.0
 12
-9.75
 22
14.4932932602
 32
0.0
 13
-27.0
 23
7.9978965259
 33
0.0
  0
3DFACE
  5
283
100
AcDbEntity
  8
1
100
AcDbFace
  6
CONTINUOUS
 10
-27.0
 20
0.0
 30
0.0
 11
-27.0
 21
7.9978965259
 31
0.0
 12
-19.2071067812
 22
8.7071067812
 32
0.0
 13
-27.0
 23
0.0
 33
0.0
  0
3DFACE
  5
284
100
AcDbEntity
  8
1
100
AcDbFace
  6
CONTINUOUS
 10
-19.2071067812
 20
8.7071067812
 30
0.0
 11
-27.0
 21
7.9978965259
 31
0.0
 12
-9.75
 22
14.4932932602
 32
0.0
 13
-19.2071067812
 23
8.7071067812
 33
0.0
  0
3DFACE
  5
285
100
AcDbEntity
  8
1
100
AcDbFace
  6
CONTINUOUS
 10
-19.5
 20
0.0
 30
0.0
 11
-27.0
 21
0.0
 31
0.0
 12
-19.5
 22
8.0
 32
0.0
 13
-19.5
 23
0.0
 33
0.0
  0
3DFACE
  5
286
100
AcDbEntity
  8
1
100
AcDbFace
  6
CONTINUOUS
 10
-19.5
 20
8.0
 30
0.0
 11
-27.0
 21
0.0
 31
0.0
 12
-19.2071067812
 22
8.7071067812
 32
0.0
 13
-19.5
 23
8.0
 33
0.0
  0
3DFACE
  5
287
100
AcDbEntity
  8
1
100
AcDbFace
  6
CONTINUOUS
 10
-18.5
 20
9.0
 30
0.0
 11
-19.2071067812
 21
8.7071067812
 31
0.0
 12
-9.75
 22
14.4932932602
 32
0.0
 13
-18.5
 23
9.0
 33
0.0
  0
3DFACE
  5
288
100
AcDbEntity
  8
1
100
AcDbFace
  6
CONTINUOUS
 10
-8.5
 20
9.0
 30
0.0
 11
-18.5
 21
9.0
 31
0.0
 12
-9.75
 22
14.4932932602
 32
0.0
 13
-8.5
 23
9.0
 33
0.0
  0
3DFACE
  5
289
100
AcDbEntity
  8
1
100
AcDbFace
  6
CONTINUOUS
 10
-7.7928932188
 20
8.7071067812
 30
0.0
 11
-8.5
 21
9.0
 31
0.0
 12
-8.159369994
 22
15.1526632542
 32
0.0
 13
-7.7928932188
 23
8.7071067812
 33
0.0
  0
3DFACE
  5
28A
100
AcDbEntity
  8
1
100
AcDbFace
  6
CONTINUOUS
 10
-8.159369994
 20
15.1526632542
 30
0.0
 11
-8.5
 21
9.0
 31
0.0
 12
-9.75
 22
14.4932932602
 32
0.0
 13
-8.159369994
 23
15.1526632542
 33
0.0
  0
3DFACE
  5
28B
100
AcDbEntity
  8
1
100
AcDbFace
  6
CONTINUOUS
 10
-7.5
 20
8.0
 30
0.0
 11
-7.7928932188
 21
8.7071067812
 31
0.0
 12
-7.5
 22
16.7432932602
 32
0.0
 13
-7.5
 23
8.0
 33
0.0
  0
3DFACE
  5
28C
100
AcDbEntity
  8
1
100
AcDbFace
  6
CONTINUOUS
 10
-7.5
 20
16.7432932602
 30
0.0
 11
-7.7928932188
 21
8.7071067812
 31
0.0
 12
-8.159369994
 22
15.1526632542
 32
0.0
 13
-7.5
 23
16.7432932602
 33
0.0
  0
3DFACE
  5
28D
100
AcDbEntity
  8
2
100
AcDbFace
  6
CONTINUOUS
 10
-39.2326333267
 20
22.7506599336
 30
4.5
 11
-38.5
 21
20.9832932602
 31
4.5
 12
-40.1339894828
 22
26.4146858795
 32
4.5
 13
-39.2326333267
 23
22.7506599336
 33
4.5
  0
3DFACE
  5
28E
100
AcDbEntity
  8
2
100
AcDbFace
  6
CONTINUOUS
 10
-38.5
 20
20.9832932602
 30
4.5
 11
-39.2326333267
 21
19.2159265869
 31
4.5
 12
-39.0
 22
15.5
 32
4.5
 13
-38.5
 23
20.9832932602
 33
4.5
  0
3DFACE
  5
28F
100
AcDbEntity
  8
2
100
AcDbFace
  6
CONTINUOUS
 10
-36.5
 20
9.0
 30
4.5
 11
-38.5
 21
20.9832932602
 31
4.5
 12
-37.5606601718
 22
9.4393398282
 32
4.5
 13
-36.5
 23
9.0
 33
4.5
  0
3DFACE
  5
290
100
AcDbEntity
  8
2
100
AcDbFace
  6
CONTINUOUS
 10
-38.5
 20
20.9832932602
 30
4.5
 11
-36.5
 21
9.0
 31
4.5
 12
-33.5
 22
16.7432932602
 32
4.5
 13
-38.5
 23
20.9832932602
 33
4.5
  0
3DFACE
  5
291
100
AcDbEntity
  8
2
100
AcDbFace
  6
CONTINUOUS
 10
-37.5606601718
 20
9.4393398282
 30
4.5
 11
-38.5
 21
20.9832932602
 31
4.5
 12
-38.0
 22
14.5
 32
4.5
 13
-37.5606601718
 23
9.4393398282
 33
4.5
  0
3DFACE
  5
292
100
AcDbEntity
  8
2
100
AcDbFace
  6
CONTINUOUS
 10
-38.0
 20
14.5
 30
4.5
 11
-38.5
 21
20.9832932602
 31
4.5
 12
-38.2928932188
 22
15.2071067812
 32
4.5
 13
-38.0
 23
14.5
 33
4.5
  0
3DFACE
  5
293
100
AcDbEntity
  8
2
100
AcDbFace
  6
CONTINUOUS
 10
-38.2928932188
 20
15.2071067812
 30
4.5
 11
-38.5
 21
20.9832932602
 31
4.5
 12
-39.0
 22
15.5
 32
4.5
 13
-38.2928932188
 23
15.2071067812
 33
4.5
  0
3DFACE
  5
294
100
AcDbEntity
  8
2
100
AcDbFace
  6
CONTINUOUS
 10
-40.1339894828
 20
26.4146858795
 30
4.5
 11
-38.5
 21
20.9832932602
 31
4.5
 12
-33.5
 22
16.7432932602
 32
4.5
 13
-40.1339894828
 23
26.4146858795
 33
4.5
  0
3DFACE
  5
295
100
AcDbEntity
  8
2
100
AcDbFace
  6
CONTINUOUS
 10
-41.0
 20
23.4832932602
 30
4.5
 11
-39.2326333267
 21
22.7506599336
 31
4.5
 12
-40.1339894828
 22
26.4146858795
 32
4.5
 13
-41.0
 23
23.4832932602
 33
4.5
  0
3DFACE
  5
296
100
AcDbEntity
  8
2
100
AcDbFace
  6
CONTINUOUS
 10
-42.7673666733
 20
22.7506599336
 30
4.5
 11
-41.0
 21
23.4832932602
 31
4.5
 12
-43.7209241186
 22
25.7624826966
 32
4.5
 13
-42.7673666733
 23
22.7506599336
 33
4.5
  0
3DFACE
  5
297
100
AcDbEntity
  8
2
100
AcDbFace
  6
CONTINUOUS
 10
-43.7209241186
 20
25.7624826966
 30
4.5
 11
-41.0
 21
23.4832932602
 31
4.5
 12
-40.1339894828
 22
26.4146858795
 32
4.5
 13
-43.7209241186
 23
25.7624826966
 33
4.5
  0
3DFACE
  5
298
100
AcDbEntity
  8
2
100
AcDbFace
  6
CONTINUOUS
 10
-43.5
 20
20.9832932602
 30
4.5
 11
-42.7673666733
 21
22.7506599336
 31
4.5
 12
-43.7209241186
 22
25.7624826966
 32
4.5
 13
-43.5
 23
20.9832932602
 33
4.5
  0
3DFACE
  5
299
100
AcDbEntity
  8
2
100
AcDbFace
  6
CONTINUOUS
 10
-42.7673666733
 20
19.2159265869
 30
4.5
 11
-43.5
 21
20.9832932602
 31
4.5
 12
-44.0948370063
 22
16.4372990201
 32
4.5
 13
-42.7673666733
 23
19.2159265869
 33
4.5
  0
3DFACE
  5
29A
100
AcDbEntity
  8
2
100
AcDbFace
  6
CONTINUOUS
 10
-44.0948370063
 20
16.4372990201
 30
4.5
 11
-43.5
 21
20.9832932602
 31
4.5
 12
-43.7209241186
 22
25.7624826966
 32
4.5
 13
-44.0948370063
 23
16.4372990201
 33
4.5
  0
3DFACE
  5
29B
100
AcDbEntity
  8
2
100
AcDbFace
  6
CONTINUOUS
 10
-41.0
 20
18.4832932602
 30
4.5
 11
-42.7673666733
 21
19.2159265869
 31
4.5
 12
-40.5716368105
 22
15.5
 32
4.5
 13
-41.0
 23
18.4832932602
 33
4.5
  0
3DFACE
  5
29C
100
AcDbEntity
  8
2
100
AcDbFace
  6
CONTINUOUS
 10
-40.5716368105
 20
15.5
 30
4.5
 11
-42.7673666733
 21
19.2159265869
 31
4.5
 12
-44.0948370063
 22
16.4372990201
 32
4.5
 13
-40.5716368105
 23
15.5
 33
4.5
  0
3DFACE
  5
29D
100
AcDbEntity
  8
2
100
AcDbFace
  6
CONTINUOUS
 10
-39.2326333267
 20
19.2159265869
 30
4.5
 11
-41.0
 21
18.4832932602
 31
4.5
 12
-40.5716368105
 22
15.5
 32
4.5
 13
-39.2326333267
 23
19.2159265869
 33
4.5
  0
3DFACE
  5
29E
100
AcDbEntity
  8
2
100
AcDbFace
  6
CONTINUOUS
 10
-39.0
 20
15.5
 30
4.5
 11
-39.2326333267
 21
19.2159265869
 31
4.5
 12
-40.5716368105
 22
15.5
 32
4.5
 13
-39.0
 23
15.5
 33
4.5
  0
3DFACE
  5
29F
100
AcDbEntity
  8
2
100
AcDbFace
  6
CONTINUOUS
 10
0.0
 20
0.0
 30
4.5
 11
0.0
 21
12.0
 31
4.5
 12
-4.0
 22
14.4932932602
 32
4.5
 13
0.0
 23
0.0
 33
4.5
  0
3DFACE
  5
2A0
100
AcDbEntity
  8
2
100
AcDbFace
  6
CONTINUOUS
 10
-7.5
 20
0.0
 30
4.5
 11
0.0
 21
0.0
 31
4.5
 12
-7.5
 22
8.0
 32
4.5
 13
-7.5
 23
0.0
 33
4.5
  0
3DFACE
  5
2A1
100
AcDbEntity
  8
2
100
AcDbFace
  6
CONTINUOUS
 10
-7.5
 20
8.0
 30
4.5
 11
0.0
 21
0.0
 31
4.5
 12
-7.5
 22
16.7432932602
 32
4.5
 13
-7.5
 23
8.0
 33
4.5
  0
3DFACE
  5
2A2
100
AcDbEntity
  8
2
100
AcDbFace
  6
CONTINUOUS
 10
-7.5
 20
23.234789913
 30
4.5
 11
0.0
 21
0.0
 31
4.5
 12
-4.0
 22
14.4932932602
 32
4.5
 13
-7.5
 23
23.234789913
 33
4.5
  0
3DFACE
  5
2A3
100
AcDbEntity
  8
2
100
AcDbFace
  6
CONTINUOUS
 10
0.0
 20
0.0
 30
4.5
 11
-7.5
 21
23.234789913
 31
4.5
 12
-7.5
 22
17.2332932602
 32
4.5
 13
0.0
 23
0.0
 33
4.5
  0
3DFACE
  5
2A4
100
AcDbEntity
  8
2
100
AcDbFace
  6
CONTINUOUS
 10
-7.5
 20
16.9832932602
 30
4.5
 11
0.0
 21
0.0
 31
4.5
 12
-7.5
 22
17.2332932602
 32
4.5
 13
-7.5
 23
16.9832932602
 33
4.5
  0
3DFACE
  5
2A5
100
AcDbEntity
  8
2
100
AcDbFace
  6
CONTINUOUS
 10
0.0
 20
0.0
 30
4.5
 11
-7.5
 21
16.9832932602
 31
4.5
 12
-7.5
 22
16.7432932602
 32
4.5
 13
0.0
 23
0.0
 33
4.5
  0
3DFACE
  5
2A6
100
AcDbEntity
  8
2
100
AcDbFace
  6
CONTINUOUS
 10
-7.7928932188
 20
8.7071067812
 30
4.5
 11
-7.5
 21
8.0
 31
4.5
 12
-8.159369994
 22
15.1526632542
 32
4.5
 13
-7.7928932188
 23
8.7071067812
 33
4.5
  0
3DFACE
  5
2A7
100
AcDbEntity
  8
2
100
AcDbFace
  6
CONTINUOUS
 10
-8.159369994
 20
15.1526632542
 30
4.5
 11
-7.5
 21
8.0
 31
4.5
 12
-7.5
 22
16.7432932602
 32
4.5
 13
-8.159369994
 23
15.1526632542
 33
4.5
  0
3DFACE
  5
2A8
100
AcDbEntity
  8
2
100
AcDbFace
  6
CONTINUOUS
 10
-8.5
 20
9.0
 30
4.5
 11
-7.7928932188
 21
8.7071067812
 31
4.5
 12
-8.159369994
 22
15.1526632542
 32
4.5
 13
-8.5
 23
9.0
 33
4.5
  0
3DFACE
  5
2A9
100
AcDbEntity
  8
2
100
AcDbFace
  6
CONTINUOUS
 10
-18.5
 20
9.0
 30
4.5
 11
-8.5
 21
9.0
 31
4.5
 12
-9.75
 22
14.4932932602
 32
4.5
 13
-18.5
 23
9.0
 33
4.5
  0
3DFACE
  5
2AA
100
AcDbEntity
  8
2
100
AcDbFace
  6
CONTINUOUS
 10
-9.75
 20
14.4932932602
 30
4.5
 11
-8.5
 21
9.0
 31
4.5
 12
-8.159369994
 22
15.1526632542
 32
4.5
 13
-9.75
 23
14.4932932602
 33
4.5
  0
3DFACE
  5
2AB
100
AcDbEntity
  8
2
100
AcDbFace
  6
CONTINUOUS
 10
-19.2071067812
 20
8.7071067812
 30
4.5
 11
-18.5
 21
9.0
 31
4.5
 12
-30.0
 22
14.4932932602
 32
4.5
 13
-19.2071067812
 23
8.7071067812
 33
4.5
  0
3DFACE
  5
2AC
100
AcDbEntity
  8
2
100
AcDbFace
  6
CONTINUOUS
 10
-30.0
 20
14.4932932602
 30
4.5
 11
-18.5
 21
9.0
 31
4.5
 12
-9.75
 22
14.4932932602
 32
4.5
 13
-30.0
 23
14.4932932602
 33
4.5
  0
3DFACE
  5
2AD
100
AcDbEntity
  8
2
100
AcDbFace
  6
CONTINUOUS
 10
-19.5
 20
8.0
 30
4.5
 11
-19.2071067812
 21
8.7071067812
 31
4.5
 12
-30.0
 22
14.4932932602
 32
4.5
 13
-19.5
 23
8.0
 33
4.5
  0
3DFACE
  5
2AE
100
AcDbEntity
  8
2
100
AcDbFace
  6
CONTINUOUS
 10
-19.5
 20
0.0
 30
4.5
 11
-19.5
 21
8.0
 31
4.5
 12
-30.0
 22
14.4932932602
 32
4.5
 13
-19.5
 23
0.0
 33
4.5
  0
3DFACE
  5
2AF
100
AcDbEntity
  8
2
100
AcDbFace
  6
CONTINUOUS
 10
-27.0
 20
0.0
 30
4.5
 11
-19.5
 21
0.0
 31
4.5
 12
-27.0
 22
7.9978965259
 32
4.5
 13
-27.0
 23
0.0
 33
4.5
  0
3DFACE
  5
2B0
100
AcDbEntity
  8
2
100
AcDbFace
  6
CONTINUOUS
 10
-27.0
 20
7.9978965259
 30
4.5
 11
-19.5
 21
0.0
 31
4.5
 12
-27.2935093121
 22
8.7064906879
 32
4.5
 13
-27.0
 23
7.9978965259
 33
4.5
  0
3DFACE
  5
2B1
100
AcDbEntity
  8
2
100
AcDbFace
  6
CONTINUOUS
 10
-27.2935093121
 20
8.7064906879
 30
4.5
 11
-19.5
 21
0.0
 31
4.5
 12
-30.0
 22
14.4932932602
 32
4.5
 13
-27.2935093121
 23
8.7064906879
 33
4.5
  0
3DFACE
  5
2B2
100
AcDbEntity
  8
2
100
AcDbFace
  6
CONTINUOUS
 10
-28.0021034741
 20
9.0
 30
4.5
 11
-27.2935093121
 21
8.7064906879
 31
4.5
 12
-30.0
 22
14.4932932602
 32
4.5
 13
-28.0021034741
 23
9.0
 33
4.5
  0
3DFACE
  5
2B3
100
AcDbEntity
  8
2
100
AcDbFace
  6
CONTINUOUS
 10
-28.5
 20
9.0
 30
4.5
 11
-28.0021034741
 21
9.0
 31
4.5
 12
-30.0
 22
14.4932932602
 32
4.5
 13
-28.5
 23
9.0
 33
4.5
  0
3DFACE
  5
2B4
100
AcDbEntity
  8
2
100
AcDbFace
  6
CONTINUOUS
 10
-36.5
 20
9.0
 30
4.5
 11
-28.5
 21
9.0
 31
4.5
 12
-32.840630006
 22
15.1526632542
 32
4.5
 13
-36.5
 23
9.0
 33
4.5
  0
3DFACE
  5
2B5
100
AcDbEntity
  8
2
100
AcDbFace
  6
CONTINUOUS
 10
-32.840630006
 20
15.1526632542
 30
4.5
 11
-28.5
 21
9.0
 31
4.5
 12
-31.25
 22
14.4932932602
 32
4.5
 13
-32.840630006
 23
15.1526632542
 33
4.5
  0
3DFACE
  5
2B6
100
AcDbEntity
  8
2
100
AcDbFace
  6
CONTINUOUS
 10
-31.25
 20
14.4932932602
 30
4.5
 11
-28.5
 21
9.0
 31
4.5
 12
-30.0
 22
14.4932932602
 32
4.5
 13
-31.25
 23
14.4932932602
 33
4.5
  0
3DFACE
  5
2B7
100
AcDbEntity
  8
2
100
AcDbFace
  6
CONTINUOUS
 10
-33.5
 20
16.7432932602
 30
4.5
 11
-36.5
 21
9.0
 31
4.5
 12
-32.840630006
 22
15.1526632542
 32
4.5
 13
-33.5
 23
16.7432932602
 33
4.5
  0
3DFACE
  5
2B8
100
AcDbEntity
  8
2
100
AcDbFace
  6
CONTINUOUS
 10
-38.0
 20
10.5
 30
4.5
 11
-37.5606601718
 21
9.4393398282
 31
4.5
 12
-38.0
 22
14.5
 32
4.5
 13
-38.0
 23
10.5
 33
4.5
  0
3DFACE
  5
2B9
100
AcDbEntity
  8
2
100
AcDbFace
  6
CONTINUOUS
 10
-46.2574064083
 20
19.3686566724
 30
4.5
 11
-44.0948370063
 21
16.4372990201
 31
4.5
 12
-46.1112513964
 22
23.0136830297
 32
4.5
 13
-46.2574064083
 23
19.3686566724
 33
4.5
  0
3DFACE
  5
2BA
100
AcDbEntity
  8
2
100
AcDbFace
  6
CONTINUOUS
 10
-46.1112513964
 20
23.0136830297
 30
4.5
 11
-44.0948370063
 21
16.4372990201
 31
4.5
 12
-43.7209241186
 22
25.7624826966
 32
4.5
 13
-46.1112513964
 23
23.0136830297
 33
4.5
  0
3DFACE
  5
2BB
100
AcDbEntity
  8
2
100
AcDbFace
  6
CONTINUOUS
 10
-28.5720239225
 20
22.7350869828
 30
4.5
 11
-40.1339894828
 21
26.4146858795
 31
4.5
 12
-31.25
 22
19.4832932602
 32
4.5
 13
-28.5720239225
 23
22.7350869828
 33
4.5
  0
3DFACE
  5
2BC
100
AcDbEntity
  8
2
100
AcDbFace
  6
CONTINUOUS
 10
-31.25
 20
19.4832932602
 30
4.5
 11
-40.1339894828
 21
26.4146858795
 31
4.5
 12
-32.840630006
 22
18.8239232662
 32
4.5
 13
-31.25
 23
19.4832932602
 33
4.5
  0
3DFACE
  5
2BD
100
AcDbEntity
  8
2
100
AcDbFace
  6
CONTINUOUS
 10
-32.840630006
 20
18.8239232662
 30
4.5
 11
-40.1339894828
 21
26.4146858795
 31
4.5
 12
-33.5
 22
17.2332932602
 32
4.5
 13
-32.840630006
 23
18.8239232662
 33
4.5
  0
3DFACE
  5
2BE
100
AcDbEntity
  8
2
100
AcDbFace
  6
CONTINUOUS
 10
-33.5
 20
17.2332932602
 30
4.5
 11
-40.1339894828
 21
26.4146858795
 31
4.5
 12
-33.5
 22
16.9832932602
 32
4.5
 13
-33.5
 23
17.2332932602
 33
4.5
  0
3DFACE
  5
2BF
100
AcDbEntity
  8
2
100
AcDbFace
  6
CONTINUOUS
 10
-33.5
 20
16.9832932602
 30
4.5
 11
-40.1339894828
 21
26.4146858795
 31
4.5
 12
-33.5
 22
16.7432932602
 32
4.5
 13
-33.5
 23
16.9832932602
 33
4.5
  0
3DFACE
  5
2C0
100
AcDbEntity
  8
2
100
AcDbFace
  6
CONTINUOUS
 10
-27.4946052568
 20
22.9112470429
 30
4.5
 11
-28.5720239225
 21
22.7350869828
 31
4.5
 12
-9.75
 22
19.4832932602
 32
4.5
 13
-27.4946052568
 23
22.9112470429
 33
4.5
  0
3DFACE
  5
2C1
100
AcDbEntity
  8
2
100
AcDbFace
  6
CONTINUOUS
 10
-9.75
 20
19.4832932602
 30
4.5
 11
-28.5720239225
 21
22.7350869828
 31
4.5
 12
-31.25
 22
19.4832932602
 32
4.5
 13
-9.75
 23
19.4832932602
 33
4.5
  0
3DFACE
  5
2C2
100
AcDbEntity
  8
2
100
AcDbFace
  6
CONTINUOUS
 10
-27.0
 20
23.88450394
 30
4.5
 11
-27.4946052568
 21
22.9112470429
 31
4.5
 12
-9.75
 22
19.4832932602
 32
4.5
 13
-27.0
 23
23.88450394
 33
4.5
  0
3DFACE
  5
2C3
100
AcDbEntity
  8
2
100
AcDbFace
  6
CONTINUOUS
 10
-27.0
 20
34.734789913
 30
4.5
 11
-27.0
 21
23.88450394
 31
4.5
 12
-19.2071067812
 22
22.5276831319
 32
4.5
 13
-27.0
 23
34.734789913
 33
4.5
  0
3DFACE
  5
2C4
100
AcDbEntity
  8
2
100
AcDbFace
  6
CONTINUOUS
 10
-19.2071067812
 20
22.5276831319
 30
4.5
 11
-27.0
 21
23.88450394
 31
4.5
 12
-18.5
 22
22.234789913
 32
4.5
 13
-19.2071067812
 23
22.5276831319
 33
4.5
  0
3DFACE
  5
2C5
100
AcDbEntity
  8
2
100
AcDbFace
  6
CONTINUOUS
 10
-18.5
 20
22.234789913
 30
4.5
 11
-27.0
 21
23.88450394
 31
4.5
 12
-9.75
 22
19.4832932602
 32
4.5
 13
-18.5
 23
22.234789913
 33
4.5
  0
3DFACE
  5
2C6
100
AcDbEntity
  8
2
100
AcDbFace
  6
CONTINUOUS
 10
-19.5
 20
34.734789913
 30
4.5
 11
-27.0
 21
34.734789913
 31
4.5
 12
-19.5
 22
23.234789913
 32
4.5
 13
-19.5
 23
34.734789913
 33
4.5
  0
3DFACE
  5
2C7
100
AcDbEntity
  8
2
100
AcDbFace
  6
CONTINUOUS
 10
-19.5
 20
23.234789913
 30
4.5
 11
-27.0
 21
34.734789913
 31
4.5
 12
-19.2071067812
 22
22.5276831319
 32
4.5
 13
-19.5
 23
23.234789913
 33
4.5
  0
3DFACE
  5
2C8
100
AcDbEntity
  8
2
100
AcDbFace
  6
CONTINUOUS
 10
-8.5
 20
22.234789913
 30
4.5
 11
-18.5
 21
22.234789913
 31
4.5
 12
-9.75
 22
19.4832932602
 32
4.5
 13
-8.5
 23
22.234789913
 33
4.5
  0
3DFACE
  5
2C9
100
AcDbEntity
  8
2
100
AcDbFace
  6
CONTINUOUS
 10
-7.7928932188
 20
22.5276831319
 30
4.5
 11
-8.5
 21
22.234789913
 31
4.5
 12
-8.159369994
 22
18.8239232662
 32
4.5
 13
-7.7928932188
 23
22.5276831319
 33
4.5
  0
3DFACE
  5
2CA
100
AcDbEntity
  8
2
100
AcDbFace
  6
CONTINUOUS
 10
-8.159369994
 20
18.8239232662
 30
4.5
 11
-8.5
 21
22.234789913
 31
4.5
 12
-9.75
 22
19.4832932602
 32
4.5
 13
-8.159369994
 23
18.8239232662
 33
4.5
  0
3DFACE
  5
2CB
100
AcDbEntity
  8
2
100
AcDbFace
  6
CONTINUOUS
 10
-7.5
 20
23.234789913
 30
4.5
 11
-7.7928932188
 21
22.5276831319
 31
4.5
 12
-7.5
 22
17.2332932602
 32
4.5
 13
-7.5
 23
23.234789913
 33
4.5
  0
3DFACE
  5
2CC
100
AcDbEntity
  8
2
100
AcDbFace
  6
CONTINUOUS
 10
-7.5
 20
17.2332932602
 30
4.5
 11
-7.7928932188
 21
22.5276831319
 31
4.5
 12
-8.159369994
 22
18.8239232662
 32
4.5
 13
-7.5
 23
17.2332932602
 33
4.5
  0
3DFACE
  5
2CD
100
AcDbEntity
  8
2
100
AcDbFace
  6
CONTINUOUS
 10
-7.5
 20
34.734789913
 30
4.5
 11
-7.5
 21
23.234789913
 31
4.5
 12
-4.0
 22
14.4932932602
 32
4.5
 13
-7.5
 23
34.734789913
 33
4.5
  0
3DFACE
  5
2CE
100
AcDbEntity
  8
2
100
AcDbFace
  6
CONTINUOUS
 10
0.0
 20
34.734789913
 30
4.5
 11
-7.5
 21
34.734789913
 31
4.5
 12
0.0
 22
22.734789913
 32
4.5
 13
0.0
 23
34.734789913
 33
4.5
  0
3DFACE
  5
2CF
100
AcDbEntity
  8
2
100
AcDbFace
  6
CONTINUOUS
 10
0.0
 20
22.734789913
 30
4.5
 11
-7.5
 21
34.734789913
 31
4.5
 12
0.0
 22
22.234789913
 32
4.5
 13
0.0
 23
22.734789913
 33
4.5
  0
3DFACE
  5
2D0
100
AcDbEntity
  8
2
100
AcDbFace
  6
CONTINUOUS
 10
0.0
 20
22.234789913
 30
4.5
 11
-7.5
 21
34.734789913
 31
4.5
 12
-4.0
 22
19.4832932602
 32
4.5
 13
0.0
 23
22.234789913
 33
4.5
  0
3DFACE
  5
2D1
100
AcDbEntity
  8
2
100
AcDbFace
  6
CONTINUOUS
 10
-4.0
 20
19.4832932602
 30
4.5
 11
-7.5
 21
34.734789913
 31
4.5
 12
-4.0
 22
16.9832932602
 32
4.5
 13
-4.0
 23
19.4832932602
 33
4.5
  0
3DFACE
  5
2D2
100
AcDbEntity
  8
2
100
AcDbFace
  6
CONTINUOUS
 10
-4.0
 20
16.9832932602
 30
4.5
 11
-7.5
 21
34.734789913
 31
4.5
 12
-4.0
 22
14.4932932602
 32
4.5
 13
-4.0
 23
16.9832932602
 33
4.5
  0
3DFACE
  5
2D3
100
AcDbEntity
  8
3
100
AcDbFace
  6
CONTINUOUS
 10
-27.0
 20
0.0
 30
0.0
 11
-19.5
 21
0.0
 31
0.0
 12
-23.5
 22
0.0
 32
1.0004305667
 13
-27.0
 23
0.0
 33
0.0
  0
3DFACE
  5
2D4
100
AcDbEntity
  8
3
100
AcDbFace
  6
CONTINUOUS
 10
-27.0
 20
0.0
 30
4.5
 11
-27.0
 21
0.0
 31
0.0
 12
-24.3843042487
 22
0.0
 32
1.3668793278
 13
-27.0
 23
0.0
 33
4.5
  0
3DFACE
  5
2D5
100
AcDbEntity
  8
3
100
AcDbFace
  6
CONTINUOUS
 10
-24.3843042487
 20
0.0
 30
1.3668793278
 11
-27.0
 21
0.0
 31
0.0
 12
-23.5
 22
0.0
 32
1.0004305667
 13
-24.3843042487
 23
0.0
 33
1.3668793278
  0
3DFACE
  5
2D6
100
AcDbEntity
  8
3
100
AcDbFace
  6
CONTINUOUS
 10
-19.5
 20
0.0
 30
0.0
 11
-19.5
 21
0.0
 31
4.5
 12
-22.6156957513
 22
0.0
 32
3.1331206722
 13
-19.5
 23
0.0
 33
0.0
  0
3DFACE
  5
2D7
100
AcDbEntity
  8
3
100
AcDbFace
  6
CONTINUOUS
 10
-22.25
 20
0.0
 30
2.25
 11
-19.5
 21
0.0
 31
0.0
 12
-22.6156957513
 22
0.0
 32
3.1331206722
 13
-22.25
 23
0.0
 33
2.25
  0
3DFACE
  5
2D8
100
AcDbEntity
  8
3
100
AcDbFace
  6
CONTINUOUS
 10
-19.5
 20
0.0
 30
0.0
 11
-22.25
 21
0.0
 31
2.25
 12
-22.6156957513
 22
0.0
 32
1.3668793278
 13
-19.5
 23
0.0
 33
0.0
  0
3DFACE
  5
2D9
100
AcDbEntity
  8
3
100
AcDbFace
  6
CONTINUOUS
 10
-23.5
 20
0.0
 30
1.0004305667
 11
-19.5
 21
0.0
 31
0.0
 12
-22.6156957513
 22
0.0
 32
1.3668793278
 13
-23.5
 23
0.0
 33
1.0004305667
  0
3DFACE
  5
2DA
100
AcDbEntity
  8
3
100
AcDbFace
  6
CONTINUOUS
 10
-19.5
 20
0.0
 30
4.5
 11
-27.0
 21
0.0
 31
4.5
 12
-23.5
 22
0.0
 32
3.4995694333
 13
-19.5
 23
0.0
 33
4.5
  0
3DFACE
  5
2DB
100
AcDbEntity
  8
3
100
AcDbFace
  6
CONTINUOUS
 10
-22.6156957513
 20
0.0
 30
3.1331206722
 11
-19.5
 21
0.0
 31
4.5
 12
-23.5
 22
0.0
 32
3.4995694333
 13
-22.6156957513
 23
0.0
 33
3.1331206722
  0
3DFACE
  5
2DC
100
AcDbEntity
  8
3
100
AcDbFace
  6
CONTINUOUS
 10
-23.5
 20
0.0
 30
3.4995694333
 11
-27.0
 21
0.0
 31
4.5
 12
-24.3843042487
 22
0.0
 32
3.1331206722
 13
-23.5
 23
0.0
 33
3.4995694333
  0
3DFACE
  5
2DD
100
AcDbEntity
  8
3
100
AcDbFace
  6
CONTINUOUS
 10
-24.3843042487
 20
0.0
 30
3.1331206722
 11
-27.0
 21
0.0
 31
4.5
 12
-24.75
 22
0.0
 32
2.25
 13
-24.3843042487
 23
0.0
 33
3.1331206722
  0
3DFACE
  5
2DE
100
AcDbEntity
  8
3
100
AcDbFace
  6
CONTINUOUS
 10
-24.75
 20
0.0
 30
2.25
 11
-27.0
 21
0.0
 31
4.5
 12
-24.3843042487
 22
0.0
 32
1.3668793278
 13
-24.75
 23
0.0
 33
2.25
  0
3DFACE
  5
2DF
100
AcDbEntity
  8
4
100
AcDbFace
  6
CONTINUOUS
 10
-7.5
 20
0.0
 30
0.0
 11
0.0
 21
0.0
 31
0.0
 12
-3.5
 22
0.0
 32
1.0004305667
 13
-7.5
 23
0.0
 33
0.0
  0
3DFACE
  5
2E0
100
AcDbEntity
  8
4
100
AcDbFace
  6
CONTINUOUS
 10
-7.5
 20
0.0
 30
4.5
 11
-7.5
 21
0.0
 31
0.0
 12
-4.3843042487
 22
0.0
 32
1.3668793278
 13
-7.5
 23
0.0
 33
4.5
  0
3DFACE
  5
2E1
100
AcDbEntity
  8
4
100
AcDbFace
  6
CONTINUOUS
 10
-4.3843042487
 20
0.0
 30
1.3668793278
 11
-7.5
 21
0.0
 31
0.0
 12
-3.5
 22
0.0
 32
1.0004305667
 13
-4.3843042487
 23
0.0
 33
1.3668793278
  0
3DFACE
  5
2E2
100
AcDbEntity
  8
4
100
AcDbFace
  6
CONTINUOUS
 10
0.0
 20
0.0
 30
0.0
 11
0.0
 21
0.0
 31
4.5
 12
-2.6156957513
 22
0.0
 32
3.1331206722
 13
0.0
 23
0.0
 33
0.0
  0
3DFACE
  5
2E3
100
AcDbEntity
  8
4
100
AcDbFace
  6
CONTINUOUS
 10
-3.5
 20
0.0
 30
1.0004305667
 11
0.0
 21
0.0
 31
0.0
 12
-2.6156957513
 22
0.0
 32
1.3668793278
 13
-3.5
 23
0.0
 33
1.0004305667
  0
3DFACE
  5
2E4
100
AcDbEntity
  8
4
100
AcDbFace
  6
CONTINUOUS
 10
-2.6156957513
 20
0.0
 30
1.3668793278
 11
0.0
 21
0.0
 31
0.0
 12
-2.25
 22
0.0
 32
2.25
 13
-2.6156957513
 23
0.0
 33
1.3668793278
  0
3DFACE
  5
2E5
100
AcDbEntity
  8
4
100
AcDbFace
  6
CONTINUOUS
 10
-2.25
 20
0.0
 30
2.25
 11
0.0
 21
0.0
 31
0.0
 12
-2.6156957513
 22
0.0
 32
3.1331206722
 13
-2.25
 23
0.0
 33
2.25
  0
3DFACE
  5
2E6
100
AcDbEntity
  8
4
100
AcDbFace
  6
CONTINUOUS
 10
0.0
 20
0.0
 30
4.5
 11
-7.5
 21
0.0
 31
4.5
 12
-3.5
 22
0.0
 32
3.4995694333
 13
0.0
 23
0.0
 33
4.5
  0
3DFACE
  5
2E7
100
AcDbEntity
  8
4
100
AcDbFace
  6
CONTINUOUS
 10
-2.6156957513
 20
0.0
 30
3.1331206722
 11
0.0
 21
0.0
 31
4.5
 12
-3.5
 22
0.0
 32
3.4995694333
 13
-2.6156957513
 23
0.0
 33
3.1331206722
  0
3DFACE
  5
2E8
100
AcDbEntity
  8
4
100
AcDbFace
  6
CONTINUOUS
 10
-4.75
 20
0.0
 30
2.25
 11
-7.5
 21
0.0
 31
4.5
 12
-4.3843042487
 22
0.0
 32
1.3668793278
 13
-4.75
 23
0.0
 33
2.25
  0
3DFACE
  5
2E9
100
AcDbEntity
  8
4
100
AcDbFace
  6
CONTINUOUS
 10
-7.5
 20
0.0
 30
4.5
 11
-4.75
 21
0.0
 31
2.25
 12
-4.3843042487
 22
0.0
 32
3.1331206722
 13
-7.5
 23
0.0
 33
4.5
  0
3DFACE
  5
2EA
100
AcDbEntity
  8
4
100
AcDbFace
  6
CONTINUOUS
 10
-3.5
 20
0.0
 30
3.4995694333
 11
-7.5
 21
0.0
 31
4.5
 12
-4.3843042487
 22
0.0
 32
3.1331206722
 13
-3.5
 23
0.0
 33
3.4995694333
  0
3DFACE
  5
2EB
100
AcDbEntity
  8
5
100
AcDbFace
  6
CONTINUOUS
 10
0.0
 20
0.0
 30
0.0
 11
0.0
 21
12.0
 31
0.0
 12
0.0
 22
0.0
 32
4.5
 13
0.0
 23
0.0
 33
0.0
  0
3DFACE
  5
2EC
100
AcDbEntity
  8
5
100
AcDbFace
  6
CONTINUOUS
 10
0.0
 20
12.0
 30
0.0
 11
0.0
 21
12.0
 31
4.5
 12
0.0
 22
0.0
 32
4.5
 13
0.0
 23
12.0
 33
0.0
  0
3DFACE
  5
2ED
100
AcDbEntity
  8
6
100
AcDbFace
  6
CONTINUOUS
 10
-9.75
 20
19.4832932602
 30
0.0
 11
-8.159369994
 21
18.8239232662
 31
0.0
 12
-9.75
 22
19.4832932602
 32
4.5
 13
-9.75
 23
19.4832932602
 33
0.0
  0
3DFACE
  5
2EE
100
AcDbEntity
  8
6
100
AcDbFace
  6
CONTINUOUS
 10
-8.159369994
 20
18.8239232662
 30
0.0
 11
-7.5
 21
17.2332932602
 31
0.0
 12
-8.159369994
 22
18.8239232662
 32
4.5
 13
-8.159369994
 23
18.8239232662
 33
0.0
  0
3DFACE
  5
2EF
100
AcDbEntity
  8
6
100
AcDbFace
  6
CONTINUOUS
 10
-8.159369994
 20
18.8239232662
 30
0.0
 11
-8.159369994
 21
18.8239232662
 31
4.5
 12
-9.75
 22
19.4832932602
 32
4.5
 13
-8.159369994
 23
18.8239232662
 33
0.0
  0
3DFACE
  5
2F0
100
AcDbEntity
  8
6
100
AcDbFace
  6
CONTINUOUS
 10
-7.5
 20
17.2332932602
 30
0.0
 11
-7.5
 21
17.2332932602
 31
4.5
 12
-8.159369994
 22
18.8239232662
 32
4.5
 13
-7.5
 23
17.2332932602
 33
0.0
  0
3DFACE
  5
2F1
100
AcDbEntity
  8
7
100
AcDbFace
  6
CONTINUOUS
 10
-7.5
 20
17.2332932602
 30
0.0
 11
-7.5
 21
16.9832932602
 31
0.0
 12
-7.5
 22
16.9832932602
 32
4.5
 13
-7.5
 23
17.2332932602
 33
0.0
  0
3DFACE
  5
2F2
100
AcDbEntity
  8
7
100
AcDbFace
  6
CONTINUOUS
 10
-7.5
 20
17.2332932602
 30
0.0
 11
-7.5
 21
16.9832932602
 31
4.5
 12
-7.5
 22
17.2332932602
 32
4.5
 13
-7.5
 23
17.2332932602
 33
0.0
  0
3DFACE
  5
2F3
100
AcDbEntity
  8
8
100
AcDbFace
  6
CONTINUOUS
 10
-7.5
 20
16.9832932602
 30
0.0
 11
-7.5
 21
16.7432932602
 31
0.0
 12
-7.5
 22
16.7432932602
 32
4.5
 13
-7.5
 23
16.9832932602
 33
0.0
  0
3DFACE
  5
2F4
100
AcDbEntity
  8
8
100
AcDbFace
  6
CONTINUOUS
 10
-7.5
 20
16.9832932602
 30
4.5
 11
-7.5
 21
16.9832932602
 31
0.0
 12
-7.5
 22
16.7432932602
 32
4.5
 13
-7.5
 23
16.9832932602
 33
4.5
  0
3DFACE
  5
2F5
100
AcDbEntity
  8
9
100
AcDbFace
  6
CONTINUOUS
 10
-7.5
 20
16.7432932602
 30
0.0
 11
-8.159369994
 21
15.1526632542
 31
0.0
 12
-7.5
 22
16.7432932602
 32
4.5
 13
-7.5
 23
16.7432932602
 33
0.0
  0
3DFACE
  5
2F6
100
AcDbEntity
  8
9
100
AcDbFace
  6
CONTINUOUS
 10
-8.159369994
 20
15.1526632542
 30
0.0
 11
-9.75
 21
14.4932932602
 31
0.0
 12
-8.159369994
 22
15.1526632542
 32
4.5
 13
-8.159369994
 23
15.1526632542
 33
0.0
  0
3DFACE
  5
2F7
100
AcDbEntity
  8
9
100
AcDbFace
  6
CONTINUOUS
 10
-8.159369994
 20
15.1526632542
 30
0.0
 11
-8.159369994
 21
15.1526632542
 31
4.5
 12
-7.5
 22
16.7432932602
 32
4.5
 13
-8.159369994
 23
15.1526632542
 33
0.0
  0
3DFACE
  5
2F8
100
AcDbEntity
  8
9
100
AcDbFace
  6
CONTINUOUS
 10
-9.75
 20
14.4932932602
 30
0.0
 11
-9.75
 21
14.4932932602
 31
4.5
 12
-8.159369994
 22
15.1526632542
 32
4.5
 13
-9.75
 23
14.4932932602
 33
0.0
  0
3DFACE
  5
2F9
100
AcDbEntity
  8
10
100
AcDbFace
  6
CONTINUOUS
 10
-9.75
 20
14.4932932602
 30
0.0
 11
-30.0
 21
14.4932932602
 31
0.0
 12
-9.75
 22
14.4932932602
 32
4.5
 13
-9.75
 23
14.4932932602
 33
0.0
  0
3DFACE
  5
2FA
100
AcDbEntity
  8
10
100
AcDbFace
  6
CONTINUOUS
 10
-30.0
 20
14.4932932602
 30
0.0
 11
-30.0
 21
14.4932932602
 31
4.5
 12
-9.75
 22
14.4932932602
 32
4.5
 13
-30.0
 23
14.4932932602
 33
0.0
  0
3DFACE
  5
2FB
100
AcDbEntity
  8
11
100
AcDbFace
  6
CONTINUOUS
 10
-30.0
 20
14.4932932602
 30
0.0
 11
-31.25
 21
14.4932932602
 31
0.0
 12
-31.25
 22
14.4932932602
 32
4.5
 13
-30.0
 23
14.4932932602
 33
0.0
  0
3DFACE
  5
2FC
100
AcDbEntity
  8
11
100
AcDbFace
  6
CONTINUOUS
 10
-30.0
 20
14.4932932602
 30
0.0
 11
-31.25
 21
14.4932932602
 31
4.5
 12
-30.0
 22
14.4932932602
 32
4.5
 13
-30.0
 23
14.4932932602
 33
0.0
  0
3DFACE
  5
2FD
100
AcDbEntity
  8
12
100
AcDbFace
  6
CONTINUOUS
 10
-31.25
 20
14.4932932602
 30
0.0
 11
-32.840630006
 21
15.1526632542
 31
0.0
 12
-31.25
 22
14.4932932602
 32
4.5
 13
-31.25
 23
14.4932932602
 33
0.0
  0
3DFACE
  5
2FE
100
AcDbEntity
  8
12
100
AcDbFace
  6
CONTINUOUS
 10
-32.840630006
 20
15.1526632542
 30
0.0
 11
-33.5
 21
16.7432932602
 31
0.0
 12
-32.840630006
 22
15.1526632542
 32
4.5
 13
-32.840630006
 23
15.1526632542
 33
0.0
  0
3DFACE
  5
2FF
100
AcDbEntity
  8
12
100
AcDbFace
  6
CONTINUOUS
 10
-32.840630006
 20
15.1526632542
 30
0.0
 11
-32.840630006
 21
15.1526632542
 31
4.5
 12
-31.25
 22
14.4932932602
 32
4.5
 13
-32.840630006
 23
15.1526632542
 33
0.0
  0
3DFACE
  5
300
100
AcDbEntity
  8
12
100
AcDbFace
  6
CONTINUOUS
 10
-33.5
 20
16.7432932602
 30
0.0
 11
-33.5
 21
16.7432932602
 31
4.5
 12
-32.840630006
 22
15.1526632542
 32
4.5
 13
-33.5
 23
16.7432932602
 33
0.0
  0
3DFACE
  5
301
100
AcDbEntity
  8
13
100
AcDbFace
  6
CONTINUOUS
 10
-33.5
 20
16.7432932602
 30
0.0
 11
-33.5
 21
16.9832932602
 31
0.0
 12
-33.5
 22
16.9832932602
 32
4.5
 13
-33.5
 23
16.7432932602
 33
0.0
  0
3DFACE
  5
302
100
AcDbEntity
  8
13
100
AcDbFace
  6
CONTINUOUS
 10
-33.5
 20
16.7432932602
 30
0.0
 11
-33.5
 21
16.9832932602
 31
4.5
 12
-33.5
 22
16.7432932602
 32
4.5
 13
-33.5
 23
16.7432932602
 33
0.0
  0
3DFACE
  5
303
100
AcDbEntity
  8
14
100
AcDbFace
  6
CONTINUOUS
 10
-33.5
 20
16.9832932602
 30
0.0
 11
-33.5
 21
17.2332932602
 31
0.0
 12
-33.5
 22
17.2332932602
 32
4.5
 13
-33.5
 23
16.9832932602
 33
0.0
  0
3DFACE
  5
304
100
AcDbEntity
  8
14
100
AcDbFace
  6
CONTINUOUS
 10
-33.5
 20
16.9832932602
 30
0.0
 11
-33.5
 21
17.2332932602
 31
4.5
 12
-33.5
 22
16.9832932602
 32
4.5
 13
-33.5
 23
16.9832932602
 33
0.0
  0
3DFACE
  5
305
100
AcDbEntity
  8
15
100
AcDbFace
  6
CONTINUOUS
 10
-33.5
 20
17.2332932602
 30
0.0
 11
-32.840630006
 21
18.8239232662
 31
0.0
 12
-33.5
 22
17.2332932602
 32
4.5
 13
-33.5
 23
17.2332932602
 33
0.0
  0
3DFACE
  5
306
100
AcDbEntity
  8
15
100
AcDbFace
  6
CONTINUOUS
 10
-32.840630006
 20
18.8239232662
 30
0.0
 11
-31.25
 21
19.4832932602
 31
0.0
 12
-32.840630006
 22
18.8239232662
 32
4.5
 13
-32.840630006
 23
18.8239232662
 33
0.0
  0
3DFACE
  5
307
100
AcDbEntity
  8
15
100
AcDbFace
  6
CONTINUOUS
 10
-32.840630006
 20
18.8239232662
 30
0.0
 11
-32.840630006
 21
18.8239232662
 31
4.5
 12
-33.5
 22
17.2332932602
 32
4.5
 13
-32.840630006
 23
18.8239232662
 33
0.0
  0
3DFACE
  5
308
100
AcDbEntity
  8
15
100
AcDbFace
  6
CONTINUOUS
 10
-31.25
 20
19.4832932602
 30
0.0
 11
-31.25
 21
19.4832932602
 31
4.5
 12
-32.840630006
 22
18.8239232662
 32
4.5
 13
-31.25
 23
19.4832932602
 33
0.0
  0
3DFACE
  5
309
100
AcDbEntity
  8
16
100
AcDbFace
  6
CONTINUOUS
 10
0.0
 20
12.0
 30
0.0
 11
-4.0
 21
14.4932932602
 31
0.0
 12
0.0
 22
12.0
 32
4.5
 13
0.0
 23
12.0
 33
0.0
  0
3DFACE
  5
30A
100
AcDbEntity
  8
16
100
AcDbFace
  6
CONTINUOUS
 10
0.0
 20
12.0
 30
4.5
 11
-4.0
 21
14.4932932602
 31
0.0
 12
-4.0
 22
14.4932932602
 32
4.5
 13
0.0
 23
12.0
 33
4.5
  0
3DFACE
  5
30B
100
AcDbEntity
  8
17
100
AcDbFace
  6
CONTINUOUS
 10
-4.0
 20
14.4932932602
 30
0.0
 11
-4.0
 21
16.9832932602
 31
0.0
 12
-4.0
 22
16.9832932602
 32
4.5
 13
-4.0
 23
14.4932932602
 33
0.0
  0
3DFACE
  5
30C
100
AcDbEntity
  8
17
100
AcDbFace
  6
CONTINUOUS
 10
-4.0
 20
14.4932932602
 30
0.0
 11
-4.0
 21
16.9832932602
 31
4.5
 12
-4.0
 22
14.4932932602
 32
4.5
 13
-4.0
 23
14.4932932602
 33
0.0
  0
3DFACE
  5
30D
100
AcDbEntity
  8
18
100
AcDbFace
  6
CONTINUOUS
 10
-4.0
 20
16.9832932602
 30
0.0
 11
-4.0
 21
19.4832932602
 31
0.0
 12
-4.0
 22
19.4832932602
 32
4.5
 13
-4.0
 23
16.9832932602
 33
0.0
  0
3DFACE
  5
30E
100
AcDbEntity
  8
18
100
AcDbFace
  6
CONTINUOUS
 10
-4.0
 20
16.9832932602
 30
0.0
 11
-4.0
 21
19.4832932602
 31
4.5
 12
-4.0
 22
16.9832932602
 32
4.5
 13
-4.0
 23
16.9832932602
 33
0.0
  0
3DFACE
  5
30F
100
AcDbEntity
  8
19
100
AcDbFace
  6
CONTINUOUS
 10
-4.0
 20
19.4832932602
 30
0.0
 11
0.0
 21
22.234789913
 31
0.0
 12
-4.0
 22
19.4832932602
 32
4.5
 13
-4.0
 23
19.4832932602
 33
0.0
  0
3DFACE
  5
310
100
AcDbEntity
  8
19
100
AcDbFace
  6
CONTINUOUS
 10
0.0
 20
22.234789913
 30
0.0
 11
0.0
 21
22.234789913
 31
4.5
 12
-4.0
 22
19.4832932602
 32
4.5
 13
0.0
 23
22.234789913
 33
0.0
  0
3DFACE
  5
311
100
AcDbEntity
  8
20
100
AcDbFace
  6
CONTINUOUS
 10
-31.25
 20
19.4832932602
 30
0.0
 11
-9.75
 21
19.4832932602
 31
0.0
 12
-31.25
 22
19.4832932602
 32
4.5
 13
-31.25
 23
19.4832932602
 33
0.0
  0
3DFACE
  5
312
100
AcDbEntity
  8
20
100
AcDbFace
  6
CONTINUOUS
 10
-9.75
 20
19.4832932602
 30
0.0
 11
-9.75
 21
19.4832932602
 31
4.5
 12
-31.25
 22
19.4832932602
 32
4.5
 13
-9.75
 23
19.4832932602
 33
0.0
  0
3DFACE
  5
313
100
AcDbEntity
  8
21
100
AcDbFace
  6
CONTINUOUS
 10
-38.5
 20
20.9832932602
 30
0.0
 11
-39.2326333267
 21
19.2159265869
 31
0.0
 12
-38.5
 22
20.9832932602
 32
4.5
 13
-38.5
 23
20.9832932602
 33
0.0
  0
3DFACE
  5
314
100
AcDbEntity
  8
21
100
AcDbFace
  6
CONTINUOUS
 10
-39.2326333267
 20
19.2159265869
 30
0.0
 11
-41.0
 21
18.4832932602
 31
0.0
 12
-39.2326333267
 22
19.2159265869
 32
4.5
 13
-39.2326333267
 23
19.2159265869
 33
0.0
  0
3DFACE
  5
315
100
AcDbEntity
  8
21
100
AcDbFace
  6
CONTINUOUS
 10
-38.5
 20
20.9832932602
 30
4.5
 11
-39.2326333267
 21
19.2159265869
 31
0.0
 12
-39.2326333267
 22
19.2159265869
 32
4.5
 13
-38.5
 23
20.9832932602
 33
4.5
  0
3DFACE
  5
316
100
AcDbEntity
  8
21
100
AcDbFace
  6
CONTINUOUS
 10
-41.0
 20
18.4832932602
 30
0.0
 11
-42.7673666733
 21
19.2159265869
 31
0.0
 12
-41.0
 22
18.4832932602
 32
4.5
 13
-41.0
 23
18.4832932602
 33
0.0
  0
3DFACE
  5
317
100
AcDbEntity
  8
21
100
AcDbFace
  6
CONTINUOUS
 10
-41.0
 20
18.4832932602
 30
0.0
 11
-41.0
 21
18.4832932602
 31
4.5
 12
-39.2326333267
 22
19.2159265869
 32
4.5
 13
-41.0
 23
18.4832932602
 33
0.0
  0
3DFACE
  5
318
100
AcDbEntity
  8
21
100
AcDbFace
  6
CONTINUOUS
 10
-42.7673666733
 20
19.2159265869
 30
0.0
 11
-43.5
 21
20.9832932602
 31
0.0
 12
-42.7673666733
 22
19.2159265869
 32
4.5
 13
-42.7673666733
 23
19.2159265869
 33
0.0
  0
3DFACE
  5
319
100
AcDbEntity
  8
21
100
AcDbFace
  6
CONTINUOUS
 10
-42.7673666733
 20
19.2159265869
 30
0.0
 11
-42.7673666733
 21
19.2159265869
 31
4.5
 12
-41.0
 22
18.4832932602
 32
4.5
 13
-42.7673666733
 23
19.2159265869
 33
0.0
  0
3DFACE
  5
31A
100
AcDbEntity
  8
21
100
AcDbFace
  6
CONTINUOUS
 10
-43.5
 20
20.9832932602
 30
0.0
 11
-43.5
 21
20.9832932602
 31
4.5
 12
-42.7673666733
 22
19.2159265869
 32
4.5
 13
-43.5
 23
20.9832932602
 33
0.0
  0
3DFACE
  5
31B
100
AcDbEntity
  8
22
100
AcDbFace
  6
CONTINUOUS
 10
-39.2326333267
 20
22.7506599336
 30
0.0
 11
-38.5
 21
20.9832932602
 31
0.0
 12
-39.2326333267
 22
22.7506599336
 32
4.5
 13
-39.2326333267
 23
22.7506599336
 33
0.0
  0
3DFACE
  5
31C
100
AcDbEntity
  8
22
100
AcDbFace
  6
CONTINUOUS
 10
-38.5
 20
20.9832932602
 30
0.0
 11
-38.5
 21
20.9832932602
 31
4.5
 12
-39.2326333267
 22
22.7506599336
 32
4.5
 13
-38.5
 23
20.9832932602
 33
0.0
  0
3DFACE
  5
31D
100
AcDbEntity
  8
22
100
AcDbFace
  6
CONTINUOUS
 10
-43.5
 20
20.9832932602
 30
0.0
 11
-42.7673666733
 21
22.7506599336
 31
0.0
 12
-43.5
 22
20.9832932602
 32
4.5
 13
-43.5
 23
20.9832932602
 33
0.0
  0
3DFACE
  5
31E
100
AcDbEntity
  8
22
100
AcDbFace
  6
CONTINUOUS
 10
-42.7673666733
 20
22.7506599336
 30
0.0
 11
-41.0
 21
23.4832932602
 31
0.0
 12
-42.7673666733
 22
22.7506599336
 32
4.5
 13
-42.7673666733
 23
22.7506599336
 33
0.0
  0
3DFACE
  5
31F
100
AcDbEntity
  8
22
100
AcDbFace
  6
CONTINUOUS
 10
-42.7673666733
 20
22.7506599336
 30
0.0
 11
-42.7673666733
 21
22.7506599336
 31
4.5
 12
-43.5
 22
20.9832932602
 32
4.5
 13
-42.7673666733
 23
22.7506599336
 33
0.0
  0
3DFACE
  5
320
100
AcDbEntity
  8
22
100
AcDbFace
  6
CONTINUOUS
 10
-41.0
 20
23.4832932602
 30
0.0
 11
-39.2326333267
 21
22.7506599336
 31
0.0
 12
-41.0
 22
23.4832932602
 32
4.5
 13
-41.0
 23
23.4832932602
 33
0.0
  0
3DFACE
  5
321
100
AcDbEntity
  8
22
100
AcDbFace
  6
CONTINUOUS
 10
-41.0
 20
23.4832932602
 30
0.0
 11
-41.0
 21
23.4832932602
 31
4.5
 12
-42.7673666733
 22
22.7506599336
 32
4.5
 13
-41.0
 23
23.4832932602
 33
0.0
  0
3DFACE
  5
322
100
AcDbEntity
  8
22
100
AcDbFace
  6
CONTINUOUS
 10
-39.2326333267
 20
22.7506599336
 30
0.0
 11
-39.2326333267
 21
22.7506599336
 31
4.5
 12
-41.0
 22
23.4832932602
 32
4.5
 13
-39.2326333267
 23
22.7506599336
 33
0.0
  0
3DFACE
  5
323
100
AcDbEntity
  8
23
100
AcDbFace
  6
CONTINUOUS
 10
-40.1339894828
 20
26.4146858795
 30
0.0
 11
-43.7209241186
 21
25.7624826966
 31
0.0
 12
-40.1339894828
 22
26.4146858795
 32
4.5
 13
-40.1339894828
 23
26.4146858795
 33
0.0
  0
3DFACE
  5
324
100
AcDbEntity
  8
23
100
AcDbFace
  6
CONTINUOUS
 10
-43.7209241186
 20
25.7624826966
 30
0.0
 11
-46.1112513964
 21
23.0136830297
 31
0.0
 12
-43.7209241186
 22
25.7624826966
 32
4.5
 13
-43.7209241186
 23
25.7624826966
 33
0.0
  0
3DFACE
  5
325
100
AcDbEntity
  8
23
100
AcDbFace
  6
CONTINUOUS
 10
-43.7209241186
 20
25.7624826966
 30
0.0
 11
-43.7209241186
 21
25.7624826966
 31
4.5
 12
-40.1339894828
 22
26.4146858795
 32
4.5
 13
-43.7209241186
 23
25.7624826966
 33
0.0
  0
3DFACE
  5
326
100
AcDbEntity
  8
23
100
AcDbFace
  6
CONTINUOUS
 10
-46.1112513964
 20
23.0136830297
 30
0.0
 11
-46.2574064083
 21
19.3686566724
 31
0.0
 12
-46.1112513964
 22
23.0136830297
 32
4.5
 13
-46.1112513964
 23
23.0136830297
 33
0.0
  0
3DFACE
  5
327
100
AcDbEntity
  8
23
100
AcDbFace
  6
CONTINUOUS
 10
-46.1112513964
 20
23.0136830297
 30
0.0
 11
-46.1112513964
 21
23.0136830297
 31
4.5
 12
-43.7209241186
 22
25.7624826966
 32
4.5
 13
-46.1112513964
 23
23.0136830297
 33
0.0
  0
3DFACE
  5
328
100
AcDbEntity
  8
23
100
AcDbFace
  6
CONTINUOUS
 10
-46.2574064083
 20
19.3686566724
 30
0.0
 11
-44.0948370063
 21
16.4372990201
 31
0.0
 12
-46.2574064083
 22
19.3686566724
 32
4.5
 13
-46.2574064083
 23
19.3686566724
 33
0.0
  0
3DFACE
  5
329
100
AcDbEntity
  8
23
100
AcDbFace
  6
CONTINUOUS
 10
-46.2574064083
 20
19.3686566724
 30
0.0
 11
-46.2574064083
 21
19.3686566724
 31
4.5
 12
-46.1112513964
 22
23.0136830297
 32
4.5
 13
-46.2574064083
 23
19.3686566724
 33
0.0
  0
3DFACE
  5
32A
100
AcDbEntity
  8
23
100
AcDbFace
  6
CONTINUOUS
 10
-44.0948370063
 20
16.4372990201
 30
0.0
 11
-40.5716368105
 21
15.5
 31
0.0
 12
-44.0948370063
 22
16.4372990201
 32
4.5
 13
-44.0948370063
 23
16.4372990201
 33
0.0
  0
3DFACE
  5
32B
100
AcDbEntity
  8
23
100
AcDbFace
  6
CONTINUOUS
 10
-44.0948370063
 20
16.4372990201
 30
0.0
 11
-44.0948370063
 21
16.4372990201
 31
4.5
 12
-46.2574064083
 22
19.3686566724
 32
4.5
 13
-44.0948370063
 23
16.4372990201
 33
0.0
  0
3DFACE
  5
32C
100
AcDbEntity
  8
23
100
AcDbFace
  6
CONTINUOUS
 10
-40.5716368105
 20
15.5
 30
0.0
 11
-40.5716368105
 21
15.5
 31
4.5
 12
-44.0948370063
 22
16.4372990201
 32
4.5
 13
-40.5716368105
 23
15.5
 33
0.0
  0
3DFACE
  5
32D
100
AcDbEntity
  8
24
100
AcDbFace
  6
CONTINUOUS
 10
-40.5716368105
 20
15.5
 30
0.0
 11
-39.0
 21
15.5
 31
0.0
 12
-39.0
 22
15.5
 32
4.5
 13
-40.5716368105
 23
15.5
 33
0.0
  0
3DFACE
  5
32E
100
AcDbEntity
  8
24
100
AcDbFace
  6
CONTINUOUS
 10
-40.5716368105
 20
15.5
 30
0.0
 11
-39.0
 21
15.5
 31
4.5
 12
-40.5716368105
 22
15.5
 32
4.5
 13
-40.5716368105
 23
15.5
 33
0.0
  0
3DFACE
  5
32F
100
AcDbEntity
  8
25
100
AcDbFace
  6
CONTINUOUS
 10
-38.0
 20
14.5
 30
0.0
 11
-38.0
 21
10.5
 31
0.0
 12
-38.0
 22
10.5
 32
4.5
 13
-38.0
 23
14.5
 33
0.0
  0
3DFACE
  5
330
100
AcDbEntity
  8
25
100
AcDbFace
  6
CONTINUOUS
 10
-38.0
 20
14.5
 30
0.0
 11
-38.0
 21
10.5
 31
4.5
 12
-38.0
 22
14.5
 32
4.5
 13
-38.0
 23
14.5
 33
0.0
  0
3DFACE
  5
331
100
AcDbEntity
  8
26
100
AcDbFace
  6
CONTINUOUS
 10
-36.5
 20
9.0
 30
0.0
 11
-28.5
 21
9.0
 31
0.0
 12
-36.5
 22
9.0
 32
4.5
 13
-36.5
 23
9.0
 33
0.0
  0
3DFACE
  5
332
100
AcDbEntity
  8
26
100
AcDbFace
  6
CONTINUOUS
 10
-28.5
 20
9.0
 30
0.0
 11
-28.5
 21
9.0
 31
4.5
 12
-36.5
 22
9.0
 32
4.5
 13
-28.5
 23
9.0
 33
0.0
  0
3DFACE
  5
333
100
AcDbEntity
  8
27
100
AcDbFace
  6
CONTINUOUS
 10
0.0
 20
22.234789913
 30
0.0
 11
0.0
 21
22.734789913
 31
0.0
 12
0.0
 22
22.734789913
 32
4.5
 13
0.0
 23
22.234789913
 33
0.0
  0
3DFACE
  5
334
100
AcDbEntity
  8
27
100
AcDbFace
  6
CONTINUOUS
 10
0.0
 20
22.234789913
 30
0.0
 11
0.0
 21
22.734789913
 31
4.5
 12
0.0
 22
22.234789913
 32
4.5
 13
0.0
 23
22.234789913
 33
0.0
  0
3DFACE
  5
335
100
AcDbEntity
  8
28
100
AcDbFace
  6
CONTINUOUS
 10
0.0
 20
22.734789913
 30
0.0
 11
0.0
 21
34.734789913
 31
0.0
 12
0.0
 22
22.734789913
 32
4.5
 13
0.0
 23
22.734789913
 33
0.0
  0
3DFACE
  5
336
100
AcDbEntity
  8
28
100
AcDbFace
  6
CONTINUOUS
 10
0.0
 20
34.734789913
 30
0.0
 11
0.0
 21
34.734789913
 31
4.5
 12
0.0
 22
22.734789913
 32
4.5
 13
0.0
 23
34.734789913
 33
0.0
  0
3DFACE
  5
337
100
AcDbEntity
  8
29
100
AcDbFace
  6
CONTINUOUS
 10
0.0
 20
34.734789913
 30
0.0
 11
-7.5
 21
34.734789913
 31
0.0
 12
-3.5
 22
34.734789913
 32
1.0004305667
 13
0.0
 23
34.734789913
 33
0.0
  0
3DFACE
  5
338
100
AcDbEntity
  8
29
100
AcDbFace
  6
CONTINUOUS
 10
0.0
 20
34.734789913
 30
4.5
 11
0.0
 21
34.734789913
 31
0.0
 12
-2.6156957513
 22
34.734789913
 32
1.3668793278
 13
0.0
 23
34.734789913
 33
4.5
  0
3DFACE
  5
339
100
AcDbEntity
  8
29
100
AcDbFace
  6
CONTINUOUS
 10
-2.6156957513
 20
34.734789913
 30
1.3668793278
 11
0.0
 21
34.734789913
 31
0.0
 12
-3.5
 22
34.734789913
 32
1.0004305667
 13
-2.6156957513
 23
34.734789913
 33
1.3668793278
  0
3DFACE
  5
33A
100
AcDbEntity
  8
29
100
AcDbFace
  6
CONTINUOUS
 10
-7.5
 20
34.734789913
 30
0.0
 11
-7.5
 21
34.734789913
 31
4.5
 12
-4.3843042487
 22
34.734789913
 32
3.1331206722
 13
-7.5
 23
34.734789913
 33
0.0
  0
3DFACE
  5
33B
100
AcDbEntity
  8
29
100
AcDbFace
  6
CONTINUOUS
 10
-4.75
 20
34.734789913
 30
2.25
 11
-7.5
 21
34.734789913
 31
0.0
 12
-4.3843042487
 22
34.734789913
 32
3.1331206722
 13
-4.75
 23
34.734789913
 33
2.25
  0
3DFACE
  5
33C
100
AcDbEntity
  8
29
100
AcDbFace
  6
CONTINUOUS
 10
-7.5
 20
34.734789913
 30
0.0
 11
-4.75
 21
34.734789913
 31
2.25
 12
-4.3843042487
 22
34.734789913
 32
1.3668793278
 13
-7.5
 23
34.734789913
 33
0.0
  0
3DFACE
  5
33D
100
AcDbEntity
  8
29
100
AcDbFace
  6
CONTINUOUS
 10
-3.5
 20
34.734789913
 30
1.0004305667
 11
-7.5
 21
34.734789913
 31
0.0
 12
-4.3843042487
 22
34.734789913
 32
1.3668793278
 13
-3.5
 23
34.734789913
 33
1.0004305667
  0
3DFACE
  5
33E
100
AcDbEntity
  8
29
100
AcDbFace
  6
CONTINUOUS
 10
-7.5
 20
34.734789913
 30
4.5
 11
0.0
 21
34.734789913
 31
4.5
 12
-3.5
 22
34.734789913
 32
3.4995694333
 13
-7.5
 23
34.734789913
 33
4.5
  0
3DFACE
  5
33F
100
AcDbEntity
  8
29
100
AcDbFace
  6
CONTINUOUS
 10
-4.3843042487
 20
34.734789913
 30
3.1331206722
 11
-7.5
 21
34.734789913
 31
4.5
 12
-3.5
 22
34.734789913
 32
3.4995694333
 13
-4.3843042487
 23
34.734789913
 33
3.1331206722
  0
3DFACE
  5
340
100
AcDbEntity
  8
29
100
AcDbFace
  6
CONTINUOUS
 10
-3.5
 20
34.734789913
 30
3.4995694333
 11
0.0
 21
34.734789913
 31
4.5
 12
-2.6156957513
 22
34.734789913
 32
3.1331206722
 13
-3.5
 23
34.734789913
 33
3.4995694333
  0
3DFACE
  5
341
100
AcDbEntity
  8
29
100
AcDbFace
  6
CONTINUOUS
 10
-2.6156957513
 20
34.734789913
 30
3.1331206722
 11
0.0
 21
34.734789913
 31
4.5
 12
-2.25
 22
34.734789913
 32
2.25
 13
-2.6156957513
 23
34.734789913
 33
3.1331206722
  0
3DFACE
  5
342
100
AcDbEntity
  8
29
100
AcDbFace
  6
CONTINUOUS
 10
-2.25
 20
34.734789913
 30
2.25
 11
0.0
 21
34.734789913
 31
4.5
 12
-2.6156957513
 22
34.734789913
 32
1.3668793278
 13
-2.25
 23
34.734789913
 33
2.25
  0
3DFACE
  5
343
100
AcDbEntity
  8
30
100
AcDbFace
  6
CONTINUOUS
 10
-7.5
 20
34.734789913
 30
0.0
 11
-7.5
 21
23.234789913
 31
0.0
 12
-7.5
 22
34.734789913
 32
4.5
 13
-7.5
 23
34.734789913
 33
0.0
  0
3DFACE
  5
344
100
AcDbEntity
  8
30
100
AcDbFace
  6
CONTINUOUS
 10
-7.5
 20
23.234789913
 30
0.0
 11
-7.5
 21
23.234789913
 31
4.5
 12
-7.5
 22
34.734789913
 32
4.5
 13
-7.5
 23
23.234789913
 33
0.0
  0
3DFACE
  5
345
100
AcDbEntity
  8
31
100
AcDbFace
  6
CONTINUOUS
 10
-8.5
 20
22.234789913
 30
0.0
 11
-18.5
 21
22.234789913
 31
0.0
 12
-8.5
 22
22.234789913
 32
4.5
 13
-8.5
 23
22.234789913
 33
0.0
  0
3DFACE
  5
346
100
AcDbEntity
  8
31
100
AcDbFace
  6
CONTINUOUS
 10
-18.5
 20
22.234789913
 30
0.0
 11
-18.5
 21
22.234789913
 31
4.5
 12
-8.5
 22
22.234789913
 32
4.5
 13
-18.5
 23
22.234789913
 33
0.0
  0
3DFACE
  5
347
100
AcDbEntity
  8
32
100
AcDbFace
  6
CONTINUOUS
 10
-19.5
 20
23.234789913
 30
0.0
 11
-19.5
 21
34.734789913
 31
0.0
 12
-19.5
 22
23.234789913
 32
4.5
 13
-19.5
 23
23.234789913
 33
0.0
  0
3DFACE
  5
348
100
AcDbEntity
  8
32
100
AcDbFace
  6
CONTINUOUS
 10
-19.5
 20
34.734789913
 30
0.0
 11
-19.5
 21
34.734789913
 31
4.5
 12
-19.5
 22
23.234789913
 32
4.5
 13
-19.5
 23
34.734789913
 33
0.0
  0
3DFACE
  5
349
100
AcDbEntity
  8
33
100
AcDbFace
  6
CONTINUOUS
 10
-19.5
 20
34.734789913
 30
0.0
 11
-27.0
 21
34.734789913
 31
0.0
 12
-23.5
 22
34.734789913
 32
1.0004305667
 13
-19.5
 23
34.734789913
 33
0.0
  0
3DFACE
  5
34A
100
AcDbEntity
  8
33
100
AcDbFace
  6
CONTINUOUS
 10
-19.5
 20
34.734789913
 30
4.5
 11
-19.5
 21
34.734789913
 31
0.0
 12
-22.6156957513
 22
34.734789913
 32
1.3668793278
 13
-19.5
 23
34.734789913
 33
4.5
  0
3DFACE
  5
34B
100
AcDbEntity
  8
33
100
AcDbFace
  6
CONTINUOUS
 10
-22.6156957513
 20
34.734789913
 30
1.3668793278
 11
-19.5
 21
34.734789913
 31
0.0
 12
-23.5
 22
34.734789913
 32
1.0004305667
 13
-22.6156957513
 23
34.734789913
 33
1.3668793278
  0
3DFACE
  5
34C
100
AcDbEntity
  8
33
100
AcDbFace
  6
CONTINUOUS
 10
-27.0
 20
34.734789913
 30
0.0
 11
-27.0
 21
34.734789913
 31
4.5
 12
-24.3843042487
 22
34.734789913
 32
3.1331206722
 13
-27.0
 23
34.734789913
 33
0.0
  0
3DFACE
  5
34D
100
AcDbEntity
  8
33
100
AcDbFace
  6
CONTINUOUS
 10
-23.5
 20
34.734789913
 30
1.0004305667
 11
-27.0
 21
34.734789913
 31
0.0
 12
-24.3843042487
 22
34.734789913
 32
1.3668793278
 13
-23.5
 23
34.734789913
 33
1.0004305667
  0
3DFACE
  5
34E
100
AcDbEntity
  8
33
100
AcDbFace
  6
CONTINUOUS
 10
-24.3843042487
 20
34.734789913
 30
1.3668793278
 11
-27.0
 21
34.734789913
 31
0.0
 12
-24.75
 22
34.734789913
 32
2.25
 13
-24.3843042487
 23
34.734789913
 33
1.3668793278
  0
3DFACE
  5
34F
100
AcDbEntity
  8
33
100
AcDbFace
  6
CONTINUOUS
 10
-24.75
 20
34.734789913
 30
2.25
 11
-27.0
 21
34.734789913
 31
0.0
 12
-24.3843042487
 22
34.734789913
 32
3.1331206722
 13
-24.75
 23
34.734789913
 33
2.25
  0
3DFACE
  5
350
100
AcDbEntity
  8
33
100
AcDbFace
  6
CONTINUOUS
 10
-27.0
 20
34.734789913
 30
4.5
 11
-19.5
 21
34.734789913
 31
4.5
 12
-23.5
 22
34.734789913
 32
3.4995694333
 13
-27.0
 23
34.734789913
 33
4.5
  0
3DFACE
  5
351
100
AcDbEntity
  8
33
100
AcDbFace
  6
CONTINUOUS
 10
-24.3843042487
 20
34.734789913
 30
3.1331206722
 11
-27.0
 21
34.734789913
 31
4.5
 12
-23.5
 22
34.734789913
 32
3.4995694333
 13
-24.3843042487
 23
34.734789913
 33
3.1331206722
  0
3DFACE
  5
352
100
AcDbEntity
  8
33
100
AcDbFace
  6
CONTINUOUS
 10
-22.25
 20
34.734789913
 30
2.25
 11
-19.5
 21
34.734789913
 31
4.5
 12
-22.6156957513
 22
34.734789913
 32
1.3668793278
 13
-22.25
 23
34.734789913
 33
2.25
  0
3DFACE
  5
353
100
AcDbEntity
  8
33
100
AcDbFace
  6
CONTINUOUS
 10
-19.5
 20
34.734789913
 30
4.5
 11
-22.25
 21
34.734789913
 31
2.25
 12
-22.6156957513
 22
34.734789913
 32
3.1331206722
 13
-19.5
 23
34.734789913
 33
4.5
  0
3DFACE
  5
354
100
AcDbEntity
  8
33
100
AcDbFace
  6
CONTINUOUS
 10
-23.5
 20
34.734789913
 30
3.4995694333
 11
-19.5
 21
34.734789913
 31
4.5
 12
-22.6156957513
 22
34.734789913
 32
3.1331206722
 13
-23.5
 23
34.734789913
 33
3.4995694333
  0
3DFACE
  5
355
100
AcDbEntity
  8
34
100
AcDbFace
  6
CONTINUOUS
 10
-27.0
 20
34.734789913
 30
0.0
 11
-27.0
 21
23.88450394
 31
0.0
 12
-27.0
 22
34.734789913
 32
4.5
 13
-27.0
 23
34.734789913
 33
0.0
  0
3DFACE
  5
356
100
AcDbEntity
  8
34
100
AcDbFace
  6
CONTINUOUS
 10
-27.0
 20
23.88450394
 30
0.0
 11
-27.0
 21
23.88450394
 31
4.5
 12
-27.0
 22
34.734789913
 32
4.5
 13
-27.0
 23
23.88450394
 33
0.0
  0
3DFACE
  5
357
100
AcDbEntity
  8
35
100
AcDbFace
  6
CONTINUOUS
 10
-28.5720239225
 20
22.7350869828
 30
0.0
 11
-40.1339894828
 21
26.4146858795
 31
0.0
 12
-28.5720239225
 22
22.7350869828
 32
4.5
 13
-28.5720239225
 23
22.7350869828
 33
0.0
  0
3DFACE
  5
358
100
AcDbEntity
  8
35
100
AcDbFace
  6
CONTINUOUS
 10
-40.1339894828
 20
26.4146858795
 30
0.0
 11
-40.1339894828
 21
26.4146858795
 31
4.5
 12
-28.5720239225
 22
22.7350869828
 32
4.5
 13
-40.1339894828
 23
26.4146858795
 33
0.0
  0
3DFACE
  5
359
100
AcDbEntity
  8
36
100
AcDbFace
  6
CONTINUOUS
 10
-28.5
 20
9.0
 30
0.0
 11
-28.0021034741
 21
9.0
 31
0.0
 12
-28.0021034741
 22
9.0
 32
4.5
 13
-28.5
 23
9.0
 33
0.0
  0
3DFACE
  5
35A
100
AcDbEntity
  8
36
100
AcDbFace
  6
CONTINUOUS
 10
-28.5
 20
9.0
 30
0.0
 11
-28.0021034741
 21
9.0
 31
4.5
 12
-28.5
 22
9.0
 32
4.5
 13
-28.5
 23
9.0
 33
0.0
  0
3DFACE
  5
35B
100
AcDbEntity
  8
37
100
AcDbFace
  6
CONTINUOUS
 10
-27.0
 20
7.9978965259
 30
0.0
 11
-27.0
 21
0.0
 31
0.0
 12
-27.0
 22
7.9978965259
 32
4.5
 13
-27.0
 23
7.9978965259
 33
0.0
  0
3DFACE
  5
35C
100
AcDbEntity
  8
37
100
AcDbFace
  6
CONTINUOUS
 10
-27.0
 20
0.0
 30
0.0
 11
-27.0
 21
0.0
 31
4.5
 12
-27.0
 22
7.9978965259
 32
4.5
 13
-27.0
 23
0.0
 33
0.0
  0
3DFACE
  5
35D
100
AcDbEntity
  8
38
100
AcDbFace
  6
CONTINUOUS
 10
-19.5
 20
0.0
 30
0.0
 11
-19.5
 21
8.0
 31
0.0
 12
-19.5
 22
0.0
 32
4.5
 13
-19.5
 23
0.0
 33
0.0
  0
3DFACE
  5
35E
100
AcDbEntity
  8
38
100
AcDbFace
  6
CONTINUOUS
 10
-19.5
 20
8.0
 30
0.0
 11
-19.5
 21
8.0
 31
4.5
 12
-19.5
 22
0.0
 32
4.5
 13
-19.5
 23
8.0
 33
0.0
  0
3DFACE
  5
35F
100
AcDbEntity
  8
39
100
AcDbFace
  6
CONTINUOUS
 10
-18.5
 20
9.0
 30
0.0
 11
-8.5
 21
9.0
 31
0.0
 12
-18.5
 22
9.0
 32
4.5
 13
-18.5
 23
9.0
 33
0.0
  0
3DFACE
  5
360
100
AcDbEntity
  8
39
100
AcDbFace
  6
CONTINUOUS
 10
-8.5
 20
9.0
 30
0.0
 11
-8.5
 21
9.0
 31
4.5
 12
-18.5
 22
9.0
 32
4.5
 13
-8.5
 23
9.0
 33
0.0
  0
3DFACE
  5
361
100
AcDbEntity
  8
40
100
AcDbFace
  6
CONTINUOUS
 10
-7.5
 20
8.0
 30
0.0
 11
-7.5
 21
0.0
 31
0.0
 12
-7.5
 22
8.0
 32
4.5
 13
-7.5
 23
8.0
 33
0.0
  0
3DFACE
  5
362
100
AcDbEntity
  8
40
100
AcDbFace
  6
CONTINUOUS
 10
-7.5
 20
0.0
 30
0.0
 11
-7.5
 21
0.0
 31
4.5
 12
-7.5
 22
8.0
 32
4.5
 13
-7.5
 23
0.0
 33
0.0
  0
3DFACE
  5
363
100
AcDbEntity
  8
41
100
AcDbFace
  6
CONTINUOUS
 10
-7.5
 20
23.234789913
 30
0.0
 11
-7.7928932188
 21
22.5276831319
 31
0.0
 12
-7.5
 22
23.234789913
 32
4.5
 13
-7.5
 23
23.234789913
 33
0.0
  0
3DFACE
  5
364
100
AcDbEntity
  8
41
100
AcDbFace
  6
CONTINUOUS
 10
-7.7928932188
 20
22.5276831319
 30
0.0
 11
-8.5
 21
22.234789913
 31
0.0
 12
-7.7928932188
 22
22.5276831319
 32
4.5
 13
-7.7928932188
 23
22.5276831319
 33
0.0
  0
3DFACE
  5
365
100
AcDbEntity
  8
41
100
AcDbFace
  6
CONTINUOUS
 10
-7.7928932188
 20
22.5276831319
 30
0.0
 11
-7.7928932188
 21
22.5276831319
 31
4.5
 12
-7.5
 22
23.234789913
 32
4.5
 13
-7.7928932188
 23
22.5276831319
 33
0.0
  0
3DFACE
  5
366
100
AcDbEntity
  8
41
100
AcDbFace
  6
CONTINUOUS
 10
-8.5
 20
22.234789913
 30
0.0
 11
-8.5
 21
22.234789913
 31
4.5
 12
-7.7928932188
 22
22.5276831319
 32
4.5
 13
-8.5
 23
22.234789913
 33
0.0
  0
3DFACE
  5
367
100
AcDbEntity
  8
42
100
AcDbFace
  6
CONTINUOUS
 10
-18.5
 20
22.234789913
 30
0.0
 11
-19.2071067812
 21
22.5276831319
 31
0.0
 12
-18.5
 22
22.234789913
 32
4.5
 13
-18.5
 23
22.234789913
 33
0.0
  0
3DFACE
  5
368
100
AcDbEntity
  8
42
100
AcDbFace
  6
CONTINUOUS
 10
-19.2071067812
 20
22.5276831319
 30
0.0
 11
-19.5
 21
23.234789913
 31
0.0
 12
-19.2071067812
 22
22.5276831319
 32
4.5
 13
-19.2071067812
 23
22.5276831319
 33
0.0
  0
3DFACE
  5
369
100
AcDbEntity
  8
42
100
AcDbFace
  6
CONTINUOUS
 10
-19.2071067812
 20
22.5276831319
 30
0.0
 11
-19.2071067812
 21
22.5276831319
 31
4.5
 12
-18.5
 22
22.234789913
 32
4.5
 13
-19.2071067812
 23
22.5276831319
 33
0.0
  0
3DFACE
  5
36A
100
AcDbEntity
  8
42
100
AcDbFace
  6
CONTINUOUS
 10
-19.5
 20
23.234789913
 30
0.0
 11
-19.5
 21
23.234789913
 31
4.5
 12
-19.2071067812
 22
22.5276831319
 32
4.5
 13
-19.5
 23
23.234789913
 33
0.0
  0
3DFACE
  5
36B
100
AcDbEntity
  8
43
100
AcDbFace
  6
CONTINUOUS
 10
-27.0
 20
23.88450394
 30
0.0
 11
-27.4946052568
 21
22.9112470429
 31
0.0
 12
-27.0
 22
23.88450394
 32
4.5
 13
-27.0
 23
23.88450394
 33
0.0
  0
3DFACE
  5
36C
100
AcDbEntity
  8
43
100
AcDbFace
  6
CONTINUOUS
 10
-27.4946052568
 20
22.9112470429
 30
0.0
 11
-28.5720239225
 21
22.7350869828
 31
0.0
 12
-27.4946052568
 22
22.9112470429
 32
4.5
 13
-27.4946052568
 23
22.9112470429
 33
0.0
  0
3DFACE
  5
36D
100
AcDbEntity
  8
43
100
AcDbFace
  6
CONTINUOUS
 10
-27.4946052568
 20
22.9112470429
 30
0.0
 11
-27.4946052568
 21
22.9112470429
 31
4.5
 12
-27.0
 22
23.88450394
 32
4.5
 13
-27.4946052568
 23
22.9112470429
 33
0.0
  0
3DFACE
  5
36E
100
AcDbEntity
  8
43
100
AcDbFace
  6
CONTINUOUS
 10
-28.5720239225
 20
22.7350869828
 30
0.0
 11
-28.5720239225
 21
22.7350869828
 31
4.5
 12
-27.4946052568
 22
22.9112470429
 32
4.5
 13
-28.5720239225
 23
22.7350869828
 33
0.0
  0
3DFACE
  5
36F
100
AcDbEntity
  8
44
100
AcDbFace
  6
CONTINUOUS
 10
-39.0
 20
15.5
 30
0.0
 11
-38.2928932188
 21
15.2071067812
 31
0.0
 12
-39.0
 22
15.5
 32
4.5
 13
-39.0
 23
15.5
 33
0.0
  0
3DFACE
  5
370
100
AcDbEntity
  8
44
100
AcDbFace
  6
CONTINUOUS
 10
-38.2928932188
 20
15.2071067812
 30
0.0
 11
-38.0
 21
14.5
 31
0.0
 12
-38.2928932188
 22
15.2071067812
 32
4.5
 13
-38.2928932188
 23
15.2071067812
 33
0.0
  0
3DFACE
  5
371
100
AcDbEntity
  8
44
100
AcDbFace
  6
CONTINUOUS
 10
-38.2928932188
 20
15.2071067812
 30
0.0
 11
-38.2928932188
 21
15.2071067812
 31
4.5
 12
-39.0
 22
15.5
 32
4.5
 13
-38.2928932188
 23
15.2071067812
 33
0.0
  0
3DFACE
  5
372
100
AcDbEntity
  8
44
100
AcDbFace
  6
CONTINUOUS
 10
-38.0
 20
14.5
 30
0.0
 11
-38.0
 21
14.5
 31
4.5
 12
-38.2928932188
 22
15.2071067812
 32
4.5
 13
-38.0
 23
14.5
 33
0.0
  0
3DFACE
  5
373
100
AcDbEntity
  8
45
100
AcDbFace
  6
CONTINUOUS
 10
-38.0
 20
10.5
 30
0.0
 11
-37.5606601718
 21
9.4393398282
 31
0.0
 12
-38.0
 22
10.5
 32
4.5
 13
-38.0
 23
10.5
 33
0.0
  0
3DFACE
  5
374
100
AcDbEntity
  8
45
100
AcDbFace
  6
CONTINUOUS
 10
-37.5606601718
 20
9.4393398282
 30
0.0
 11
-36.5
 21
9.0
 31
0.0
 12
-37.5606601718
 22
9.4393398282
 32
4.5
 13
-37.5606601718
 23
9.4393398282
 33
0.0
  0
3DFACE
  5
375
100
AcDbEntity
  8
45
100
AcDbFace
  6
CONTINUOUS
 10
-37.5606601718
 20
9.4393398282
 30
0.0
 11
-37.5606601718
 21
9.4393398282
 31
4.5
 12
-38.0
 22
10.5
 32
4.5
 13
-37.5606601718
 23
9.4393398282
 33
0.0
  0
3DFACE
  5
376
100
AcDbEntity
  8
45
100
AcDbFace
  6
CONTINUOUS
 10
-36.5
 20
9.0
 30
0.0
 11
-36.5
 21
9.0
 31
4.5
 12
-37.5606601718
 22
9.4393398282
 32
4.5
 13
-36.5
 23
9.0
 33
0.0
  0
3DFACE
  5
377
100
AcDbEntity
  8
46
100
AcDbFace
  6
CONTINUOUS
 10
-28.0021034741
 20
9.0
 30
0.0
 11
-27.2935093121
 21
8.7064906879
 31
0.0
 12
-28.0021034741
 22
9.0
 32
4.5
 13
-28.0021034741
 23
9.0
 33
0.0
  0
3DFACE
  5
378
100
AcDbEntity
  8
46
100
AcDbFace
  6
CONTINUOUS
 10
-27.2935093121
 20
8.7064906879
 30
0.0
 11
-27.0
 21
7.9978965259
 31
0.0
 12
-27.2935093121
 22
8.7064906879
 32
4.5
 13
-27.2935093121
 23
8.7064906879
 33
0.0
  0
3DFACE
  5
379
100
AcDbEntity
  8
46
100
AcDbFace
  6
CONTINUOUS
 10
-27.2935093121
 20
8.7064906879
 30
0.0
 11
-27.2935093121
 21
8.7064906879
 31
4.5
 12
-28.0021034741
 22
9.0
 32
4.5
 13
-27.2935093121
 23
8.7064906879
 33
0.0
  0
3DFACE
  5
37A
100
AcDbEntity
  8
46
100
AcDbFace
  6
CONTINUOUS
 10
-27.0
 20
7.9978965259
 30
0.0
 11
-27.0
 21
7.9978965259
 31
4.5
 12
-27.2935093121
 22
8.7064906879
 32
4.5
 13
-27.0
 23
7.9978965259
 33
0.0
  0
3DFACE
  5
37B
100
AcDbEntity
  8
47
100
AcDbFace
  6
CONTINUOUS
 10
-19.5
 20
8.0
 30
0.0
 11
-19.2071067812
 21
8.7071067812
 31
0.0
 12
-19.5
 22
8.0
 32
4.5
 13
-19.5
 23
8.0
 33
0.0
  0
3DFACE
  5
37C
100
AcDbEntity
  8
47
100
AcDbFace
  6
CONTINUOUS
 10
-19.2071067812
 20
8.7071067812
 30
0.0
 11
-18.5
 21
9.0
 31
0.0
 12
-19.2071067812
 22
8.7071067812
 32
4.5
 13
-19.2071067812
 23
8.7071067812
 33
0.0
  0
3DFACE
  5
37D
100
AcDbEntity
  8
47
100
AcDbFace
  6
CONTINUOUS
 10
-19.2071067812
 20
8.7071067812
 30
0.0
 11
-19.2071067812
 21
8.7071067812
 31
4.5
 12
-19.5
 22
8.0
 32
4.5
 13
-19.2071067812
 23
8.7071067812
 33
0.0
  0
3DFACE
  5
37E
100
AcDbEntity
  8
47
100
AcDbFace
  6
CONTINUOUS
 10
-18.5
 20
9.0
 30
0.0
 11
-18.5
 21
9.0
 31
4.5
 12
-19.2071067812
 22
8.7071067812
 32
4.5
 13
-18.5
 23
9.0
 33
0.0
  0
3DFACE
  5
37F
100
AcDbEntity
  8
48
100
AcDbFace
  6
CONTINUOUS
 10
-8.5
 20
9.0
 30
0.0
 11
-7.7928932188
 21
8.7071067812
 31
0.0
 12
-8.5
 22
9.0
 32
4.5
 13
-8.5
 23
9.0
 33
0.0
  0
3DFACE
  5
380
100
AcDbEntity
  8
48
100
AcDbFace
  6
CONTINUOUS
 10
-7.7928932188
 20
8.7071067812
 30
0.0
 11
-7.5
 21
8.0
 31
0.0
 12
-7.7928932188
 22
8.7071067812
 32
4.5
 13
-7.7928932188
 23
8.7071067812
 33
0.0
  0
3DFACE
  5
381
100
AcDbEntity
  8
48
100
AcDbFace
  6
CONTINUOUS
 10
-7.7928932188
 20
8.7071067812
 30
0.0
 11
-7.7928932188
 21
8.7071067812
 31
4.5
 12
-8.5
 22
9.0
 32
4.5
 13
-7.7928932188
 23
8.7071067812
 33
0.0
  0
3DFACE
  5
382
100
AcDbEntity
  8
48
100
AcDbFace
  6
CONTINUOUS
 10
-7.5
 20
8.0
 30
0.0
 11
-7.5
 21
8.0
 31
4.5
 12
-7.7928932188
 22
8.7071067812
 32
4.5
 13
-7.5
 23
8.0
 33
0.0
  0
3DFACE
  5
383
100
AcDbEntity
  8
49
100
AcDbFace
  6
CONTINUOUS
 10
-24.75
 20
24.734789913
 30
2.25
 11
-23.5
 21
23.9837141393
 31
2.25
 12
-24.3838834765
 22
24.734789913
 32
1.3661165235
 13
-24.75
 23
24.734789913
 33
2.25
  0
3DFACE
  5
384
100
AcDbEntity
  8
49
100
AcDbFace
  6
CONTINUOUS
 10
-24.3838834765
 20
24.734789913
 30
1.3661165235
 11
-23.5
 21
23.9837141393
 31
2.25
 12
-23.5
 22
24.734789913
 32
1.0
 13
-24.3838834765
 23
24.734789913
 33
1.3661165235
  0
3DFACE
  5
385
100
AcDbEntity
  8
49
100
AcDbFace
  6
CONTINUOUS
 10
-23.5
 20
24.734789913
 30
1.0
 11
-23.5
 21
23.9837141393
 31
2.25
 12
-22.6161165235
 22
24.734789913
 32
1.3661165235
 13
-23.5
 23
24.734789913
 33
1.0
  0
3DFACE
  5
386
100
AcDbEntity
  8
49
100
AcDbFace
  6
CONTINUOUS
 10
-22.6161165235
 20
24.734789913
 30
1.3661165235
 11
-23.5
 21
23.9837141393
 31
2.25
 12
-22.25
 22
24.734789913
 32
2.25
 13
-22.6161165235
 23
24.734789913
 33
1.3661165235
  0
3DFACE
  5
387
100
AcDbEntity
  8
50
100
AcDbFace
  6
CONTINUOUS
 10
-22.25
 20
34.734789913
 30
2.25
 11
-22.6156957513
 21
34.734789913
 31
1.3668793278
 12
-22.25
 22
24.734789913
 32
2.25
 13
-22.25
 23
34.734789913
 33
2.25
  0
3DFACE
  5
388
100
AcDbEntity
  8
50
100
AcDbFace
  6
CONTINUOUS
 10
-22.6156957513
 20
34.734789913
 30
1.3668793278
 11
-23.5
 21
34.734789913
 31
1.0004305667
 12
-22.6161165235
 22
24.734789913
 32
1.3661165235
 13
-22.6156957513
 23
34.734789913
 33
1.3668793278
  0
3DFACE
  5
389
100
AcDbEntity
  8
50
100
AcDbFace
  6
CONTINUOUS
 10
-22.6156957513
 20
34.734789913
 30
1.3668793278
 11
-22.6161165235
 21
24.734789913
 31
1.3661165235
 12
-22.25
 22
24.734789913
 32
2.25
 13
-22.6156957513
 23
34.734789913
 33
1.3668793278
  0
3DFACE
  5
38A
100
AcDbEntity
  8
50
100
AcDbFace
  6
CONTINUOUS
 10
-23.5
 20
34.734789913
 30
1.0004305667
 11
-24.3843042487
 21
34.734789913
 31
1.3668793278
 12
-23.5
 22
24.734789913
 32
1.0
 13
-23.5
 23
34.734789913
 33
1.0004305667
  0
3DFACE
  5
38B
100
AcDbEntity
  8
50
100
AcDbFace
  6
CONTINUOUS
 10
-23.5
 20
34.734789913
 30
1.0004305667
 11
-23.5
 21
24.734789913
 31
1.0
 12
-22.6161165235
 22
24.734789913
 32
1.3661165235
 13
-23.5
 23
34.734789913
 33
1.0004305667
  0
3DFACE
  5
38C
100
AcDbEntity
  8
50
100
AcDbFace
  6
CONTINUOUS
 10
-24.3843042487
 20
34.734789913
 30
1.3668793278
 11
-24.75
 21
34.734789913
 31
2.25
 12
-24.3838834765
 22
24.734789913
 32
1.3661165235
 13
-24.3843042487
 23
34.734789913
 33
1.3668793278
  0
3DFACE
  5
38D
100
AcDbEntity
  8
50
100
AcDbFace
  6
CONTINUOUS
 10
-24.3843042487
 20
34.734789913
 30
1.3668793278
 11
-24.3838834765
 21
24.734789913
 31
1.3661165235
 12
-23.5
 22
24.734789913
 32
1.0
 13
-24.3843042487
 23
34.734789913
 33
1.3668793278
  0
3DFACE
  5
38E
100
AcDbEntity
  8
50
100
AcDbFace
  6
CONTINUOUS
 10
-24.75
 20
34.734789913
 30
2.25
 11
-24.75
 21
24.734789913
 31
2.25
 12
-24.3838834765
 22
24.734789913
 32
1.3661165235
 13
-24.75
 23
34.734789913
 33
2.25
  0
3DFACE
  5
38F
100
AcDbEntity
  8
51
100
AcDbFace
  6
CONTINUOUS
 10
-23.5
 20
23.9837141393
 30
2.25
 11
-24.75
 21
24.734789913
 31
2.25
 12
-24.3838834765
 22
24.734789913
 32
3.1338834765
 13
-23.5
 23
23.9837141393
 33
2.25
  0
3DFACE
  5
390
100
AcDbEntity
  8
51
100
AcDbFace
  6
CONTINUOUS
 10
-22.25
 20
24.734789913
 30
2.25
 11
-23.5
 21
23.9837141393
 31
2.25
 12
-22.6161165235
 22
24.734789913
 32
3.1338834765
 13
-22.25
 23
24.734789913
 33
2.25
  0
3DFACE
  5
391
100
AcDbEntity
  8
51
100
AcDbFace
  6
CONTINUOUS
 10
-22.6161165235
 20
24.734789913
 30
3.1338834765
 11
-23.5
 21
23.9837141393
 31
2.25
 12
-23.5
 22
24.734789913
 32
3.5
 13
-22.6161165235
 23
24.734789913
 33
3.1338834765
  0
3DFACE
  5
392
100
AcDbEntity
  8
51
100
AcDbFace
  6
CONTINUOUS
 10
-23.5
 20
24.734789913
 30
3.5
 11
-23.5
 21
23.9837141393
 31
2.25
 12
-24.3838834765
 22
24.734789913
 32
3.1338834765
 13
-23.5
 23
24.734789913
 33
3.5
  0
3DFACE
  5
393
100
AcDbEntity
  8
52
100
AcDbFace
  6
CONTINUOUS
 10
-22.6156957513
 20
34.734789913
 30
3.1331206722
 11
-22.25
 21
34.734789913
 31
2.25
 12
-22.6161165235
 22
24.734789913
 32
3.1338834765
 13
-22.6156957513
 23
34.734789913
 33
3.1331206722
  0
3DFACE
  5
394
100
AcDbEntity
  8
52
100
AcDbFace
  6
CONTINUOUS
 10
-22.25
 20
34.734789913
 30
2.25
 11
-22.25
 21
24.734789913
 31
2.25
 12
-22.6161165235
 22
24.734789913
 32
3.1338834765
 13
-22.25
 23
34.734789913
 33
2.25
  0
3DFACE
  5
395
100
AcDbEntity
  8
52
100
AcDbFace
  6
CONTINUOUS
 10
-24.75
 20
34.734789913
 30
2.25
 11
-24.3843042487
 21
34.734789913
 31
3.1331206722
 12
-24.75
 22
24.734789913
 32
2.25
 13
-24.75
 23
34.734789913
 33
2.25
  0
3DFACE
  5
396
100
AcDbEntity
  8
52
100
AcDbFace
  6
CONTINUOUS
 10
-24.3843042487
 20
34.734789913
 30
3.1331206722
 11
-23.5
 21
34.734789913
 31
3.4995694333
 12
-24.3838834765
 22
24.734789913
 32
3.1338834765
 13
-24.3843042487
 23
34.734789913
 33
3.1331206722
  0
3DFACE
  5
397
100
AcDbEntity
  8
52
100
AcDbFace
  6
CONTINUOUS
 10
-24.75
 20
24.734789913
 30
2.25
 11
-24.3843042487
 21
34.734789913
 31
3.1331206722
 12
-24.3838834765
 22
24.734789913
 32
3.1338834765
 13
-24.75
 23
24.734789913
 33
2.25
  0
3DFACE
  5
398
100
AcDbEntity
  8
52
100
AcDbFace
  6
CONTINUOUS
 10
-23.5
 20
34.734789913
 30
3.4995694333
 11
-22.6156957513
 21
34.734789913
 31
3.1331206722
 12
-23.5
 22
24.734789913
 32
3.5
 13
-23.5
 23
34.734789913
 33
3.4995694333
  0
3DFACE
  5
399
100
AcDbEntity
  8
52
100
AcDbFace
  6
CONTINUOUS
 10
-23.5
 20
34.734789913
 30
3.4995694333
 11
-23.5
 21
24.734789913
 31
3.5
 12
-24.3838834765
 22
24.734789913
 32
3.1338834765
 13
-23.5
 23
34.734789913
 33
3.4995694333
  0
3DFACE
  5
39A
100
AcDbEntity
  8
52
100
AcDbFace
  6
CONTINUOUS
 10
-22.6156957513
 20
34.734789913
 30
3.1331206722
 11
-22.6161165235
 21
24.734789913
 31
3.1338834765
 12
-23.5
 22
24.734789913
 32
3.5
 13
-22.6156957513
 23
34.734789913
 33
3.1331206722
  0
3DFACE
  5
39B
100
AcDbEntity
  8
53
100
AcDbFace
  6
CONTINUOUS
 10
-22.25
 20
10.0
 30
2.25
 11
-23.5
 21
10.7510757738
 31
2.25
 12
-22.6161165235
 22
10.0
 32
1.3661165235
 13
-22.25
 23
10.0
 33
2.25
  0
3DFACE
  5
39C
100
AcDbEntity
  8
53
100
AcDbFace
  6
CONTINUOUS
 10
-22.6161165235
 20
10.0
 30
1.3661165235
 11
-23.5
 21
10.7510757738
 31
2.25
 12
-23.5
 22
10.0
 32
1.0
 13
-22.6161165235
 23
10.0
 33
1.3661165235
  0
3DFACE
  5
39D
100
AcDbEntity
  8
53
100
AcDbFace
  6
CONTINUOUS
 10
-23.5
 20
10.0
 30
1.0
 11
-23.5
 21
10.7510757738
 31
2.25
 12
-24.3838834765
 22
10.0
 32
1.3661165235
 13
-23.5
 23
10.0
 33
1.0
  0
3DFACE
  5
39E
100
AcDbEntity
  8
53
100
AcDbFace
  6
CONTINUOUS
 10
-24.3838834765
 20
10.0
 30
1.3661165235
 11
-23.5
 21
10.7510757738
 31
2.25
 12
-24.75
 22
10.0
 32
2.25
 13
-24.3838834765
 23
10.0
 33
1.3661165235
  0
3DFACE
  5
39F
100
AcDbEntity
  8
54
100
AcDbFace
  6
CONTINUOUS
 10
-22.6156957513
 20
0.0
 30
1.3668793278
 11
-22.25
 21
0.0
 31
2.25
 12
-22.6161165235
 22
10.0
 32
1.3661165235
 13
-22.6156957513
 23
0.0
 33
1.3668793278
  0
3DFACE
  5
3A0
100
AcDbEntity
  8
54
100
AcDbFace
  6
CONTINUOUS
 10
-22.25
 20
0.0
 30
2.25
 11
-22.25
 21
10.0
 31
2.25
 12
-22.6161165235
 22
10.0
 32
1.3661165235
 13
-22.25
 23
0.0
 33
2.25
  0
3DFACE
  5
3A1
100
AcDbEntity
  8
54
100
AcDbFace
  6
CONTINUOUS
 10
-24.75
 20
0.0
 30
2.25
 11
-24.3843042487
 21
0.0
 31
1.3668793278
 12
-24.75
 22
10.0
 32
2.25
 13
-24.75
 23
0.0
 33
2.25
  0
3DFACE
  5
3A2
100
AcDbEntity
  8
54
100
AcDbFace
  6
CONTINUOUS
 10
-24.3843042487
 20
0.0
 30
1.3668793278
 11
-23.5
 21
0.0
 31
1.0004305667
 12
-24.3838834765
 22
10.0
 32
1.3661165235
 13
-24.3843042487
 23
0.0
 33
1.3668793278
  0
3DFACE
  5
3A3
100
AcDbEntity
  8
54
100
AcDbFace
  6
CONTINUOUS
 10
-24.3843042487
 20
0.0
 30
1.3668793278
 11
-24.3838834765
 21
10.0
 31
1.3661165235
 12
-24.75
 22
10.0
 32
2.25
 13
-24.3843042487
 23
0.0
 33
1.3668793278
  0
3DFACE
  5
3A4
100
AcDbEntity
  8
54
100
AcDbFace
  6
CONTINUOUS
 10
-23.5
 20
0.0
 30
1.0004305667
 11
-22.6156957513
 21
0.0
 31
1.3668793278
 12
-23.5
 22
10.0
 32
1.0
 13
-23.5
 23
0.0
 33
1.0004305667
  0
3DFACE
  5
3A5
100
AcDbEntity
  8
54
100
AcDbFace
  6
CONTINUOUS
 10
-23.5
 20
0.0
 30
1.0004305667
 11
-23.5
 21
10.0
 31
1.0
 12
-24.3838834765
 22
10.0
 32
1.3661165235
 13
-23.5
 23
0.0
 33
1.0004305667
  0
3DFACE
  5
3A6
100
AcDbEntity
  8
54
100
AcDbFace
  6
CONTINUOUS
 10
-22.6156957513
 20
0.0
 30
1.3668793278
 11
-22.6161165235
 21
10.0
 31
1.3661165235
 12
-23.5
 22
10.0
 32
1.0
 13
-22.6156957513
 23
0.0
 33
1.3668793278
  0
3DFACE
  5
3A7
100
AcDbEntity
  8
55
100
AcDbFace
  6
CONTINUOUS
 10
-23.5
 20
10.7510757738
 30
2.25
 11
-22.25
 21
10.0
 31
2.25
 12
-22.6161165235
 22
10.0
 32
3.1338834765
 13
-23.5
 23
10.7510757738
 33
2.25
  0
3DFACE
  5
3A8
100
AcDbEntity
  8
55
100
AcDbFace
  6
CONTINUOUS
 10
-24.75
 20
10.0
 30
2.25
 11
-23.5
 21
10.7510757738
 31
2.25
 12
-24.3838834765
 22
10.0
 32
3.1338834765
 13
-24.75
 23
10.0
 33
2.25
  0
3DFACE
  5
3A9
100
AcDbEntity
  8
55
100
AcDbFace
  6
CONTINUOUS
 10
-24.3838834765
 20
10.0
 30
3.1338834765
 11
-23.5
 21
10.7510757738
 31
2.25
 12
-23.5
 22
10.0
 32
3.5
 13
-24.3838834765
 23
10.0
 33
3.1338834765
  0
3DFACE
  5
3AA
100
AcDbEntity
  8
55
100
AcDbFace
  6
CONTINUOUS
 10
-23.5
 20
10.0
 30
3.5
 11
-23.5
 21
10.7510757738
 31
2.25
 12
-22.6161165235
 22
10.0
 32
3.1338834765
 13
-23.5
 23
10.0
 33
3.5
  0
3DFACE
  5
3AB
100
AcDbEntity
  8
56
100
AcDbFace
  6
CONTINUOUS
 10
-22.25
 20
0.0
 30
2.25
 11
-22.6156957513
 21
0.0
 31
3.1331206722
 12
-22.25
 22
10.0
 32
2.25
 13
-22.25
 23
0.0
 33
2.25
  0
3DFACE
  5
3AC
100
AcDbEntity
  8
56
100
AcDbFace
  6
CONTINUOUS
 10
-22.6156957513
 20
0.0
 30
3.1331206722
 11
-23.5
 21
0.0
 31
3.4995694333
 12
-22.6161165235
 22
10.0
 32
3.1338834765
 13
-22.6156957513
 23
0.0
 33
3.1331206722
  0
3DFACE
  5
3AD
100
AcDbEntity
  8
56
100
AcDbFace
  6
CONTINUOUS
 10
-22.25
 20
10.0
 30
2.25
 11
-22.6156957513
 21
0.0
 31
3.1331206722
 12
-22.6161165235
 22
10.0
 32
3.1338834765
 13
-22.25
 23
10.0
 33
2.25
  0
3DFACE
  5
3AE
100
AcDbEntity
  8
56
100
AcDbFace
  6
CONTINUOUS
 10
-23.5
 20
0.0
 30
3.4995694333
 11
-24.3843042487
 21
0.0
 31
3.1331206722
 12
-23.5
 22
10.0
 32
3.5
 13
-23.5
 23
0.0
 33
3.4995694333
  0
3DFACE
  5
3AF
100
AcDbEntity
  8
56
100
AcDbFace
  6
CONTINUOUS
 10
-23.5
 20
0.0
 30
3.4995694333
 11
-23.5
 21
10.0
 31
3.5
 12
-22.6161165235
 22
10.0
 32
3.1338834765
 13
-23.5
 23
0.0
 33
3.4995694333
  0
3DFACE
  5
3B0
100
AcDbEntity
  8
56
100
AcDbFace
  6
CONTINUOUS
 10
-24.3843042487
 20
0.0
 30
3.1331206722
 11
-24.75
 21
0.0
 31
2.25
 12
-24.3838834765
 22
10.0
 32
3.1338834765
 13
-24.3843042487
 23
0.0
 33
3.1331206722
  0
3DFACE
  5
3B1
100
AcDbEntity
  8
56
100
AcDbFace
  6
CONTINUOUS
 10
-24.3843042487
 20
0.0
 30
3.1331206722
 11
-24.3838834765
 21
10.0
 31
3.1338834765
 12
-23.5
 22
10.0
 32
3.5
 13
-24.3843042487
 23
0.0
 33
3.1331206722
  0
3DFACE
  5
3B2
100
AcDbEntity
  8
56
100
AcDbFace
  6
CONTINUOUS
 10
-24.75
 20
0.0
 30
2.25
 11
-24.75
 21
10.0
 31
2.25
 12
-24.3838834765
 22
10.0
 32
3.1338834765
 13
-24.75
 23
0.0
 33
2.25
  0
3DFACE
  5
3B3
100
AcDbEntity
  8
57
100
AcDbFace
  6
CONTINUOUS
 10
-4.75
 20
24.734789913
 30
2.25
 11
-3.5
 21
23.9837141393
 31
2.25
 12
-4.3838834765
 22
24.734789913
 32
1.3661165235
 13
-4.75
 23
24.734789913
 33
2.25
  0
3DFACE
  5
3B4
100
AcDbEntity
  8
57
100
AcDbFace
  6
CONTINUOUS
 10
-4.3838834765
 20
24.734789913
 30
1.3661165235
 11
-3.5
 21
23.9837141393
 31
2.25
 12
-3.5
 22
24.734789913
 32
1.0
 13
-4.3838834765
 23
24.734789913
 33
1.3661165235
  0
3DFACE
  5
3B5
100
AcDbEntity
  8
57
100
AcDbFace
  6
CONTINUOUS
 10
-3.5
 20
24.734789913
 30
1.0
 11
-3.5
 21
23.9837141393
 31
2.25
 12
-2.6161165235
 22
24.734789913
 32
1.3661165235
 13
-3.5
 23
24.734789913
 33
1.0
  0
3DFACE
  5
3B6
100
AcDbEntity
  8
57
100
AcDbFace
  6
CONTINUOUS
 10
-2.6161165235
 20
24.734789913
 30
1.3661165235
 11
-3.5
 21
23.9837141393
 31
2.25
 12
-2.25
 22
24.734789913
 32
2.25
 13
-2.6161165235
 23
24.734789913
 33
1.3661165235
  0
3DFACE
  5
3B7
100
AcDbEntity
  8
58
100
AcDbFace
  6
CONTINUOUS
 10
-4.3843042487
 20
34.734789913
 30
1.3668793278
 11
-4.75
 21
34.734789913
 31
2.25
 12
-4.3838834765
 22
24.734789913
 32
1.3661165235
 13
-4.3843042487
 23
34.734789913
 33
1.3668793278
  0
3DFACE
  5
3B8
100
AcDbEntity
  8
58
100
AcDbFace
  6
CONTINUOUS
 10
-4.75
 20
34.734789913
 30
2.25
 11
-4.75
 21
24.734789913
 31
2.25
 12
-4.3838834765
 22
24.734789913
 32
1.3661165235
 13
-4.75
 23
34.734789913
 33
2.25
  0
3DFACE
  5
3B9
100
AcDbEntity
  8
58
100
AcDbFace
  6
CONTINUOUS
 10
-2.25
 20
34.734789913
 30
2.25
 11
-2.6156957513
 21
34.734789913
 31
1.3668793278
 12
-2.25
 22
24.734789913
 32
2.25
 13
-2.25
 23
34.734789913
 33
2.25
  0
3DFACE
  5
3BA
100
AcDbEntity
  8
58
100
AcDbFace
  6
CONTINUOUS
 10
-2.6156957513
 20
34.734789913
 30
1.3668793278
 11
-3.5
 21
34.734789913
 31
1.0004305667
 12
-2.6161165235
 22
24.734789913
 32
1.3661165235
 13
-2.6156957513
 23
34.734789913
 33
1.3668793278
  0
3DFACE
  5
3BB
100
AcDbEntity
  8
58
100
AcDbFace
  6
CONTINUOUS
 10
-2.6156957513
 20
34.734789913
 30
1.3668793278
 11
-2.6161165235
 21
24.734789913
 31
1.3661165235
 12
-2.25
 22
24.734789913
 32
2.25
 13
-2.6156957513
 23
34.734789913
 33
1.3668793278
  0
3DFACE
  5
3BC
100
AcDbEntity
  8
58
100
AcDbFace
  6
CONTINUOUS
 10
-3.5
 20
34.734789913
 30
1.0004305667
 11
-4.3843042487
 21
34.734789913
 31
1.3668793278
 12
-3.5
 22
24.734789913
 32
1.0
 13
-3.5
 23
34.734789913
 33
1.0004305667
  0
3DFACE
  5
3BD
100
AcDbEntity
  8
58
100
AcDbFace
  6
CONTINUOUS
 10
-3.5
 20
34.734789913
 30
1.0004305667
 11
-3.5
 21
24.734789913
 31
1.0
 12
-2.6161165235
 22
24.734789913
 32
1.3661165235
 13
-3.5
 23
34.734789913
 33
1.0004305667
  0
3DFACE
  5
3BE
100
AcDbEntity
  8
58
100
AcDbFace
  6
CONTINUOUS
 10
-4.3843042487
 20
34.734789913
 30
1.3668793278
 11
-4.3838834765
 21
24.734789913
 31
1.3661165235
 12
-3.5
 22
24.734789913
 32
1.0
 13
-4.3843042487
 23
34.734789913
 33
1.3668793278
  0
3DFACE
  5
3BF
100
AcDbEntity
  8
59
100
AcDbFace
  6
CONTINUOUS
 10
-3.5
 20
23.9837141393
 30
2.25
 11
-4.75
 21
24.734789913
 31
2.25
 12
-4.3838834765
 22
24.734789913
 32
3.1338834765
 13
-3.5
 23
23.9837141393
 33
2.25
  0
3DFACE
  5
3C0
100
AcDbEntity
  8
59
100
AcDbFace
  6
CONTINUOUS
 10
-2.25
 20
24.734789913
 30
2.25
 11
-3.5
 21
23.9837141393
 31
2.25
 12
-2.6161165235
 22
24.734789913
 32
3.1338834765
 13
-2.25
 23
24.734789913
 33
2.25
  0
3DFACE
  5
3C1
100
AcDbEntity
  8
59
100
AcDbFace
  6
CONTINUOUS
 10
-2.6161165235
 20
24.734789913
 30
3.1338834765
 11
-3.5
 21
23.9837141393
 31
2.25
 12
-3.5
 22
24.734789913
 32
3.5
 13
-2.6161165235
 23
24.734789913
 33
3.1338834765
  0
3DFACE
  5
3C2
100
AcDbEntity
  8
59
100
AcDbFace
  6
CONTINUOUS
 10
-3.5
 20
24.734789913
 30
3.5
 11
-3.5
 21
23.9837141393
 31
2.25
 12
-4.3838834765
 22
24.734789913
 32
3.1338834765
 13
-3.5
 23
24.734789913
 33
3.5
  0
3DFACE
  5
3C3
100
AcDbEntity
  8
60
100
AcDbFace
  6
CONTINUOUS
 10
-4.75
 20
34.734789913
 30
2.25
 11
-4.3843042487
 21
34.734789913
 31
3.1331206722
 12
-4.75
 22
24.734789913
 32
2.25
 13
-4.75
 23
34.734789913
 33
2.25
  0
3DFACE
  5
3C4
100
AcDbEntity
  8
60
100
AcDbFace
  6
CONTINUOUS
 10
-4.3843042487
 20
34.734789913
 30
3.1331206722
 11
-3.5
 21
34.734789913
 31
3.4995694333
 12
-4.3838834765
 22
24.734789913
 32
3.1338834765
 13
-4.3843042487
 23
34.734789913
 33
3.1331206722
  0
3DFACE
  5
3C5
100
AcDbEntity
  8
60
100
AcDbFace
  6
CONTINUOUS
 10
-4.75
 20
24.734789913
 30
2.25
 11
-4.3843042487
 21
34.734789913
 31
3.1331206722
 12
-4.3838834765
 22
24.734789913
 32
3.1338834765
 13
-4.75
 23
24.734789913
 33
2.25
  0
3DFACE
  5
3C6
100
AcDbEntity
  8
60
100
AcDbFace
  6
CONTINUOUS
 10
-3.5
 20
34.734789913
 30
3.4995694333
 11
-2.6156957513
 21
34.734789913
 31
3.1331206722
 12
-3.5
 22
24.734789913
 32
3.5
 13
-3.5
 23
34.734789913
 33
3.4995694333
  0
3DFACE
  5
3C7
100
AcDbEntity
  8
60
100
AcDbFace
  6
CONTINUOUS
 10
-3.5
 20
34.734789913
 30
3.4995694333
 11
-3.5
 21
24.734789913
 31
3.5
 12
-4.3838834765
 22
24.734789913
 32
3.1338834765
 13
-3.5
 23
34.734789913
 33
3.4995694333
  0
3DFACE
  5
3C8
100
AcDbEntity
  8
60
100
AcDbFace
  6
CONTINUOUS
 10
-2.6156957513
 20
34.734789913
 30
3.1331206722
 11
-2.25
 21
34.734789913
 31
2.25
 12
-2.6161165235
 22
24.734789913
 32
3.1338834765
 13
-2.6156957513
 23
34.734789913
 33
3.1331206722
  0
3DFACE
  5
3C9
100
AcDbEntity
  8
60
100
AcDbFace
  6
CONTINUOUS
 10
-2.6156957513
 20
34.734789913
 30
3.1331206722
 11
-2.6161165235
 21
24.734789913
 31
3.1338834765
 12
-3.5
 22
24.734789913
 32
3.5
 13
-2.6156957513
 23
34.734789913
 33
3.1331206722
  0
3DFACE
  5
3CA
100
AcDbEntity
  8
60
100
AcDbFace
  6
CONTINUOUS
 10
-2.25
 20
34.734789913
 30
2.25
 11
-2.25
 21
24.734789913
 31
2.25
 12
-2.6161165235
 22
24.734789913
 32
3.1338834765
 13
-2.25
 23
34.734789913
 33
2.25
  0
3DFACE
  5
3CB
100
AcDbEntity
  8
61
100
AcDbFace
  6
CONTINUOUS
 10
-2.25
 20
10.0
 30
2.25
 11
-3.5
 21
10.7510757738
 31
2.25
 12
-2.6161165235
 22
10.0
 32
1.3661165235
 13
-2.25
 23
10.0
 33
2.25
  0
3DFACE
  5
3CC
100
AcDbEntity
  8
61
100
AcDbFace
  6
CONTINUOUS
 10
-2.6161165235
 20
10.0
 30
1.3661165235
 11
-3.5
 21
10.7510757738
 31
2.25
 12
-3.5
 22
10.0
 32
1.0
 13
-2.6161165235
 23
10.0
 33
1.3661165235
  0
3DFACE
  5
3CD
100
AcDbEntity
  8
61
100
AcDbFace
  6
CONTINUOUS
 10
-3.5
 20
10.0
 30
1.0
 11
-3.5
 21
10.7510757738
 31
2.25
 12
-4.3838834765
 22
10.0
 32
1.3661165235
 13
-3.5
 23
10.0
 33
1.0
  0
3DFACE
  5
3CE
100
AcDbEntity
  8
61
100
AcDbFace
  6
CONTINUOUS
 10
-4.3838834765
 20
10.0
 30
1.3661165235
 11
-3.5
 21
10.7510757738
 31
2.25
 12
-4.75
 22
10.0
 32
2.25
 13
-4.3838834765
 23
10.0
 33
1.3661165235
  0
3DFACE
  5
3CF
100
AcDbEntity
  8
62
100
AcDbFace
  6
CONTINUOUS
 10
-4.75
 20
0.0
 30
2.25
 11
-4.3843042487
 21
0.0
 31
1.3668793278
 12
-4.75
 22
10.0
 32
2.25
 13
-4.75
 23
0.0
 33
2.25
  0
3DFACE
  5
3D0
100
AcDbEntity
  8
62
100
AcDbFace
  6
CONTINUOUS
 10
-4.3843042487
 20
0.0
 30
1.3668793278
 11
-3.5
 21
0.0
 31
1.0004305667
 12
-4.3838834765
 22
10.0
 32
1.3661165235
 13
-4.3843042487
 23
0.0
 33
1.3668793278
  0
3DFACE
  5
3D1
100
AcDbEntity
  8
62
100
AcDbFace
  6
CONTINUOUS
 10
-4.3843042487
 20
0.0
 30
1.3668793278
 11
-4.3838834765
 21
10.0
 31
1.3661165235
 12
-4.75
 22
10.0
 32
2.25
 13
-4.3843042487
 23
0.0
 33
1.3668793278
  0
3DFACE
  5
3D2
100
AcDbEntity
  8
62
100
AcDbFace
  6
CONTINUOUS
 10
-3.5
 20
0.0
 30
1.0004305667
 11
-2.6156957513
 21
0.0
 31
1.3668793278
 12
-3.5
 22
10.0
 32
1.0
 13
-3.5
 23
0.0
 33
1.0004305667
  0
3DFACE
  5
3D3
100
AcDbEntity
  8
62
100
AcDbFace
  6
CONTINUOUS
 10
-3.5
 20
0.0
 30
1.0004305667
 11
-3.5
 21
10.0
 31
1.0
 12
-4.3838834765
 22
10.0
 32
1.3661165235
 13
-3.5
 23
0.0
 33
1.0004305667
  0
3DFACE
  5
3D4
100
AcDbEntity
  8
62
100
AcDbFace
  6
CONTINUOUS
 10
-2.6156957513
 20
0.0
 30
1.3668793278
 11
-2.25
 21
0.0
 31
2.25
 12
-2.6161165235
 22
10.0
 32
1.3661165235
 13
-2.6156957513
 23
0.0
 33
1.3668793278
  0
3DFACE
  5
3D5
100
AcDbEntity
  8
62
100
AcDbFace
  6
CONTINUOUS
 10
-2.6156957513
 20
0.0
 30
1.3668793278
 11
-2.6161165235
 21
10.0
 31
1.3661165235
 12
-3.5
 22
10.0
 32
1.0
 13
-2.6156957513
 23
0.0
 33
1.3668793278
  0
3DFACE
  5
3D6
100
AcDbEntity
  8
62
100
AcDbFace
  6
CONTINUOUS
 10
-2.25
 20
0.0
 30
2.25
 11
-2.25
 21
10.0
 31
2.25
 12
-2.6161165235
 22
10.0
 32
1.3661165235
 13
-2.25
 23
0.0
 33
2.25
  0
3DFACE
  5
3D7
100
AcDbEntity
  8
63
100
AcDbFace
  6
CONTINUOUS
 10
-3.5
 20
10.7510757738
 30
2.25
 11
-2.25
 21
10.0
 31
2.25
 12
-2.6161165235
 22
10.0
 32
3.1338834765
 13
-3.5
 23
10.7510757738
 33
2.25
  0
3DFACE
  5
3D8
100
AcDbEntity
  8
63
100
AcDbFace
  6
CONTINUOUS
 10
-4.75
 20
10.0
 30
2.25
 11
-3.5
 21
10.7510757738
 31
2.25
 12
-4.3838834765
 22
10.0
 32
3.1338834765
 13
-4.75
 23
10.0
 33
2.25
  0
3DFACE
  5
3D9
100
AcDbEntity
  8
63
100
AcDbFace
  6
CONTINUOUS
 10
-4.3838834765
 20
10.0
 30
3.1338834765
 11
-3.5
 21
10.7510757738
 31
2.25
 12
-3.5
 22
10.0
 32
3.5
 13
-4.3838834765
 23
10.0
 33
3.1338834765
  0
3DFACE
  5
3DA
100
AcDbEntity
  8
63
100
AcDbFace
  6
CONTINUOUS
 10
-3.5
 20
10.0
 30
3.5
 11
-3.5
 21
10.7510757738
 31
2.25
 12
-2.6161165235
 22
10.0
 32
3.1338834765
 13
-3.5
 23
10.0
 33
3.5
  0
3DFACE
  5
3DB
100
AcDbEntity
  8
64
100
AcDbFace
  6
CONTINUOUS
 10
-4.3843042487
 20
0.0
 30
3.1331206722
 11
-4.75
 21
0.0
 31
2.25
 12
-4.3838834765
 22
10.0
 32
3.1338834765
 13
-4.3843042487
 23
0.0
 33
3.1331206722
  0
3DFACE
  5
3DC
100
AcDbEntity
  8
64
100
AcDbFace
  6
CONTINUOUS
 10
-4.75
 20
0.0
 30
2.25
 11
-4.75
 21
10.0
 31
2.25
 12
-4.3838834765
 22
10.0
 32
3.1338834765
 13
-4.75
 23
0.0
 33
2.25
  0
3DFACE
  5
3DD
100
AcDbEntity
  8
64
100
AcDbFace
  6
CONTINUOUS
 10
-2.25
 20
0.0
 30
2.25
 11
-2.6156957513
 21
0.0
 31
3.1331206722
 12
-2.25
 22
10.0
 32
2.25
 13
-2.25
 23
0.0
 33
2.25
  0
3DFACE
  5
3DE
100
AcDbEntity
  8
64
100
AcDbFace
  6
CONTINUOUS
 10
-2.6156957513
 20
0.0
 30
3.1331206722
 11
-3.5
 21
0.0
 31
3.4995694333
 12
-2.6161165235
 22
10.0
 32
3.1338834765
 13
-2.6156957513
 23
0.0
 33
3.1331206722
  0
3DFACE
  5
3DF
100
AcDbEntity
  8
64
100
AcDbFace
  6
CONTINUOUS
 10
-2.25
 20
10.0
 30
2.25
 11
-2.6156957513
 21
0.0
 31
3.1331206722
 12
-2.6161165235
 22
10.0
 32
3.1338834765
 13
-2.25
 23
10.0
 33
2.25
  0
3DFACE
  5
3E0
100
AcDbEntity
  8
64
100
AcDbFace
  6
CONTINUOUS
 10
-3.5
 20
0.0
 30
3.4995694333
 11
-4.3843042487
 21
0.0
 31
3.1331206722
 12
-3.5
 22
10.0
 32
3.5
 13
-3.5
 23
0.0
 33
3.4995694333
  0
3DFACE
  5
3E1
100
AcDbEntity
  8
64
100
AcDbFace
  6
CONTINUOUS
 10
-3.5
 20
0.0
 30
3.4995694333
 11
-3.5
 21
10.0
 31
3.5
 12
-2.6161165235
 22
10.0
 32
3.1338834765
 13
-3.5
 23
0.0
 33
3.4995694333
  0
3DFACE
  5
3E2
100
AcDbEntity
  8
64
100
AcDbFace
  6
CONTINUOUS
 10
-4.3843042487
 20
0.0
 30
3.1331206722
 11
-4.3838834765
 21
10.0
 31
3.1338834765
 12
-3.5
 22
10.0
 32
3.5
 13
-4.3843042487
 23
0.0
 33
3.1331206722
  0
ENDSEC
  0
SECTION
  2
OBJECTS
  0
DICTIONARY
  5
C
100
AcDbDictionary
280
0
281
1
  3
ACAD_GROUP
350
D
  3
ACAD_MLINESTYLE
350
17
  3
ACAD_LAYOUT
350
1A
  3
ACAD_PLOTSETTINGS
350
19
  3
ACAD_PLOTSTYLENAME
350
E
  0
DICTIONARY
  5
D
102
{ACAD_REACTORS
330
C
102
}
100
AcDbDictionary
280
0
281
1
  0
ACDBDICTIONARYWDFLT
  5
E
102
{ACAD_REACTORS
330
C
102
}
100
AcDbDictionary
281
1
  3
Normal
350
F
100
AcDbDictionaryWithDefault
340
F
  0
DICTIONARY
  5
17
102
{ACAD_REACTORS
330
C
102
}
100
AcDbDictionary
280
0
281
1
  3
Standard
350
18
  0
DICTIONARY
  5
19
102
{ACAD_REACTORS
330
C
102
}
100
AcDbDictionary
281
1
  0
DICTIONARY
  5
1A
102
{ACAD_REACTORS
330
C
102
}
100
AcDbDictionary
281
1
  3
Model
350
3E3
  3
Layout1
350
3E4
  0
ACDBPLACEHOLDER
  5
F
102
{ACAD_REACTORS
330
E
102
}
  0
MLINESTYLE
  5
18
102
{ACAD_REACTORS
330
17
102
}
100
AcDbMlineStyle
  2
STANDARD
 70
0
  3

 62
256
 51
90.0
 52
90.0
 71
2
 49
0.5
 62
256
  6
BYLAYER
 49
-0.5
 62
256
  6
BYLAYER
  0
LAYOUT
  5
3E3
102
{ACAD_REACTORS
330
1A
102
}
100
AcDbPlotSettings
  1

  2
none_device
  4
ANSI_A_(11.00_x_8.50_Inches)
  6

 40
0.0
 41
0.0
 42
0.0
 43
0.0
 44
1953.125
 45
1647.94921875
 46
0.0
 47
0.0
 48
0.0
 49
0.0
140
0.0
141
0.0
142
1.0
143
1.0
 70
1024
 72
1
 73
0
 74
0
  7

 75
0
147
1.0
148
0.0
149
0.0
100
AcDbLayout
  1
Model
 70
0
 71
0
 10
0.0
 20
0.0
 11
1953.125
 21
1647.94921875
 12
0.0
 22
0.0
 32
0.0
 14
0.0
 24
0.0
 34
0.0
 15
0.0
 25
0.0
 35
0.0
146
0.0
 13
0.0
 23
0.0
 33
0.0
 16
1.0
 26
0.0
 36
0.0
 17
0.0
 27
1.0
 37
0.0
 76
0
330
23E
345
0
346
0
  0
LAYOUT
  5
3E4
102
{ACAD_REACTORS
330
1A
102
}
100
AcDbPlotSettings
  1

  2
none_device
  4
ANSI_A_(11.00_x_8.50_Inches)
  6

 40
0.0
 41
0.0
 42
0.0
 43
0.0
 44
1953.125
 45
1647.94921875
 46
0.0
 47
0.0
 48
0.0
 49
0.0
140
0.0
141
0.0
142
1.0
143
1.0
 70
0
 72
1
 73
0
 74
0
  7

 75
0
147
1.0
148
0.0
149
0.0
100
AcDbLayout
  1
Layout1
 70
0
 71
1
 10
0.0
 20
0.0
 11
1953.125
 21
1647.94921875
 12
0.0
 22
0.0
 32
0.0
 14
0.0
 24
0.0
 34
0.0
 15
0.0
 25
0.0
 35
0.0
146
0.0
 13
0.0
 23
0.0
 33
0.0
 16
1.0
 26
0.0
 36
0.0
 17
0.0
 27
1.0
 37
0.0
 76
0
330
23F
345
0
346
0
  0
ENDSEC
  0
EOF
