  0
SECTION
  2
HEADER
  9
$ACADVER
  1
AC1032
  9
$DWGCODEPAGE
  3
ANSI_1252
  9
$EXTMAX
 10
1000.0
 20
843.75
 30
0.0
  9
$EXTMIN
 10
0.0
 20
0.0
 30
0.0
  9
$LIMMIN
 10
0.0
 20
0.0
  9
$LIMMAX
 10
1000.0
 20
843.75
  9
$VIEWCTR
 10
500.0
 20
421.875
  9
$VIEWSIZE
 40
843.75
  9
$CLAYER
  8
0
  9
$LTSCALE
 40
65.1851851852
  9
$CELTYPE
  6
BYLAYER
  9
$DIMSCALE
 40
1.0
  9
$DIMASZ
 40
0.1875
  9
$DIMEXO
 40
0.0625
  9
$DIMDLI
 40
38.0
  9
$DIMEXE
 40
0.125
  9
$DIMCEN
 40
9.0
  9
$DIMLFAC
 40
1.0
  9
$DIMBLK
  1
_CLOSED
  9
$DIMALT
 70
0
  9
$DIMALTF
 40
0.0393700787
  9
$DIMTXT
 40
0.15625
  9
$DIMDSEP
 70
46
  9
$AUNITS
 70
0
  9
$PDMODE
 70
0
  9
$PDSIZE
 40
0.3125
  9
$HANDSEED
  5
401
  9
$TILEMODE
 70
1
  9
$MEASUREMENT
 70
1
  9
$INSUNITS
 70
4
  0
ENDSEC
  0
SECTION
  2
CLASSES
  0
CLASS
  1
ACDBDICTIONARYWDFLT
  2
AcDbDictionaryWithDefault
  3
AutoCAD 2000
 90
0
 91
1
280
0
281
0
  0
CLASS
  1
ACDBPLACEHOLDER
  2
AcDbPlaceHolder
  3
AutoCAD 2000
 90
0
 91
1
280
0
281
0
  0
CLASS
  1
LAYOUT
  2
AcDbLayout
  3
AutoCAD 2000
 90
0
 91
0
280
0
281
0
  0
ENDSEC
  0
SECTION
  2
TABLES
  0
TABLE
  2
VPORT
  5
8
100
AcDbSymbolTable
 70
2
  0
VPORT
  5
1F4
100
AcDbSymbolTableRecord
100
AcDbViewportTableRecord
  2
*ACTIVE
 70
0
 10
0.0
 20
0.0
 11
1.0
 21
1.0
 12
500.0
 22
421.875
 13
0.0
 23
0.0
 14
1.0
 24
1.0
 15
0.0
 25
0.0
 16
0.0
 26
0.0
 36
1.0
 17
0.0
 27
0.0
 37
0.0
 40
843.75
 41
1.1851851852
 42
50.0
 43
0.0
 44
0.0
 50
0.0
 51
0.0
 71
0
 72
100
 73
1
 74
1
 75
0
 76
0
 77
0
 78
0
  0
ENDTAB
  0
TABLE
  2
LTYPE
  5
5
100
AcDbSymbolTable
 70
6
  0
LTYPE
  5
14
100
AcDbSymbolTableRecord
100
AcDbLinetypeTableRecord
  2
BYBLOCK
 70
0
  3

 72
65
 73
0
 40
0.0
  0
LTYPE
  5
15
100
AcDbSymbolTableRecord
100
AcDbLinetypeTableRecord
  2
BYLAYER
 70
0
  3

 72
65
 73
0
 40
0.0
  0
LTYPE
  5
16
100
AcDbSymbolTableRecord
100
AcDbLinetypeTableRecord
  2
CONTINUOUS
 70
64
  3
Solid line
 72
65
 73
0
 40
0.0
  0
LTYPE
  5
1F5
100
AcDbSymbolTableRecord
100
AcDbLinetypeTableRecord
  2
CENTER
 70
64
  3
____ _ ____ _ ____ _ ____ _ ____ _ ____ _ ____
 72
65
 73
4
 40
0.6
 49
0.375
 74
0
 49
-0.075
 74
0
 49
0.075
 74
0
 49
-0.075
 74
0
  0
LTYPE
  5
1F6
100
AcDbSymbolTableRecord
100
AcDbLinetypeTableRecord
  2
HIDDEN
 70
64
  3
- - - - - - - - - - - - - - - - - - - -
 72
65
 73
2
 40
0.2
 49
0.1
 74
0
 49
-0.1
 74
0
  0
LTYPE
  5
1F7
100
AcDbSymbolTableRecord
100
AcDbLinetypeTableRecord
  2
PHANTOM
 70
64
  3
_____ _ _ _____ _ _ _____ _ _ _____
 72
65
 73
6
 40
0.8
 49
0.45
 74
0
 49
-0.05
 74
0
 49
0.1
 74
0
 49
-0.05
 74
0
 49
0.1
 74
0
 49
-0.05
 74
0
  0
LTYPE
  5
1F8
100
AcDbSymbolTableRecord
100
AcDbLinetypeTableRecord
  2
DOT
 70
64
  3
. . . . . . . . . . . . . . . . . . . .
 72
65
 73
2
 40
0.08
 49
0.0
 74
0
 49
-0.08
 74
0
  0
LTYPE
  5
1F9
100
AcDbSymbolTableRecord
100
AcDbLinetypeTableRecord
  2
DASHED
 70
64
  3
- - - - - - - - - - - - - - - - - - - -
 72
65
 73
2
 40
0.2
 49
0.1
 74
0
 49
-0.1
 74
0
  0
ENDTAB
  0
TABLE
  2
LAYER
  5
2
100
AcDbSymbolTable
 70
36
  0
LAYER
  5
10
100
AcDbSymbolTableRecord
100
AcDbLayerTableRecord
  2
0
 70
0
 62
7
  6
CONTINUOUS
370
-3
390
F
  0
LAYER
  5
1FA
100
AcDbSymbolTableRecord
100
AcDbLayerTableRecord
  2
DEFAULT_1
 70
0
 62
7
  6
CENTER
370
-3
390
F
  0
LAYER
  5
1FB
100
AcDbSymbolTableRecord
100
AcDbLayerTableRecord
  2
DEFAULT_2
 70
0
 62
8
  6
HIDDEN
370
-3
390
F
  0
LAYER
  5
1FC
100
AcDbSymbolTableRecord
100
AcDbLayerTableRecord
  2
DEFAULT_3
 70
0
 62
7
  6
PHANTOM
370
-3
390
F
  0
LAYER
  5
1FD
100
AcDbSymbolTableRecord
100
AcDbLayerTableRecord
  2
1
 70
0
 62
7
  6
CONTINUOUS
370
-3
390
F
  0
LAYER
  5
1FE
100
AcDbSymbolTableRecord
100
AcDbLayerTableRecord
  2
2
 70
0
 62
7
  6
CONTINUOUS
370
-3
390
F
  0
LAYER
  5
1FF
100
AcDbSymbolTableRecord
100
AcDbLayerTableRecord
  2
3
 70
0
 62
7
  6
CONTINUOUS
370
-3
390
F
  0
LAYER
  5
200
100
AcDbSymbolTableRecord
100
AcDbLayerTableRecord
  2
4
 70
0
 62
7
  6
CONTINUOUS
370
-3
390
F
  0
LAYER
  5
201
100
AcDbSymbolTableRecord
100
AcDbLayerTableRecord
  2
5
 70
0
 62
7
  6
CONTINUOUS
370
-3
390
F
  0
LAYER
  5
202
100
AcDbSymbolTableRecord
100
AcDbLayerTableRecord
  2
6
 70
0
 62
7
  6
CONTINUOUS
370
-3
390
F
  0
LAYER
  5
203
100
AcDbSymbolTableRecord
100
AcDbLayerTableRecord
  2
7
 70
0
 62
7
  6
CONTINUOUS
370
-3
390
F
  0
LAYER
  5
204
100
AcDbSymbolTableRecord
100
AcDbLayerTableRecord
  2
8
 70
0
 62
7
  6
CONTINUOUS
370
-3
390
F
  0
LAYER
  5
205
100
AcDbSymbolTableRecord
100
AcDbLayerTableRecord
  2
9
 70
0
 62
7
  6
CONTINUOUS
370
-3
390
F
  0
LAYER
  5
206
100
AcDbSymbolTableRecord
100
AcDbLayerTableRecord
  2
10
 70
0
 62
7
  6
CONTINUOUS
370
-3
390
F
  0
LAYER
  5
207
100
AcDbSymbolTableRecord
100
AcDbLayerTableRecord
  2
11
 70
0
 62
7
  6
CONTINUOUS
370
-3
390
F
  0
LAYER
  5
208
100
AcDbSymbolTableRecord
100
AcDbLayerTableRecord
  2
12
 70
0
 62
7
  6
CONTINUOUS
370
-3
390
F
  0
LAYER
  5
209
100
AcDbSymbolTableRecord
100
AcDbLayerTableRecord
  2
13
 70
0
 62
7
  6
CONTINUOUS
370
-3
390
F
  0
LAYER
  5
20A
100
AcDbSymbolTableRecord
100
AcDbLayerTableRecord
  2
14
 70
0
 62
7
  6
CONTINUOUS
370
-3
390
F
  0
LAYER
  5
20B
100
AcDbSymbolTableRecord
100
AcDbLayerTableRecord
  2
15
 70
0
 62
7
  6
CONTINUOUS
370
-3
390
F
  0
LAYER
  5
20C
100
AcDbSymbolTableRecord
100
AcDbLayerTableRecord
  2
16
 70
0
 62
7
  6
CONTINUOUS
370
-3
390
F
  0
LAYER
  5
20D
100
AcDbSymbolTableRecord
100
AcDbLayerTableRecord
  2
17
 70
0
 62
7
  6
CONTINUOUS
370
-3
390
F
  0
LAYER
  5
20E
100
AcDbSymbolTableRecord
100
AcDbLayerTableRecord
  2
18
 70
0
 62
7
  6
CONTINUOUS
370
-3
390
F
  0
LAYER
  5
20F
100
AcDbSymbolTableRecord
100
AcDbLayerTableRecord
  2
19
 70
0
 62
7
  6
CONTINUOUS
370
-3
390
F
  0
LAYER
  5
210
100
AcDbSymbolTableRecord
100
AcDbLayerTableRecord
  2
20
 70
0
 62
7
  6
CONTINUOUS
370
-3
390
F
  0
LAYER
  5
211
100
AcDbSymbolTableRecord
100
AcDbLayerTableRecord
  2
21
 70
0
 62
7
  6
CONTINUOUS
370
-3
390
F
  0
LAYER
  5
212
100
AcDbSymbolTableRecord
100
AcDbLayerTableRecord
  2
22
 70
0
 62
7
  6
CONTINUOUS
370
-3
390
F
  0
LAYER
  5
213
100
AcDbSymbolTableRecord
100
AcDbLayerTableRecord
  2
23
 70
0
 62
7
  6
CONTINUOUS
370
-3
390
F
  0
LAYER
  5
214
100
AcDbSymbolTableRecord
100
AcDbLayerTableRecord
  2
24
 70
0
 62
7
  6
CONTINUOUS
370
-3
390
F
  0
LAYER
  5
215
100
AcDbSymbolTableRecord
100
AcDbLayerTableRecord
  2
25
 70
0
 62
7
  6
CONTINUOUS
370
-3
390
F
  0
LAYER
  5
216
100
AcDbSymbolTableRecord
100
AcDbLayerTableRecord
  2
26
 70
0
 62
7
  6
CONTINUOUS
370
-3
390
F
  0
LAYER
  5
217
100
AcDbSymbolTableRecord
100
AcDbLayerTableRecord
  2
27
 70
0
 62
7
  6
CONTINUOUS
370
-3
390
F
  0
LAYER
  5
218
100
AcDbSymbolTableRecord
100
AcDbLayerTableRecord
  2
28
 70
0
 62
7
  6
CONTINUOUS
370
-3
390
F
  0
LAYER
  5
219
100
AcDbSymbolTableRecord
100
AcDbLayerTableRecord
  2
29
 70
0
 62
7
  6
CONTINUOUS
370
-3
390
F
  0
LAYER
  5
21A
100
AcDbSymbolTableRecord
100
AcDbLayerTableRecord
  2
30
 70
0
 62
7
  6
CONTINUOUS
370
-3
390
F
  0
LAYER
  5
21B
100
AcDbSymbolTableRecord
100
AcDbLayerTableRecord
  2
31
 70
0
 62
7
  6
CONTINUOUS
370
-3
390
F
  0
LAYER
  5
21C
100
AcDbSymbolTableRecord
100
AcDbLayerTableRecord
  2
32
 70
0
 62
7
  6
CONTINUOUS
370
-3
390
F
  0
LAYER
  5
21D
100
AcDbSymbolTableRecord
100
AcDbLayerTableRecord
  2
33
 70
0
 62
7
  6
CONTINUOUS
370
-3
390
F
  0
LAYER
  5
21E
100
AcDbSymbolTableRecord
100
AcDbLayerTableRecord
  2
34
 70
0
 62
7
  6
CONTINUOUS
370
-3
390
F
  0
LAYER
  5
21F
100
AcDbSymbolTableRecord
100
AcDbLayerTableRecord
  2
35
 70
0
 62
7
  6
CONTINUOUS
370
-3
390
F
  0
LAYER
  5
220
100
AcDbSymbolTableRecord
100
AcDbLayerTableRecord
  2
36
 70
0
 62
7
  6
CONTINUOUS
370
-3
390
F
  0
LAYER
  5
221
100
AcDbSymbolTableRecord
100
AcDbLayerTableRecord
  2
37
 70
0
 62
7
  6
CONTINUOUS
370
-3
390
F
  0
LAYER
  5
222
100
AcDbSymbolTableRecord
100
AcDbLayerTableRecord
  2
38
 70
0
 62
7
  6
CONTINUOUS
370
-3
390
F
  0
LAYER
  5
223
100
AcDbSymbolTableRecord
100
AcDbLayerTableRecord
  2
39
 70
0
 62
7
  6
CONTINUOUS
370
-3
390
F
  0
LAYER
  5
224
100
AcDbSymbolTableRecord
100
AcDbLayerTableRecord
  2
40
 70
0
 62
7
  6
CONTINUOUS
370
-3
390
F
  0
LAYER
  5
225
100
AcDbSymbolTableRecord
100
AcDbLayerTableRecord
  2
41
 70
0
 62
7
  6
CONTINUOUS
370
-3
390
F
  0
LAYER
  5
226
100
AcDbSymbolTableRecord
100
AcDbLayerTableRecord
  2
42
 70
0
 62
7
  6
CONTINUOUS
370
-3
390
F
  0
LAYER
  5
227
100
AcDbSymbolTableRecord
100
AcDbLayerTableRecord
  2
43
 70
0
 62
7
  6
CONTINUOUS
370
-3
390
F
  0
LAYER
  5
228
100
AcDbSymbolTableRecord
100
AcDbLayerTableRecord
  2
44
 70
0
 62
7
  6
CONTINUOUS
370
-3
390
F
  0
LAYER
  5
229
100
AcDbSymbolTableRecord
100
AcDbLayerTableRecord
  2
45
 70
0
 62
7
  6
CONTINUOUS
370
-3
390
F
  0
LAYER
  5
22A
100
AcDbSymbolTableRecord
100
AcDbLayerTableRecord
  2
46
 70
0
 62
7
  6
CONTINUOUS
370
-3
390
F
  0
LAYER
  5
22B
100
AcDbSymbolTableRecord
100
AcDbLayerTableRecord
  2
47
 70
0
 62
7
  6
CONTINUOUS
370
-3
390
F
  0
LAYER
  5
22C
100
AcDbSymbolTableRecord
100
AcDbLayerTableRecord
  2
48
 70
0
 62
7
  6
CONTINUOUS
370
-3
390
F
  0
LAYER
  5
22D
100
AcDbSymbolTableRecord
100
AcDbLayerTableRecord
  2
49
 70
0
 62
7
  6
CONTINUOUS
370
-3
390
F
  0
LAYER
  5
22E
100
AcDbSymbolTableRecord
100
AcDbLayerTableRecord
  2
50
 70
0
 62
7
  6
CONTINUOUS
370
-3
390
F
  0
LAYER
  5
22F
100
AcDbSymbolTableRecord
100
AcDbLayerTableRecord
  2
51
 70
0
 62
7
  6
CONTINUOUS
370
-3
390
F
  0
LAYER
  5
230
100
AcDbSymbolTableRecord
100
AcDbLayerTableRecord
  2
52
 70
0
 62
7
  6
CONTINUOUS
370
-3
390
F
  0
ENDTAB
  0
TABLE
  2
STYLE
  5
3
100
AcDbSymbolTable
 70
1
  0
ENDTAB
  0
TABLE
  2
VIEW
  5
6
100
AcDbSymbolTable
 70
0
  0
ENDTAB
  0
TABLE
  2
UCS
  5
7
100
AcDbSymbolTable
 70
0
  0
ENDTAB
  0
TABLE
  2
APPID
  5
9
100
AcDbSymbolTable
 70
1
  0
APPID
  5
231
100
AcDbSymbolTableRecord
100
AcDbRegAppTableRecord
  2
ACAD
 70
0
  0
ENDTAB
  0
TABLE
  2
BLOCK_RECORD
  5
1
100
AcDbSymbolTable
 70
0
  0
BLOCK_RECORD
  5
232
100
AcDbSymbolTableRecord
100
AcDbBlockTableRecord
  2
*Model_Space
  0
BLOCK_RECORD
  5
233
100
AcDbSymbolTableRecord
100
AcDbBlockTableRecord
  2
*Paper_Space
  0
BLOCK_RECORD
  5
234
100
AcDbSymbolTableRecord
100
AcDbBlockTableRecord
  2
_CLOSED
  0
ENDTAB
  0
TABLE
  2
DIMSTYLE
  5
A
100
AcDbSymbolTable
 70
1
100
AcDbDimStyleTable
 71
0
  0
ENDTAB
  0
ENDSEC
  0
SECTION
  2
BLOCKS
  0
BLOCK
  5
20
100
AcDbEntity
  8
0
100
AcDbBlockBegin
  2
*Model_Space
 70
0
 10
0.0
 20
0.0
 30
0.0
  3
*Model_Space
  1

  0
ENDBLK
  5
21
100
AcDbEntity
  8
0
100
AcDbBlockEnd
  0
BLOCK
  5
1C
100
AcDbEntity
  8
0
100
AcDbBlockBegin
  2
*Paper_Space
 70
0
 10
0.0
 20
0.0
 30
0.0
  3
*Paper_Space
  1

  0
ENDBLK
  5
1D
100
AcDbEntity
  8
0
100
AcDbBlockEnd
  0
BLOCK
  5
235
100
AcDbEntity
  8
0
100
AcDbBlockBegin
  2
_CLOSED
 70
64
 10
0.0
 20
0.0
  3
_CLOSED
  1

  0
LINE
  5
236
100
AcDbEntity
  8
0
  6
BYBLOCK
 62
0
100
AcDbLine
 10
0.0
 20
0.0
 11
-1.0
 21
0.1666666667
  0
LINE
  5
237
100
AcDbEntity
  8
0
  6
BYBLOCK
 62
0
100
AcDbLine
 10
-1.0
 20
0.1666666667
 11
-1.0
 21
-0.1666666667
  0
LINE
  5
238
100
AcDbEntity
  8
0
  6
BYBLOCK
 62
0
100
AcDbLine
 10
-1.0
 20
-0.1666666667
 11
0.0
 21
0.0
  0
LINE
  5
239
100
AcDbEntity
  8
0
  6
BYBLOCK
 62
0
100
AcDbLine
 10
-1.0
 20
0.0
 11
0.0
 21
0.0
  0
ENDBLK
  5
23A
100
AcDbEntity
  8
0
  6
BYBLOCK
 62
0
100
AcDbBlockEnd
  0
ENDSEC
  0
SECTION
  2
ENTITIES
  0
3DFACE
  5
23B
100
AcDbEntity
  8
1
100
AcDbFace
  6
CONTINUOUS
 10
-26.9402551933
 20
-2.4388349016
 30
0.0
 11
-28.0
 21
-2.0
 31
0.0
 12
-3.5597448067
 22
-2.4388349016
 32
0.0
 13
-26.9402551933
 23
-2.4388349016
 33
0.0
  0
3DFACE
  5
23C
100
AcDbEntity
  8
1
100
AcDbFace
  6
CONTINUOUS
 10
-28.0
 20
-2.0
 30
0.0
 11
-29.0597448067
 21
-2.4388349016
 31
0.0
 12
-30.5
 22
0.0
 32
0.0
 13
-28.0
 23
-2.0
 33
0.0
  0
3DFACE
  5
23D
100
AcDbEntity
  8
1
100
AcDbFace
  6
CONTINUOUS
 10
-28.0
 20
-2.0
 30
0.0
 11
-2.5
 21
-2.0
 31
0.0
 12
-3.5597448067
 22
-2.4388349016
 32
0.0
 13
-28.0
 23
-2.0
 33
0.0
  0
3DFACE
  5
23E
100
AcDbEntity
  8
1
100
AcDbFace
  6
CONTINUOUS
 10
-2.5
 20
-2.0
 30
0.0
 11
-28.0
 21
-2.0
 31
0.0
 12
-30.5
 22
0.0
 32
0.0
 13
-2.5
 23
-2.0
 33
0.0
  0
3DFACE
  5
23F
100
AcDbEntity
  8
1
100
AcDbFace
  6
CONTINUOUS
 10
-26.50051668
 20
-3.5
 30
0.0
 11
-26.9402551933
 21
-2.4388349016
 31
0.0
 12
-3.99948332
 22
-3.5
 32
0.0
 13
-26.50051668
 23
-3.5
 33
0.0
  0
3DFACE
  5
240
100
AcDbEntity
  8
1
100
AcDbFace
  6
CONTINUOUS
 10
-3.99948332
 20
-3.5
 30
0.0
 11
-26.9402551933
 21
-2.4388349016
 31
0.0
 12
-3.5597448067
 22
-2.4388349016
 32
0.0
 13
-3.99948332
 23
-3.5
 33
0.0
  0
3DFACE
  5
241
100
AcDbEntity
  8
1
100
AcDbFace
  6
CONTINUOUS
 10
-26.9402551933
 20
-4.5611650984
 30
0.0
 11
-26.50051668
 21
-3.5
 31
0.0
 12
-3.5597448067
 22
-4.5611650984
 32
0.0
 13
-26.9402551933
 23
-4.5611650984
 33
0.0
  0
3DFACE
  5
242
100
AcDbEntity
  8
1
100
AcDbFace
  6
CONTINUOUS
 10
-3.5597448067
 20
-4.5611650984
 30
0.0
 11
-26.50051668
 21
-3.5
 31
0.0
 12
-3.99948332
 22
-3.5
 32
0.0
 13
-3.5597448067
 23
-4.5611650984
 33
0.0
  0
3DFACE
  5
243
100
AcDbEntity
  8
1
100
AcDbFace
  6
CONTINUOUS
 10
-28.0
 20
-5.0
 30
0.0
 11
-26.9402551933
 21
-4.5611650984
 31
0.0
 12
-2.5
 22
-5.0
 32
0.0
 13
-28.0
 23
-5.0
 33
0.0
  0
3DFACE
  5
244
100
AcDbEntity
  8
1
100
AcDbFace
  6
CONTINUOUS
 10
-2.5
 20
-5.0
 30
0.0
 11
-26.9402551933
 21
-4.5611650984
 31
0.0
 12
-3.5597448067
 22
-4.5611650984
 32
0.0
 13
-2.5
 23
-5.0
 33
0.0
  0
3DFACE
  5
245
100
AcDbEntity
  8
1
100
AcDbFace
  6
CONTINUOUS
 10
-29.0597448067
 20
-4.5611650984
 30
0.0
 11
-28.0
 21
-5.0
 31
0.0
 12
-30.5
 22
-6.25
 32
0.0
 13
-29.0597448067
 23
-4.5611650984
 33
0.0
  0
3DFACE
  5
246
100
AcDbEntity
  8
1
100
AcDbFace
  6
CONTINUOUS
 10
-28.0
 20
-5.0
 30
0.0
 11
-2.5
 21
-5.0
 31
0.0
 12
0.0
 22
-6.25
 32
0.0
 13
-28.0
 23
-5.0
 33
0.0
  0
3DFACE
  5
247
100
AcDbEntity
  8
1
100
AcDbFace
  6
CONTINUOUS
 10
-30.5
 20
-6.25
 30
0.0
 11
-28.0
 21
-5.0
 31
0.0
 12
0.0
 22
-6.25
 32
0.0
 13
-30.5
 23
-6.25
 33
0.0
  0
3DFACE
  5
248
100
AcDbEntity
  8
1
100
AcDbFace
  6
CONTINUOUS
 10
-29.49948332
 20
-3.5
 30
0.0
 11
-29.0597448067
 21
-4.5611650984
 31
0.0
 12
-30.5
 22
-6.25
 32
0.0
 13
-29.49948332
 23
-3.5
 33
0.0
  0
3DFACE
  5
249
100
AcDbEntity
  8
1
100
AcDbFace
  6
CONTINUOUS
 10
-29.0597448067
 20
-2.4388349016
 30
0.0
 11
-29.49948332
 21
-3.5
 31
0.0
 12
-30.5
 22
0.0
 32
0.0
 13
-29.0597448067
 23
-2.4388349016
 33
0.0
  0
3DFACE
  5
24A
100
AcDbEntity
  8
1
100
AcDbFace
  6
CONTINUOUS
 10
-30.5
 20
0.0
 30
0.0
 11
-29.49948332
 21
-3.5
 31
0.0
 12
-30.5
 22
-6.25
 32
0.0
 13
-30.5
 23
0.0
 33
0.0
  0
3DFACE
  5
24B
100
AcDbEntity
  8
1
100
AcDbFace
  6
CONTINUOUS
 10
-1.4402551933
 20
-2.4388349016
 30
0.0
 11
-2.5
 21
-2.0
 31
0.0
 12
0.0
 22
0.0
 32
0.0
 13
-1.4402551933
 23
-2.4388349016
 33
0.0
  0
3DFACE
  5
24C
100
AcDbEntity
  8
1
100
AcDbFace
  6
CONTINUOUS
 10
0.0
 20
0.0
 30
0.0
 11
-2.5
 21
-2.0
 31
0.0
 12
-8.0902053837
 22
0.0
 32
0.0
 13
0.0
 23
0.0
 33
0.0
  0
3DFACE
  5
24D
100
AcDbEntity
  8
1
100
AcDbFace
  6
CONTINUOUS
 10
-2.5
 20
-2.0
 30
0.0
 11
-30.5
 21
0.0
 31
0.0
 12
-23.4999999986
 22
0.0
 32
0.0
 13
-2.5
 23
-2.0
 33
0.0
  0
3DFACE
  5
24E
100
AcDbEntity
  8
1
100
AcDbFace
  6
CONTINUOUS
 10
-8.0902053837
 20
0.0
 30
0.0
 11
-2.5
 21
-2.0
 31
0.0
 12
-23.4999999986
 22
0.0
 32
0.0
 13
-8.0902053837
 23
0.0
 33
0.0
  0
3DFACE
  5
24F
100
AcDbEntity
  8
1
100
AcDbFace
  6
CONTINUOUS
 10
-1.00051668
 20
-3.5
 30
0.0
 11
-1.4402551933
 21
-2.4388349016
 31
0.0
 12
0.0
 22
0.0
 32
0.0
 13
-1.00051668
 23
-3.5
 33
0.0
  0
3DFACE
  5
250
100
AcDbEntity
  8
1
100
AcDbFace
  6
CONTINUOUS
 10
-1.4402551933
 20
-4.5611650984
 30
0.0
 11
-1.00051668
 21
-3.5
 31
0.0
 12
0.0
 22
-6.25
 32
0.0
 13
-1.4402551933
 23
-4.5611650984
 33
0.0
  0
3DFACE
  5
251
100
AcDbEntity
  8
1
100
AcDbFace
  6
CONTINUOUS
 10
-1.00051668
 20
-3.5
 30
0.0
 11
0.0
 21
0.0
 31
0.0
 12
0.0
 22
-6.25
 32
0.0
 13
-1.00051668
 23
-3.5
 33
0.0
  0
3DFACE
  5
252
100
AcDbEntity
  8
1
100
AcDbFace
  6
CONTINUOUS
 10
-2.5
 20
-5.0
 30
0.0
 11
-1.4402551933
 21
-4.5611650984
 31
0.0
 12
0.0
 22
-6.25
 32
0.0
 13
-2.5
 23
-5.0
 33
0.0
  0
3DFACE
  5
253
100
AcDbEntity
  8
1
100
AcDbFace
  6
CONTINUOUS
 10
-26.9402551933
 20
17.0611650984
 30
0.0
 11
-28.0
 21
17.5
 31
0.0
 12
-3.5597448067
 22
17.0611650984
 32
0.0
 13
-26.9402551933
 23
17.0611650984
 33
0.0
  0
3DFACE
  5
254
100
AcDbEntity
  8
1
100
AcDbFace
  6
CONTINUOUS
 10
-28.0
 20
17.5
 30
0.0
 11
-29.0597448067
 21
17.0611650984
 31
0.0
 12
-30.5
 22
30.5
 32
0.0
 13
-28.0
 23
17.5
 33
0.0
  0
3DFACE
  5
255
100
AcDbEntity
  8
1
100
AcDbFace
  6
CONTINUOUS
 10
-28.0
 20
17.5
 30
0.0
 11
-2.5
 21
17.5
 31
0.0
 12
-3.5597448067
 22
17.0611650984
 32
0.0
 13
-28.0
 23
17.5
 33
0.0
  0
3DFACE
  5
256
100
AcDbEntity
  8
1
100
AcDbFace
  6
CONTINUOUS
 10
-2.5
 20
17.5
 30
0.0
 11
-28.0
 21
17.5
 31
0.0
 12
-23.0000000015
 22
22.5
 32
0.0
 13
-2.5
 23
17.5
 33
0.0
  0
3DFACE
  5
257
100
AcDbEntity
  8
1
100
AcDbFace
  6
CONTINUOUS
 10
-23.0000000015
 20
22.5
 30
0.0
 11
-28.0
 21
17.5
 31
0.0
 12
-24.7673666748
 22
23.2326333267
 32
0.0
 13
-23.0000000015
 23
22.5
 33
0.0
  0
3DFACE
  5
258
100
AcDbEntity
  8
1
100
AcDbFace
  6
CONTINUOUS
 10
-24.7673666748
 20
23.2326333267
 30
0.0
 11
-28.0
 21
17.5
 31
0.0
 12
-30.5
 22
30.5
 32
0.0
 13
-24.7673666748
 23
23.2326333267
 33
0.0
  0
3DFACE
  5
259
100
AcDbEntity
  8
1
100
AcDbFace
  6
CONTINUOUS
 10
-26.50051668
 20
16.0
 30
0.0
 11
-26.9402551933
 21
17.0611650984
 31
0.0
 12
-3.99948332
 22
16.0
 32
0.0
 13
-26.50051668
 23
16.0
 33
0.0
  0
3DFACE
  5
25A
100
AcDbEntity
  8
1
100
AcDbFace
  6
CONTINUOUS
 10
-3.99948332
 20
16.0
 30
0.0
 11
-26.9402551933
 21
17.0611650984
 31
0.0
 12
-3.5597448067
 22
17.0611650984
 32
0.0
 13
-3.99948332
 23
16.0
 33
0.0
  0
3DFACE
  5
25B
100
AcDbEntity
  8
1
100
AcDbFace
  6
CONTINUOUS
 10
-26.9402551933
 20
14.9388349016
 30
0.0
 11
-26.50051668
 21
16.0
 31
0.0
 12
-3.5597448067
 22
14.9388349016
 32
0.0
 13
-26.9402551933
 23
14.9388349016
 33
0.0
  0
3DFACE
  5
25C
100
AcDbEntity
  8
1
100
AcDbFace
  6
CONTINUOUS
 10
-3.5597448067
 20
14.9388349016
 30
0.0
 11
-26.50051668
 21
16.0
 31
0.0
 12
-3.99948332
 22
16.0
 32
0.0
 13
-3.5597448067
 23
14.9388349016
 33
0.0
  0
3DFACE
  5
25D
100
AcDbEntity
  8
1
100
AcDbFace
  6
CONTINUOUS
 10
-28.0
 20
14.5
 30
0.0
 11
-26.9402551933
 21
14.9388349016
 31
0.0
 12
-2.5
 22
14.5
 32
0.0
 13
-28.0
 23
14.5
 33
0.0
  0
3DFACE
  5
25E
100
AcDbEntity
  8
1
100
AcDbFace
  6
CONTINUOUS
 10
-2.5
 20
14.5
 30
0.0
 11
-26.9402551933
 21
14.9388349016
 31
0.0
 12
-3.5597448067
 22
14.9388349016
 32
0.0
 13
-2.5
 23
14.5
 33
0.0
  0
3DFACE
  5
25F
100
AcDbEntity
  8
1
100
AcDbFace
  6
CONTINUOUS
 10
-29.0597448067
 20
14.9388349016
 30
0.0
 11
-28.0
 21
14.5
 31
0.0
 12
-23.4999999986
 22
12.5
 32
0.0
 13
-29.0597448067
 23
14.9388349016
 33
0.0
  0
3DFACE
  5
260
100
AcDbEntity
  8
1
100
AcDbFace
  6
CONTINUOUS
 10
-28.0
 20
14.5
 30
0.0
 11
-2.5
 21
14.5
 31
0.0
 12
0.0
 22
12.5
 32
0.0
 13
-28.0
 23
14.5
 33
0.0
  0
3DFACE
  5
261
100
AcDbEntity
  8
1
100
AcDbFace
  6
CONTINUOUS
 10
-28.0
 20
14.5
 30
0.0
 11
0.0
 21
12.5
 31
0.0
 12
-6.9954622101
 22
12.5
 32
0.0
 13
-28.0
 23
14.5
 33
0.0
  0
3DFACE
  5
262
100
AcDbEntity
  8
1
100
AcDbFace
  6
CONTINUOUS
 10
-23.4999999986
 20
12.5
 30
0.0
 11
-28.0
 21
14.5
 31
0.0
 12
-6.9954622101
 22
12.5
 32
0.0
 13
-23.4999999986
 23
12.5
 33
0.0
  0
3DFACE
  5
263
100
AcDbEntity
  8
1
100
AcDbFace
  6
CONTINUOUS
 10
-29.49948332
 20
16.0
 30
0.0
 11
-29.0597448067
 21
14.9388349016
 31
0.0
 12
-30.5
 22
12.5
 32
0.0
 13
-29.49948332
 23
16.0
 33
0.0
  0
3DFACE
  5
264
100
AcDbEntity
  8
1
100
AcDbFace
  6
CONTINUOUS
 10
-30.5
 20
12.5
 30
0.0
 11
-29.0597448067
 21
14.9388349016
 31
0.0
 12
-23.4999999986
 22
12.5
 32
0.0
 13
-30.5
 23
12.5
 33
0.0
  0
3DFACE
  5
265
100
AcDbEntity
  8
1
100
AcDbFace
  6
CONTINUOUS
 10
-29.0597448067
 20
17.0611650984
 30
0.0
 11
-29.49948332
 21
16.0
 31
0.0
 12
-30.5
 22
30.5
 32
0.0
 13
-29.0597448067
 23
17.0611650984
 33
0.0
  0
3DFACE
  5
266
100
AcDbEntity
  8
1
100
AcDbFace
  6
CONTINUOUS
 10
-30.5
 20
30.5
 30
0.0
 11
-29.49948332
 21
16.0
 31
0.0
 12
-30.5
 22
12.5
 32
0.0
 13
-30.5
 23
30.5
 33
0.0
  0
3DFACE
  5
267
100
AcDbEntity
  8
1
100
AcDbFace
  6
CONTINUOUS
 10
-1.4402551933
 20
17.0611650984
 30
0.0
 11
-2.5
 21
17.5
 31
0.0
 12
-13.5000000015
 22
22.5
 32
0.0
 13
-1.4402551933
 23
17.0611650984
 33
0.0
  0
3DFACE
  5
268
100
AcDbEntity
  8
1
100
AcDbFace
  6
CONTINUOUS
 10
-13.5000000015
 20
22.5
 30
0.0
 11
-2.5
 21
17.5
 31
0.0
 12
-23.0000000015
 22
22.5
 32
0.0
 13
-13.5000000015
 23
22.5
 33
0.0
  0
3DFACE
  5
269
100
AcDbEntity
  8
1
100
AcDbFace
  6
CONTINUOUS
 10
-1.00051668
 20
16.0
 30
0.0
 11
-1.4402551933
 21
17.0611650984
 31
0.0
 12
0.0
 22
26.2226792653
 32
0.0
 13
-1.00051668
 23
16.0
 33
0.0
  0
3DFACE
  5
26A
100
AcDbEntity
  8
1
100
AcDbFace
  6
CONTINUOUS
 10
-11.0000000015
 20
25.0
 30
0.0
 11
-1.4402551933
 21
17.0611650984
 31
0.0
 12
-11.7326333281
 22
23.2326333267
 32
0.0
 13
-11.0000000015
 23
25.0
 33
0.0
  0
3DFACE
  5
26B
100
AcDbEntity
  8
1
100
AcDbFace
  6
CONTINUOUS
 10
-1.4402551933
 20
17.0611650984
 30
0.0
 11
-11.0000000015
 21
25.0
 31
0.0
 12
0.0
 22
26.2226792653
 32
0.0
 13
-1.4402551933
 23
17.0611650984
 33
0.0
  0
3DFACE
  5
26C
100
AcDbEntity
  8
1
100
AcDbFace
  6
CONTINUOUS
 10
-11.7326333281
 20
23.2326333267
 30
0.0
 11
-1.4402551933
 21
17.0611650984
 31
0.0
 12
-13.5000000015
 22
22.5
 32
0.0
 13
-11.7326333281
 23
23.2326333267
 33
0.0
  0
3DFACE
  5
26D
100
AcDbEntity
  8
1
100
AcDbFace
  6
CONTINUOUS
 10
-1.4402551933
 20
14.9388349016
 30
0.0
 11
-1.00051668
 21
16.0
 31
0.0
 12
0.0
 22
12.5
 32
0.0
 13
-1.4402551933
 23
14.9388349016
 33
0.0
  0
3DFACE
  5
26E
100
AcDbEntity
  8
1
100
AcDbFace
  6
CONTINUOUS
 10
0.0
 20
12.5
 30
0.0
 11
-1.00051668
 21
16.0
 31
0.0
 12
0.0
 22
26.2226792653
 32
0.0
 13
0.0
 23
12.5
 33
0.0
  0
3DFACE
  5
26F
100
AcDbEntity
  8
1
100
AcDbFace
  6
CONTINUOUS
 10
-2.5
 20
14.5
 30
0.0
 11
-1.4402551933
 21
14.9388349016
 31
0.0
 12
0.0
 22
12.5
 32
0.0
 13
-2.5
 23
14.5
 33
0.0
  0
3DFACE
  5
270
100
AcDbEntity
  8
1
100
AcDbFace
  6
CONTINUOUS
 10
-11.7326333281
 20
26.7673666733
 30
0.0
 11
-13.5000000015
 21
27.5
 31
0.0
 12
-0.1425070743
 22
26.7371750207
 32
0.0
 13
-11.7326333281
 23
26.7673666733
 33
0.0
  0
3DFACE
  5
271
100
AcDbEntity
  8
1
100
AcDbFace
  6
CONTINUOUS
 10
-13.5000000015
 20
27.5
 30
0.0
 11
-15.2673666748
 21
26.7673666733
 31
0.0
 12
-23.0000000015
 22
27.5
 32
0.0
 13
-13.5000000015
 23
27.5
 33
0.0
  0
3DFACE
  5
272
100
AcDbEntity
  8
1
100
AcDbFace
  6
CONTINUOUS
 10
-13.5000000015
 20
27.5
 30
0.0
 11
-23.0000000015
 21
27.5
 31
0.0
 12
-30.5
 22
30.5
 32
0.0
 13
-13.5000000015
 23
27.5
 33
0.0
  0
3DFACE
  5
273
100
AcDbEntity
  8
1
100
AcDbFace
  6
CONTINUOUS
 10
-0.1425070743
 20
26.7371750207
 30
0.0
 11
-13.5000000015
 21
27.5
 31
0.0
 12
-0.7282563669
 22
27.7134238417
 32
0.0
 13
-0.1425070743
 23
26.7371750207
 33
0.0
  0
3DFACE
  5
274
100
AcDbEntity
  8
1
100
AcDbFace
  6
CONTINUOUS
 10
-0.7282563669
 20
27.7134238417
 30
0.0
 11
-13.5000000015
 21
27.5
 31
0.0
 12
-30.5
 22
30.5
 32
0.0
 13
-0.7282563669
 23
27.7134238417
 33
0.0
  0
3DFACE
  5
275
100
AcDbEntity
  8
1
100
AcDbFace
  6
CONTINUOUS
 10
-11.0000000015
 20
25.0
 30
0.0
 11
-11.7326333281
 21
26.7673666733
 31
0.0
 12
0.0
 22
26.2226792653
 32
0.0
 13
-11.0000000015
 23
25.0
 33
0.0
  0
3DFACE
  5
276
100
AcDbEntity
  8
1
100
AcDbFace
  6
CONTINUOUS
 10
0.0
 20
26.2226792653
 30
0.0
 11
-11.7326333281
 21
26.7673666733
 31
0.0
 12
-0.0363087923
 22
26.489606277
 32
0.0
 13
0.0
 23
26.2226792653
 33
0.0
  0
3DFACE
  5
277
100
AcDbEntity
  8
1
100
AcDbFace
  6
CONTINUOUS
 10
-0.0363087923
 20
26.489606277
 30
0.0
 11
-11.7326333281
 21
26.7673666733
 31
0.0
 12
-0.1425070743
 22
26.7371750207
 32
0.0
 13
-0.0363087923
 23
26.489606277
 33
0.0
  0
3DFACE
  5
278
100
AcDbEntity
  8
1
100
AcDbFace
  6
CONTINUOUS
 10
-15.2673666748
 20
23.2326333267
 30
0.0
 11
-13.5000000015
 21
22.5
 31
0.0
 12
-21.2326333281
 22
23.2326333267
 32
0.0
 13
-15.2673666748
 23
23.2326333267
 33
0.0
  0
3DFACE
  5
279
100
AcDbEntity
  8
1
100
AcDbFace
  6
CONTINUOUS
 10
-21.2326333281
 20
23.2326333267
 30
0.0
 11
-13.5000000015
 21
22.5
 31
0.0
 12
-23.0000000015
 22
22.5
 32
0.0
 13
-21.2326333281
 23
23.2326333267
 33
0.0
  0
3DFACE
  5
27A
100
AcDbEntity
  8
1
100
AcDbFace
  6
CONTINUOUS
 10
-16.0000000015
 20
25.0
 30
0.0
 11
-15.2673666748
 21
23.2326333267
 31
0.0
 12
-20.5000000015
 22
25.0
 32
0.0
 13
-16.0000000015
 23
25.0
 33
0.0
  0
3DFACE
  5
27B
100
AcDbEntity
  8
1
100
AcDbFace
  6
CONTINUOUS
 10
-20.5000000015
 20
25.0
 30
0.0
 11
-15.2673666748
 21
23.2326333267
 31
0.0
 12
-21.2326333281
 22
23.2326333267
 32
0.0
 13
-20.5000000015
 23
25.0
 33
0.0
  0
3DFACE
  5
27C
100
AcDbEntity
  8
1
100
AcDbFace
  6
CONTINUOUS
 10
-15.2673666748
 20
26.7673666733
 30
0.0
 11
-16.0000000015
 21
25.0
 31
0.0
 12
-21.2326333281
 22
26.7673666733
 32
0.0
 13
-15.2673666748
 23
26.7673666733
 33
0.0
  0
3DFACE
  5
27D
100
AcDbEntity
  8
1
100
AcDbFace
  6
CONTINUOUS
 10
-21.2326333281
 20
26.7673666733
 30
0.0
 11
-16.0000000015
 21
25.0
 31
0.0
 12
-20.5000000015
 22
25.0
 32
0.0
 13
-21.2326333281
 23
26.7673666733
 33
0.0
  0
3DFACE
  5
27E
100
AcDbEntity
  8
1
100
AcDbFace
  6
CONTINUOUS
 10
-23.0000000015
 20
27.5
 30
0.0
 11
-15.2673666748
 21
26.7673666733
 31
0.0
 12
-21.2326333281
 22
26.7673666733
 32
0.0
 13
-23.0000000015
 23
27.5
 33
0.0
  0
3DFACE
  5
27F
100
AcDbEntity
  8
1
100
AcDbFace
  6
CONTINUOUS
 10
-23.0000000015
 20
27.5
 30
0.0
 11
-24.7673666748
 21
26.7673666733
 31
0.0
 12
-30.5
 22
30.5
 32
0.0
 13
-23.0000000015
 23
27.5
 33
0.0
  0
3DFACE
  5
280
100
AcDbEntity
  8
1
100
AcDbFace
  6
CONTINUOUS
 10
-25.5000000015
 20
25.0
 30
0.0
 11
-24.7673666748
 21
23.2326333267
 31
0.0
 12
-30.5
 22
30.5
 32
0.0
 13
-25.5000000015
 23
25.0
 33
0.0
  0
3DFACE
  5
281
100
AcDbEntity
  8
1
100
AcDbFace
  6
CONTINUOUS
 10
-24.7673666748
 20
26.7673666733
 30
0.0
 11
-25.5000000015
 21
25.0
 31
0.0
 12
-30.5
 22
30.5
 32
0.0
 13
-24.7673666748
 23
26.7673666733
 33
0.0
  0
3DFACE
  5
282
100
AcDbEntity
  8
1
100
AcDbFace
  6
CONTINUOUS
 10
0.0
 20
12.5
 30
0.0
 11
0.0
 21
0.0
 31
0.0
 12
-6.2554765096
 22
12.1726226008
 32
0.0
 13
0.0
 23
12.5
 33
0.0
  0
3DFACE
  5
283
100
AcDbEntity
  8
1
100
AcDbFace
  6
CONTINUOUS
 10
-6.9950477098
 20
0.9954622128
 30
0.0
 11
0.0
 21
0.0
 31
0.0
 12
-7.3502196832
 22
0.2860547108
 32
0.0
 13
-6.9950477098
 23
0.9954622128
 33
0.0
  0
3DFACE
  5
284
100
AcDbEntity
  8
1
100
AcDbFace
  6
CONTINUOUS
 10
0.0
 20
0.0
 30
0.0
 11
-6.9950477098
 21
0.9954622128
 31
0.0
 12
-5.9999999973
 22
11.4048423262
 32
0.0
 13
0.0
 23
0.0
 33
0.0
  0
3DFACE
  5
285
100
AcDbEntity
  8
1
100
AcDbFace
  6
CONTINUOUS
 10
-7.3502196832
 20
0.2860547108
 30
0.0
 11
0.0
 21
0.0
 31
0.0
 12
-8.0902053837
 22
0.0
 32
0.0
 13
-7.3502196832
 23
0.2860547108
 33
0.0
  0
3DFACE
  5
286
100
AcDbEntity
  8
1
100
AcDbFace
  6
CONTINUOUS
 10
-6.2554765096
 20
12.1726226008
 30
0.0
 11
0.0
 21
0.0
 31
0.0
 12
-5.9999999973
 22
11.4048423262
 32
0.0
 13
-6.2554765096
 23
12.1726226008
 33
0.0
  0
3DFACE
  5
287
100
AcDbEntity
  8
1
100
AcDbFace
  6
CONTINUOUS
 10
-6.9954622101
 20
12.5
 30
0.0
 11
0.0
 21
12.5
 31
0.0
 12
-6.2554765096
 22
12.1726226008
 32
0.0
 13
-6.9954622101
 23
12.5
 33
0.0
  0
3DFACE
  5
288
100
AcDbEntity
  8
1
100
AcDbFace
  6
CONTINUOUS
 10
-1.0835474632
 20
28.9996632303
 30
0.0
 11
-0.7282563669
 21
27.7134238417
 31
0.0
 12
-30.5
 22
30.5
 32
0.0
 13
-1.0835474632
 23
28.9996632303
 33
0.0
  0
3DFACE
  5
289
100
AcDbEntity
  8
1
100
AcDbFace
  6
CONTINUOUS
 10
-0.7282563669
 20
30.2859026188
 30
0.0
 11
-1.0835474632
 21
28.9996632303
 31
0.0
 12
-30.5
 22
30.5
 32
0.0
 13
-0.7282563669
 23
30.2859026188
 33
0.0
  0
3DFACE
  5
28A
100
AcDbEntity
  8
1
100
AcDbFace
  6
CONTINUOUS
 10
-0.1425070743
 20
31.2621514398
 30
0.0
 11
-0.7282563669
 21
30.2859026188
 31
0.0
 12
-6.0984633856
 22
31.1339512531
 32
0.0
 13
-0.1425070743
 23
31.2621514398
 33
0.0
  0
3DFACE
  5
28B
100
AcDbEntity
  8
1
100
AcDbFace
  6
CONTINUOUS
 10
-0.7282563669
 20
30.2859026188
 30
0.0
 11
-30.5
 21
30.5
 31
0.0
 12
-6.7204045408
 22
30.5039153514
 32
0.0
 13
-0.7282563669
 23
30.2859026188
 33
0.0
  0
3DFACE
  5
28C
100
AcDbEntity
  8
1
100
AcDbFace
  6
CONTINUOUS
 10
-6.0984633856
 20
31.1339512531
 30
0.0
 11
-0.7282563669
 21
30.2859026188
 31
0.0
 12
-6.2773212431
 22
30.6885179759
 32
0.0
 13
-6.0984633856
 23
31.1339512531
 33
0.0
  0
3DFACE
  5
28D
100
AcDbEntity
  8
1
100
AcDbFace
  6
CONTINUOUS
 10
-6.2773212431
 20
30.6885179759
 30
0.0
 11
-0.7282563669
 21
30.2859026188
 31
0.0
 12
-6.7204045408
 22
30.5039153514
 32
0.0
 13
-6.2773212431
 23
30.6885179759
 33
0.0
  0
3DFACE
  5
28E
100
AcDbEntity
  8
1
100
AcDbFace
  6
CONTINUOUS
 10
-0.0363087923
 20
31.5097201835
 30
0.0
 11
-0.1425070743
 21
31.2621514398
 31
0.0
 12
-6.4243636593
 22
35.1191854765
 32
0.0
 13
-0.0363087923
 23
31.5097201835
 33
0.0
  0
3DFACE
  5
28F
100
AcDbEntity
  8
1
100
AcDbFace
  6
CONTINUOUS
 10
-6.4243636593
 20
35.1191854765
 30
0.0
 11
-0.1425070743
 21
31.2621514398
 31
0.0
 12
-6.0984633856
 22
31.1339512531
 32
0.0
 13
-6.4243636593
 23
35.1191854765
 33
0.0
  0
3DFACE
  5
290
100
AcDbEntity
  8
1
100
AcDbFace
  6
CONTINUOUS
 10
-0.0
 20
31.7766471952
 30
0.0
 11
-0.0363087923
 21
31.5097201835
 31
0.0
 12
-6.4243636593
 22
35.1191854765
 32
0.0
 13
-0.0
 23
31.7766471952
 33
0.0
  0
3DFACE
  5
291
100
AcDbEntity
  8
1
100
AcDbFace
  6
CONTINUOUS
 10
-0.0
 20
33.1519062928
 30
0.0
 11
-0.0
 21
31.7766471952
 31
0.0
 12
-6.4243636593
 22
35.1191854765
 32
0.0
 13
-0.0
 23
33.1519062928
 33
0.0
  0
3DFACE
  5
292
100
AcDbEntity
  8
1
100
AcDbFace
  6
CONTINUOUS
 10
0.0
 20
33.5000000015
 30
0.0
 11
-0.0
 21
33.1519062928
 31
0.0
 12
-6.4243636593
 22
35.1191854765
 32
0.0
 13
0.0
 23
33.5000000015
 33
0.0
  0
3DFACE
  5
293
100
AcDbEntity
  8
1
100
AcDbFace
  6
CONTINUOUS
 10
-1.1181805507
 20
38.9930224255
 30
0.0
 11
0.0
 21
33.5000000015
 31
0.0
 12
-6.4243636593
 22
35.1191854765
 32
0.0
 13
-1.1181805507
 23
38.9930224255
 33
0.0
  0
3DFACE
  5
294
100
AcDbEntity
  8
1
100
AcDbFace
  6
CONTINUOUS
 10
-4.2947551794
 20
43.6117881397
 30
0.0
 11
-1.1181805507
 21
38.9930224255
 31
0.0
 12
-16.1818236679
 22
41.1243998122
 32
0.0
 13
-4.2947551794
 23
43.6117881397
 33
0.0
  0
3DFACE
  5
295
100
AcDbEntity
  8
1
100
AcDbFace
  6
CONTINUOUS
 10
-16.1818236679
 20
41.1243998122
 30
0.0
 11
-1.1181805507
 21
38.9930224255
 31
0.0
 12
-16.30570664
 22
40.8622005139
 32
0.0
 13
-16.1818236679
 23
41.1243998122
 33
0.0
  0
3DFACE
  5
296
100
AcDbEntity
  8
1
100
AcDbFace
  6
CONTINUOUS
 10
-16.30570664
 20
40.8622005139
 30
0.0
 11
-1.1181805507
 21
38.9930224255
 31
0.0
 12
-16.5297775755
 22
40.6781144507
 32
0.0
 13
-16.30570664
 23
40.8622005139
 33
0.0
  0
3DFACE
  5
297
100
AcDbEntity
  8
1
100
AcDbFace
  6
CONTINUOUS
 10
-16.5297775755
 20
40.6781144507
 30
0.0
 11
-1.1181805507
 21
38.9930224255
 31
0.0
 12
-7.6746414705
 22
39.5657995121
 32
0.0
 13
-16.5297775755
 23
40.6781144507
 33
0.0
  0
3DFACE
  5
298
100
AcDbEntity
  8
1
100
AcDbFace
  6
CONTINUOUS
 10
-7.6746414705
 20
39.5657995121
 30
0.0
 11
-1.1181805507
 21
38.9930224255
 31
0.0
 12
-7.2402292344
 22
39.0336032068
 32
0.0
 13
-7.6746414705
 23
39.5657995121
 33
0.0
  0
3DFACE
  5
299
100
AcDbEntity
  8
1
100
AcDbFace
  6
CONTINUOUS
 10
-7.2402292344
 20
39.0336032068
 30
0.0
 11
-1.1181805507
 21
38.9930224255
 31
0.0
 12
-6.4243636593
 22
35.1191854765
 32
0.0
 13
-7.2402292344
 23
39.0336032068
 33
0.0
  0
3DFACE
  5
29A
100
AcDbEntity
  8
1
100
AcDbFace
  6
CONTINUOUS
 10
-9.0241476354
 20
46.6211851046
 30
0.0
 11
-4.2947551794
 21
43.6117881397
 31
0.0
 12
-14.7925573503
 22
47.3436896124
 32
0.0
 13
-9.0241476354
 23
46.6211851046
 33
0.0
  0
3DFACE
  5
29B
100
AcDbEntity
  8
1
100
AcDbFace
  6
CONTINUOUS
 10
-14.7925573503
 20
47.3436896124
 30
0.0
 11
-4.2947551794
 21
43.6117881397
 31
0.0
 12
-16.1818236679
 22
41.1243998122
 32
0.0
 13
-14.7925573503
 23
47.3436896124
 33
0.0
  0
3DFACE
  5
29C
100
AcDbEntity
  8
1
100
AcDbFace
  6
CONTINUOUS
 10
-14.5536387834
 20
47.5422446785
 30
0.0
 11
-9.0241476354
 21
46.6211851046
 31
0.0
 12
-14.7068333197
 22
47.4835603089
 32
0.0
 13
-14.5536387834
 23
47.5422446785
 33
0.0
  0
3DFACE
  5
29D
100
AcDbEntity
  8
1
100
AcDbFace
  6
CONTINUOUS
 10
-14.7068333197
 20
47.4835603089
 30
0.0
 11
-9.0241476354
 21
46.6211851046
 31
0.0
 12
-14.7925573503
 22
47.3436896124
 32
0.0
 13
-14.7068333197
 23
47.4835603089
 33
0.0
  0
3DFACE
  5
29E
100
AcDbEntity
  8
1
100
AcDbFace
  6
CONTINUOUS
 10
-29.3348640335
 20
34.2357840187
 30
0.0
 11
-16.5297775755
 21
40.6781144507
 31
0.0
 12
-8.3606985517
 22
39.6014727459
 32
0.0
 13
-29.3348640335
 23
34.2357840187
 33
0.0
  0
3DFACE
  5
29F
100
AcDbEntity
  8
1
100
AcDbFace
  6
CONTINUOUS
 10
-8.3606985517
 20
39.6014727459
 30
0.0
 11
-16.5297775755
 21
40.6781144507
 31
0.0
 12
-7.6746414705
 22
39.5657995121
 32
0.0
 13
-8.3606985517
 23
39.6014727459
 33
0.0
  0
3DFACE
  5
2A0
100
AcDbEntity
  8
1
100
AcDbFace
  6
CONTINUOUS
 10
-30.1887778717
 20
33.3284527393
 30
0.0
 11
-29.3348640335
 21
34.2357840187
 31
0.0
 12
-24.0002388621
 22
33.6219869584
 32
0.0
 13
-30.1887778717
 23
33.3284527393
 33
0.0
  0
3DFACE
  5
2A1
100
AcDbEntity
  8
1
100
AcDbFace
  6
CONTINUOUS
 10
-24.0002388621
 20
33.6219869584
 30
0.0
 11
-29.3348640335
 21
34.2357840187
 31
0.0
 12
-8.3606985517
 22
39.6014727459
 32
0.0
 13
-24.0002388621
 23
33.6219869584
 33
0.0
  0
3DFACE
  5
2A2
100
AcDbEntity
  8
1
100
AcDbFace
  6
CONTINUOUS
 10
-30.5
 20
32.1219869584
 30
0.0
 11
-30.1887778717
 21
33.3284527393
 31
0.0
 12
-25.4346945273
 22
33.0735496583
 32
0.0
 13
-30.5
 23
32.1219869584
 33
0.0
  0
3DFACE
  5
2A3
100
AcDbEntity
  8
1
100
AcDbFace
  6
CONTINUOUS
 10
-25.4346945273
 20
33.0735496583
 30
0.0
 11
-30.1887778717
 21
33.3284527393
 31
0.0
 12
-24.0002388621
 22
33.6219869584
 32
0.0
 13
-25.4346945273
 23
33.0735496583
 33
0.0
  0
3DFACE
  5
2A4
100
AcDbEntity
  8
1
100
AcDbFace
  6
CONTINUOUS
 10
-30.5
 20
30.5
 30
0.0
 11
-30.5
 21
32.1219869584
 31
0.0
 12
-24.3361708168
 22
30.6219872921
 32
0.0
 13
-30.5
 23
30.5
 33
0.0
  0
3DFACE
  5
2A5
100
AcDbEntity
  8
1
100
AcDbFace
  6
CONTINUOUS
 10
-24.3361708168
 20
30.6219872921
 30
0.0
 11
-30.5
 21
32.1219869584
 31
0.0
 12
-25.3796252113
 22
31.0145116398
 32
0.0
 13
-24.3361708168
 23
30.6219872921
 33
0.0
  0
3DFACE
  5
2A6
100
AcDbEntity
  8
1
100
AcDbFace
  6
CONTINUOUS
 10
-25.3796252113
 20
31.0145116398
 30
0.0
 11
-30.5
 21
32.1219869584
 31
0.0
 12
-25.8362400054
 22
32.0335334729
 32
0.0
 13
-25.3796252113
 23
31.0145116398
 33
0.0
  0
3DFACE
  5
2A7
100
AcDbEntity
  8
1
100
AcDbFace
  6
CONTINUOUS
 10
-25.8362400054
 20
32.0335334729
 30
0.0
 11
-30.5
 21
32.1219869584
 31
0.0
 12
-25.4346945273
 22
33.0735496583
 32
0.0
 13
-25.8362400054
 23
32.0335334729
 33
0.0
  0
3DFACE
  5
2A8
100
AcDbEntity
  8
1
100
AcDbFace
  6
CONTINUOUS
 10
-30.5
 20
30.5
 30
0.0
 11
-24.3361708168
 21
30.6219872921
 31
0.0
 12
-6.7204045408
 22
30.5039153514
 32
0.0
 13
-30.5
 23
30.5
 33
0.0
  0
3DFACE
  5
2A9
100
AcDbEntity
  8
1
100
AcDbFace
  6
CONTINUOUS
 10
-30.5
 20
0.0
 30
0.0
 11
-30.5
 21
12.5
 31
0.0
 12
-24.2071067797
 22
0.2928932188
 32
0.0
 13
-30.5
 23
0.0
 33
0.0
  0
3DFACE
  5
2AA
100
AcDbEntity
  8
1
100
AcDbFace
  6
CONTINUOUS
 10
-24.2071067797
 20
0.2928932188
 30
0.0
 11
-30.5
 21
12.5
 31
0.0
 12
-24.4999999986
 22
1.0
 32
0.0
 13
-24.2071067797
 23
0.2928932188
 33
0.0
  0
3DFACE
  5
2AB
100
AcDbEntity
  8
1
100
AcDbFace
  6
CONTINUOUS
 10
-24.4999999986
 20
1.0
 30
0.0
 11
-30.5
 21
12.5
 31
0.0
 12
-24.4999999986
 22
11.5
 32
0.0
 13
-24.4999999986
 23
1.0
 33
0.0
  0
3DFACE
  5
2AC
100
AcDbEntity
  8
1
100
AcDbFace
  6
CONTINUOUS
 10
-24.4999999986
 20
11.5
 30
0.0
 11
-30.5
 21
12.5
 31
0.0
 12
-24.2071067797
 22
12.2071067812
 32
0.0
 13
-24.4999999986
 23
11.5
 33
0.0
  0
3DFACE
  5
2AD
100
AcDbEntity
  8
1
100
AcDbFace
  6
CONTINUOUS
 10
-24.2071067797
 20
12.2071067812
 30
0.0
 11
-30.5
 21
12.5
 31
0.0
 12
-23.4999999986
 22
12.5
 32
0.0
 13
-24.2071067797
 23
12.2071067812
 33
0.0
  0
3DFACE
  5
2AE
100
AcDbEntity
  8
1
100
AcDbFace
  6
CONTINUOUS
 10
-23.4999999986
 20
0.0
 30
0.0
 11
-30.5
 21
0.0
 31
0.0
 12
-24.2071067797
 22
0.2928932188
 32
0.0
 13
-23.4999999986
 23
0.0
 33
0.0
  0
3DFACE
  5
2AF
100
AcDbEntity
  8
1
100
AcDbFace
  6
CONTINUOUS
 10
-30.4264723224
 20
-6.4264723224
 30
0.0
 11
-30.5
 21
-6.25
 31
0.0
 12
-0.0735276776
 22
-6.4264723224
 32
0.0
 13
-30.4264723224
 23
-6.4264723224
 33
0.0
  0
3DFACE
  5
2B0
100
AcDbEntity
  8
1
100
AcDbFace
  6
CONTINUOUS
 10
-0.0735276776
 20
-6.4264723224
 30
0.0
 11
-30.5
 21
-6.25
 31
0.0
 12
0.0
 22
-6.25
 32
0.0
 13
-0.0735276776
 23
-6.4264723224
 33
0.0
  0
3DFACE
  5
2B1
100
AcDbEntity
  8
1
100
AcDbFace
  6
CONTINUOUS
 10
-30.25
 20
-6.5
 30
0.0
 11
-30.4264723224
 21
-6.4264723224
 31
0.0
 12
-0.25
 22
-6.5
 32
0.0
 13
-30.25
 23
-6.5
 33
0.0
  0
3DFACE
  5
2B2
100
AcDbEntity
  8
1
100
AcDbFace
  6
CONTINUOUS
 10
-0.25
 20
-6.5
 30
0.0
 11
-30.4264723224
 21
-6.4264723224
 31
0.0
 12
-0.0735276776
 22
-6.4264723224
 32
0.0
 13
-0.25
 23
-6.5
 33
0.0
  0
3DFACE
  5
2B3
100
AcDbEntity
  8
2
100
AcDbFace
  6
CONTINUOUS
 10
-29.0597448067
 20
-2.4388349016
 30
2.5
 11
-28.0
 21
-2.0
 31
2.5
 12
-23.4999999986
 22
0.0
 32
2.5
 13
-29.0597448067
 23
-2.4388349016
 33
2.5
  0
3DFACE
  5
2B4
100
AcDbEntity
  8
2
100
AcDbFace
  6
CONTINUOUS
 10
-28.0
 20
-2.0
 30
2.5
 11
-26.9402551933
 21
-2.4388349016
 31
2.5
 12
-2.5
 22
-2.0
 32
2.5
 13
-28.0
 23
-2.0
 33
2.5
  0
3DFACE
  5
2B5
100
AcDbEntity
  8
2
100
AcDbFace
  6
CONTINUOUS
 10
-28.0
 20
-2.0
 30
2.5
 11
-2.5
 21
-2.0
 31
2.5
 12
0.0
 22
0.0
 32
2.5
 13
-28.0
 23
-2.0
 33
2.5
  0
3DFACE
  5
2B6
100
AcDbEntity
  8
2
100
AcDbFace
  6
CONTINUOUS
 10
-28.0
 20
-2.0
 30
2.5
 11
0.0
 21
0.0
 31
2.5
 12
-8.0902053837
 22
0.0
 32
2.5
 13
-28.0
 23
-2.0
 33
2.5
  0
3DFACE
  5
2B7
100
AcDbEntity
  8
2
100
AcDbFace
  6
CONTINUOUS
 10
-23.4999999986
 20
0.0
 30
2.5
 11
-28.0
 21
-2.0
 31
2.5
 12
-8.0902053837
 22
0.0
 32
2.5
 13
-23.4999999986
 23
0.0
 33
2.5
  0
3DFACE
  5
2B8
100
AcDbEntity
  8
2
100
AcDbFace
  6
CONTINUOUS
 10
-29.49948332
 20
-3.5
 30
2.5
 11
-29.0597448067
 21
-2.4388349016
 31
2.5
 12
-30.5
 22
0.0
 32
2.5
 13
-29.49948332
 23
-3.5
 33
2.5
  0
3DFACE
  5
2B9
100
AcDbEntity
  8
2
100
AcDbFace
  6
CONTINUOUS
 10
-30.5
 20
0.0
 30
2.5
 11
-29.0597448067
 21
-2.4388349016
 31
2.5
 12
-23.4999999986
 22
0.0
 32
2.5
 13
-30.5
 23
0.0
 33
2.5
  0
3DFACE
  5
2BA
100
AcDbEntity
  8
2
100
AcDbFace
  6
CONTINUOUS
 10
-29.0597448067
 20
-4.5611650984
 30
2.5
 11
-29.49948332
 21
-3.5
 31
2.5
 12
-30.5
 22
-6.25
 32
2.5
 13
-29.0597448067
 23
-4.5611650984
 33
2.5
  0
3DFACE
  5
2BB
100
AcDbEntity
  8
2
100
AcDbFace
  6
CONTINUOUS
 10
-30.5
 20
-6.25
 30
2.5
 11
-29.49948332
 21
-3.5
 31
2.5
 12
-30.5
 22
0.0
 32
2.5
 13
-30.5
 23
-6.25
 33
2.5
  0
3DFACE
  5
2BC
100
AcDbEntity
  8
2
100
AcDbFace
  6
CONTINUOUS
 10
-28.0
 20
-5.0
 30
2.5
 11
-29.0597448067
 21
-4.5611650984
 31
2.5
 12
-30.5
 22
-6.25
 32
2.5
 13
-28.0
 23
-5.0
 33
2.5
  0
3DFACE
  5
2BD
100
AcDbEntity
  8
2
100
AcDbFace
  6
CONTINUOUS
 10
-26.9402551933
 20
-4.5611650984
 30
2.5
 11
-28.0
 21
-5.0
 31
2.5
 12
-3.5597448067
 22
-4.5611650984
 32
2.5
 13
-26.9402551933
 23
-4.5611650984
 33
2.5
  0
3DFACE
  5
2BE
100
AcDbEntity
  8
2
100
AcDbFace
  6
CONTINUOUS
 10
-3.5597448067
 20
-4.5611650984
 30
2.5
 11
-28.0
 21
-5.0
 31
2.5
 12
-2.5
 22
-5.0
 32
2.5
 13
-3.5597448067
 23
-4.5611650984
 33
2.5
  0
3DFACE
  5
2BF
100
AcDbEntity
  8
2
100
AcDbFace
  6
CONTINUOUS
 10
-2.5
 20
-5.0
 30
2.5
 11
-28.0
 21
-5.0
 31
2.5
 12
-30.5
 22
-6.25
 32
2.5
 13
-2.5
 23
-5.0
 33
2.5
  0
3DFACE
  5
2C0
100
AcDbEntity
  8
2
100
AcDbFace
  6
CONTINUOUS
 10
-26.50051668
 20
-3.5
 30
2.5
 11
-26.9402551933
 21
-4.5611650984
 31
2.5
 12
-3.99948332
 22
-3.5
 32
2.5
 13
-26.50051668
 23
-3.5
 33
2.5
  0
3DFACE
  5
2C1
100
AcDbEntity
  8
2
100
AcDbFace
  6
CONTINUOUS
 10
-3.99948332
 20
-3.5
 30
2.5
 11
-26.9402551933
 21
-4.5611650984
 31
2.5
 12
-3.5597448067
 22
-4.5611650984
 32
2.5
 13
-3.99948332
 23
-3.5
 33
2.5
  0
3DFACE
  5
2C2
100
AcDbEntity
  8
2
100
AcDbFace
  6
CONTINUOUS
 10
-26.9402551933
 20
-2.4388349016
 30
2.5
 11
-26.50051668
 21
-3.5
 31
2.5
 12
-3.5597448067
 22
-2.4388349016
 32
2.5
 13
-26.9402551933
 23
-2.4388349016
 33
2.5
  0
3DFACE
  5
2C3
100
AcDbEntity
  8
2
100
AcDbFace
  6
CONTINUOUS
 10
-3.5597448067
 20
-2.4388349016
 30
2.5
 11
-26.50051668
 21
-3.5
 31
2.5
 12
-3.99948332
 22
-3.5
 32
2.5
 13
-3.5597448067
 23
-2.4388349016
 33
2.5
  0
3DFACE
  5
2C4
100
AcDbEntity
  8
2
100
AcDbFace
  6
CONTINUOUS
 10
-2.5
 20
-2.0
 30
2.5
 11
-26.9402551933
 21
-2.4388349016
 31
2.5
 12
-3.5597448067
 22
-2.4388349016
 32
2.5
 13
-2.5
 23
-2.0
 33
2.5
  0
3DFACE
  5
2C5
100
AcDbEntity
  8
2
100
AcDbFace
  6
CONTINUOUS
 10
-2.5
 20
-2.0
 30
2.5
 11
-1.4402551933
 21
-2.4388349016
 31
2.5
 12
0.0
 22
0.0
 32
2.5
 13
-2.5
 23
-2.0
 33
2.5
  0
3DFACE
  5
2C6
100
AcDbEntity
  8
2
100
AcDbFace
  6
CONTINUOUS
 10
-1.4402551933
 20
-4.5611650984
 30
2.5
 11
-2.5
 21
-5.0
 31
2.5
 12
0.0
 22
-6.25
 32
2.5
 13
-1.4402551933
 23
-4.5611650984
 33
2.5
  0
3DFACE
  5
2C7
100
AcDbEntity
  8
2
100
AcDbFace
  6
CONTINUOUS
 10
0.0
 20
-6.25
 30
2.5
 11
-2.5
 21
-5.0
 31
2.5
 12
-30.5
 22
-6.25
 32
2.5
 13
0.0
 23
-6.25
 33
2.5
  0
3DFACE
  5
2C8
100
AcDbEntity
  8
2
100
AcDbFace
  6
CONTINUOUS
 10
-1.00051668
 20
-3.5
 30
2.5
 11
-1.4402551933
 21
-4.5611650984
 31
2.5
 12
0.0
 22
-6.25
 32
2.5
 13
-1.00051668
 23
-3.5
 33
2.5
  0
3DFACE
  5
2C9
100
AcDbEntity
  8
2
100
AcDbFace
  6
CONTINUOUS
 10
-1.4402551933
 20
-2.4388349016
 30
2.5
 11
-1.00051668
 21
-3.5
 31
2.5
 12
0.0
 22
0.0
 32
2.5
 13
-1.4402551933
 23
-2.4388349016
 33
2.5
  0
3DFACE
  5
2CA
100
AcDbEntity
  8
2
100
AcDbFace
  6
CONTINUOUS
 10
0.0
 20
0.0
 30
2.5
 11
-1.00051668
 21
-3.5
 31
2.5
 12
0.0
 22
-6.25
 32
2.5
 13
0.0
 23
0.0
 33
2.5
  0
3DFACE
  5
2CB
100
AcDbEntity
  8
2
100
AcDbFace
  6
CONTINUOUS
 10
-29.0597448067
 20
17.0611650984
 30
2.5
 11
-28.0
 21
17.5
 31
2.5
 12
-23.0000000015
 22
22.5
 32
2.5
 13
-29.0597448067
 23
17.0611650984
 33
2.5
  0
3DFACE
  5
2CC
100
AcDbEntity
  8
2
100
AcDbFace
  6
CONTINUOUS
 10
-28.0
 20
17.5
 30
2.5
 11
-26.9402551933
 21
17.0611650984
 31
2.5
 12
-2.5
 22
17.5
 32
2.5
 13
-28.0
 23
17.5
 33
2.5
  0
3DFACE
  5
2CD
100
AcDbEntity
  8
2
100
AcDbFace
  6
CONTINUOUS
 10
-28.0
 20
17.5
 30
2.5
 11
-2.5
 21
17.5
 31
2.5
 12
0.0
 22
26.2226792653
 32
2.5
 13
-28.0
 23
17.5
 33
2.5
  0
3DFACE
  5
2CE
100
AcDbEntity
  8
2
100
AcDbFace
  6
CONTINUOUS
 10
-28.0
 20
17.5
 30
2.5
 11
-13.5000000015
 21
22.5
 31
2.5
 12
-23.0000000015
 22
22.5
 32
2.5
 13
-28.0
 23
17.5
 33
2.5
  0
3DFACE
  5
2CF
100
AcDbEntity
  8
2
100
AcDbFace
  6
CONTINUOUS
 10
-13.5000000015
 20
22.5
 30
2.5
 11
-28.0
 21
17.5
 31
2.5
 12
0.0
 22
26.2226792653
 32
2.5
 13
-13.5000000015
 23
22.5
 33
2.5
  0
3DFACE
  5
2D0
100
AcDbEntity
  8
2
100
AcDbFace
  6
CONTINUOUS
 10
-29.49948332
 20
16.0
 30
2.5
 11
-29.0597448067
 21
17.0611650984
 31
2.5
 12
-30.5
 22
30.5
 32
2.5
 13
-29.49948332
 23
16.0
 33
2.5
  0
3DFACE
  5
2D1
100
AcDbEntity
  8
2
100
AcDbFace
  6
CONTINUOUS
 10
-24.7673666748
 20
26.7673666733
 30
2.5
 11
-29.0597448067
 21
17.0611650984
 31
2.5
 12
-25.5000000015
 22
25.0
 32
2.5
 13
-24.7673666748
 23
26.7673666733
 33
2.5
  0
3DFACE
  5
2D2
100
AcDbEntity
  8
2
100
AcDbFace
  6
CONTINUOUS
 10
-29.0597448067
 20
17.0611650984
 30
2.5
 11
-24.7673666748
 21
26.7673666733
 31
2.5
 12
-30.5
 22
30.5
 32
2.5
 13
-29.0597448067
 23
17.0611650984
 33
2.5
  0
3DFACE
  5
2D3
100
AcDbEntity
  8
2
100
AcDbFace
  6
CONTINUOUS
 10
-25.5000000015
 20
25.0
 30
2.5
 11
-29.0597448067
 21
17.0611650984
 31
2.5
 12
-24.7673666748
 22
23.2326333267
 32
2.5
 13
-25.5000000015
 23
25.0
 33
2.5
  0
3DFACE
  5
2D4
100
AcDbEntity
  8
2
100
AcDbFace
  6
CONTINUOUS
 10
-24.7673666748
 20
23.2326333267
 30
2.5
 11
-29.0597448067
 21
17.0611650984
 31
2.5
 12
-23.0000000015
 22
22.5
 32
2.5
 13
-24.7673666748
 23
23.2326333267
 33
2.5
  0
3DFACE
  5
2D5
100
AcDbEntity
  8
2
100
AcDbFace
  6
CONTINUOUS
 10
-29.0597448067
 20
14.9388349016
 30
2.5
 11
-29.49948332
 21
16.0
 31
2.5
 12
-30.5
 22
12.5
 32
2.5
 13
-29.0597448067
 23
14.9388349016
 33
2.5
  0
3DFACE
  5
2D6
100
AcDbEntity
  8
2
100
AcDbFace
  6
CONTINUOUS
 10
-30.5
 20
12.5
 30
2.5
 11
-29.49948332
 21
16.0
 31
2.5
 12
-30.5
 22
30.5
 32
2.5
 13
-30.5
 23
12.5
 33
2.5
  0
3DFACE
  5
2D7
100
AcDbEntity
  8
2
100
AcDbFace
  6
CONTINUOUS
 10
-28.0
 20
14.5
 30
2.5
 11
-29.0597448067
 21
14.9388349016
 31
2.5
 12
-30.5
 22
12.5
 32
2.5
 13
-28.0
 23
14.5
 33
2.5
  0
3DFACE
  5
2D8
100
AcDbEntity
  8
2
100
AcDbFace
  6
CONTINUOUS
 10
-26.9402551933
 20
14.9388349016
 30
2.5
 11
-28.0
 21
14.5
 31
2.5
 12
-3.5597448067
 22
14.9388349016
 32
2.5
 13
-26.9402551933
 23
14.9388349016
 33
2.5
  0
3DFACE
  5
2D9
100
AcDbEntity
  8
2
100
AcDbFace
  6
CONTINUOUS
 10
-3.5597448067
 20
14.9388349016
 30
2.5
 11
-28.0
 21
14.5
 31
2.5
 12
-2.5
 22
14.5
 32
2.5
 13
-3.5597448067
 23
14.9388349016
 33
2.5
  0
3DFACE
  5
2DA
100
AcDbEntity
  8
2
100
AcDbFace
  6
CONTINUOUS
 10
-2.5
 20
14.5
 30
2.5
 11
-28.0
 21
14.5
 31
2.5
 12
-30.5
 22
12.5
 32
2.5
 13
-2.5
 23
14.5
 33
2.5
  0
3DFACE
  5
2DB
100
AcDbEntity
  8
2
100
AcDbFace
  6
CONTINUOUS
 10
-26.50051668
 20
16.0
 30
2.5
 11
-26.9402551933
 21
14.9388349016
 31
2.5
 12
-3.99948332
 22
16.0
 32
2.5
 13
-26.50051668
 23
16.0
 33
2.5
  0
3DFACE
  5
2DC
100
AcDbEntity
  8
2
100
AcDbFace
  6
CONTINUOUS
 10
-3.99948332
 20
16.0
 30
2.5
 11
-26.9402551933
 21
14.9388349016
 31
2.5
 12
-3.5597448067
 22
14.9388349016
 32
2.5
 13
-3.99948332
 23
16.0
 33
2.5
  0
3DFACE
  5
2DD
100
AcDbEntity
  8
2
100
AcDbFace
  6
CONTINUOUS
 10
-26.9402551933
 20
17.0611650984
 30
2.5
 11
-26.50051668
 21
16.0
 31
2.5
 12
-3.5597448067
 22
17.0611650984
 32
2.5
 13
-26.9402551933
 23
17.0611650984
 33
2.5
  0
3DFACE
  5
2DE
100
AcDbEntity
  8
2
100
AcDbFace
  6
CONTINUOUS
 10
-3.5597448067
 20
17.0611650984
 30
2.5
 11
-26.50051668
 21
16.0
 31
2.5
 12
-3.99948332
 22
16.0
 32
2.5
 13
-3.5597448067
 23
17.0611650984
 33
2.5
  0
3DFACE
  5
2DF
100
AcDbEntity
  8
2
100
AcDbFace
  6
CONTINUOUS
 10
-2.5
 20
17.5
 30
2.5
 11
-26.9402551933
 21
17.0611650984
 31
2.5
 12
-3.5597448067
 22
17.0611650984
 32
2.5
 13
-2.5
 23
17.5
 33
2.5
  0
3DFACE
  5
2E0
100
AcDbEntity
  8
2
100
AcDbFace
  6
CONTINUOUS
 10
-2.5
 20
17.5
 30
2.5
 11
-1.4402551933
 21
17.0611650984
 31
2.5
 12
0.0
 22
26.2226792653
 32
2.5
 13
-2.5
 23
17.5
 33
2.5
  0
3DFACE
  5
2E1
100
AcDbEntity
  8
2
100
AcDbFace
  6
CONTINUOUS
 10
-1.4402551933
 20
14.9388349016
 30
2.5
 11
-2.5
 21
14.5
 31
2.5
 12
-6.9954622101
 22
12.5
 32
2.5
 13
-1.4402551933
 23
14.9388349016
 33
2.5
  0
3DFACE
  5
2E2
100
AcDbEntity
  8
2
100
AcDbFace
  6
CONTINUOUS
 10
-2.5
 20
14.5
 30
2.5
 11
-30.5
 21
12.5
 31
2.5
 12
-23.4999999986
 22
12.5
 32
2.5
 13
-2.5
 23
14.5
 33
2.5
  0
3DFACE
  5
2E3
100
AcDbEntity
  8
2
100
AcDbFace
  6
CONTINUOUS
 10
-6.9954622101
 20
12.5
 30
2.5
 11
-2.5
 21
14.5
 31
2.5
 12
-23.4999999986
 22
12.5
 32
2.5
 13
-6.9954622101
 23
12.5
 33
2.5
  0
3DFACE
  5
2E4
100
AcDbEntity
  8
2
100
AcDbFace
  6
CONTINUOUS
 10
-1.00051668
 20
16.0
 30
2.5
 11
-1.4402551933
 21
14.9388349016
 31
2.5
 12
0.0
 22
12.5
 32
2.5
 13
-1.00051668
 23
16.0
 33
2.5
  0
3DFACE
  5
2E5
100
AcDbEntity
  8
2
100
AcDbFace
  6
CONTINUOUS
 10
0.0
 20
12.5
 30
2.5
 11
-1.4402551933
 21
14.9388349016
 31
2.5
 12
-6.9954622101
 22
12.5
 32
2.5
 13
0.0
 23
12.5
 33
2.5
  0
3DFACE
  5
2E6
100
AcDbEntity
  8
2
100
AcDbFace
  6
CONTINUOUS
 10
-1.4402551933
 20
17.0611650984
 30
2.5
 11
-1.00051668
 21
16.0
 31
2.5
 12
0.0
 22
26.2226792653
 32
2.5
 13
-1.4402551933
 23
17.0611650984
 33
2.5
  0
3DFACE
  5
2E7
100
AcDbEntity
  8
2
100
AcDbFace
  6
CONTINUOUS
 10
0.0
 20
26.2226792653
 30
2.5
 11
-1.00051668
 21
16.0
 31
2.5
 12
0.0
 22
12.5
 32
2.5
 13
0.0
 23
26.2226792653
 33
2.5
  0
3DFACE
  5
2E8
100
AcDbEntity
  8
2
100
AcDbFace
  6
CONTINUOUS
 10
-15.2673666748
 20
26.7673666733
 30
2.5
 11
-13.5000000015
 21
27.5
 31
2.5
 12
-21.2326333281
 22
26.7673666733
 32
2.5
 13
-15.2673666748
 23
26.7673666733
 33
2.5
  0
3DFACE
  5
2E9
100
AcDbEntity
  8
2
100
AcDbFace
  6
CONTINUOUS
 10
-13.5000000015
 20
27.5
 30
2.5
 11
-11.7326333281
 21
26.7673666733
 31
2.5
 12
-0.7282563669
 22
27.7134238417
 32
2.5
 13
-13.5000000015
 23
27.5
 33
2.5
  0
3DFACE
  5
2EA
100
AcDbEntity
  8
2
100
AcDbFace
  6
CONTINUOUS
 10
-13.5000000015
 20
27.5
 30
2.5
 11
-23.0000000015
 21
27.5
 31
2.5
 12
-21.2326333281
 22
26.7673666733
 32
2.5
 13
-13.5000000015
 23
27.5
 33
2.5
  0
3DFACE
  5
2EB
100
AcDbEntity
  8
2
100
AcDbFace
  6
CONTINUOUS
 10
-23.0000000015
 20
27.5
 30
2.5
 11
-13.5000000015
 21
27.5
 31
2.5
 12
-0.7282563669
 22
27.7134238417
 32
2.5
 13
-23.0000000015
 23
27.5
 33
2.5
  0
3DFACE
  5
2EC
100
AcDbEntity
  8
2
100
AcDbFace
  6
CONTINUOUS
 10
-16.0000000015
 20
25.0
 30
2.5
 11
-15.2673666748
 21
26.7673666733
 31
2.5
 12
-20.5000000015
 22
25.0
 32
2.5
 13
-16.0000000015
 23
25.0
 33
2.5
  0
3DFACE
  5
2ED
100
AcDbEntity
  8
2
100
AcDbFace
  6
CONTINUOUS
 10
-20.5000000015
 20
25.0
 30
2.5
 11
-15.2673666748
 21
26.7673666733
 31
2.5
 12
-21.2326333281
 22
26.7673666733
 32
2.5
 13
-20.5000000015
 23
25.0
 33
2.5
  0
3DFACE
  5
2EE
100
AcDbEntity
  8
2
100
AcDbFace
  6
CONTINUOUS
 10
-15.2673666748
 20
23.2326333267
 30
2.5
 11
-16.0000000015
 21
25.0
 31
2.5
 12
-21.2326333281
 22
23.2326333267
 32
2.5
 13
-15.2673666748
 23
23.2326333267
 33
2.5
  0
3DFACE
  5
2EF
100
AcDbEntity
  8
2
100
AcDbFace
  6
CONTINUOUS
 10
-21.2326333281
 20
23.2326333267
 30
2.5
 11
-16.0000000015
 21
25.0
 31
2.5
 12
-20.5000000015
 22
25.0
 32
2.5
 13
-21.2326333281
 23
23.2326333267
 33
2.5
  0
3DFACE
  5
2F0
100
AcDbEntity
  8
2
100
AcDbFace
  6
CONTINUOUS
 10
-13.5000000015
 20
22.5
 30
2.5
 11
-15.2673666748
 21
23.2326333267
 31
2.5
 12
-23.0000000015
 22
22.5
 32
2.5
 13
-13.5000000015
 23
22.5
 33
2.5
  0
3DFACE
  5
2F1
100
AcDbEntity
  8
2
100
AcDbFace
  6
CONTINUOUS
 10
-23.0000000015
 20
22.5
 30
2.5
 11
-15.2673666748
 21
23.2326333267
 31
2.5
 12
-21.2326333281
 22
23.2326333267
 32
2.5
 13
-23.0000000015
 23
22.5
 33
2.5
  0
3DFACE
  5
2F2
100
AcDbEntity
  8
2
100
AcDbFace
  6
CONTINUOUS
 10
-11.7326333281
 20
23.2326333267
 30
2.5
 11
-13.5000000015
 21
22.5
 31
2.5
 12
0.0
 22
26.2226792653
 32
2.5
 13
-11.7326333281
 23
23.2326333267
 33
2.5
  0
3DFACE
  5
2F3
100
AcDbEntity
  8
2
100
AcDbFace
  6
CONTINUOUS
 10
-11.0000000015
 20
25.0
 30
2.5
 11
-11.7326333281
 21
23.2326333267
 31
2.5
 12
0.0
 22
26.2226792653
 32
2.5
 13
-11.0000000015
 23
25.0
 33
2.5
  0
3DFACE
  5
2F4
100
AcDbEntity
  8
2
100
AcDbFace
  6
CONTINUOUS
 10
-11.7326333281
 20
26.7673666733
 30
2.5
 11
-11.0000000015
 21
25.0
 31
2.5
 12
-0.1425070743
 22
26.7371750207
 32
2.5
 13
-11.7326333281
 23
26.7673666733
 33
2.5
  0
3DFACE
  5
2F5
100
AcDbEntity
  8
2
100
AcDbFace
  6
CONTINUOUS
 10
-0.1425070743
 20
26.7371750207
 30
2.5
 11
-11.0000000015
 21
25.0
 31
2.5
 12
-0.0363087923
 22
26.489606277
 32
2.5
 13
-0.1425070743
 23
26.7371750207
 33
2.5
  0
3DFACE
  5
2F6
100
AcDbEntity
  8
2
100
AcDbFace
  6
CONTINUOUS
 10
-0.0363087923
 20
26.489606277
 30
2.5
 11
-11.0000000015
 21
25.0
 31
2.5
 12
0.0
 22
26.2226792653
 32
2.5
 13
-0.0363087923
 23
26.489606277
 33
2.5
  0
3DFACE
  5
2F7
100
AcDbEntity
  8
2
100
AcDbFace
  6
CONTINUOUS
 10
-0.7282563669
 20
27.7134238417
 30
2.5
 11
-11.7326333281
 21
26.7673666733
 31
2.5
 12
-0.1425070743
 22
26.7371750207
 32
2.5
 13
-0.7282563669
 23
27.7134238417
 33
2.5
  0
3DFACE
  5
2F8
100
AcDbEntity
  8
2
100
AcDbFace
  6
CONTINUOUS
 10
-24.7673666748
 20
26.7673666733
 30
2.5
 11
-23.0000000015
 21
27.5
 31
2.5
 12
-30.5
 22
30.5
 32
2.5
 13
-24.7673666748
 23
26.7673666733
 33
2.5
  0
3DFACE
  5
2F9
100
AcDbEntity
  8
2
100
AcDbFace
  6
CONTINUOUS
 10
-30.5
 20
30.5
 30
2.5
 11
-23.0000000015
 21
27.5
 31
2.5
 12
-0.7282563669
 22
30.2859026188
 32
2.5
 13
-30.5
 23
30.5
 33
2.5
  0
3DFACE
  5
2FA
100
AcDbEntity
  8
2
100
AcDbFace
  6
CONTINUOUS
 10
-0.7282563669
 20
30.2859026188
 30
2.5
 11
-23.0000000015
 21
27.5
 31
2.5
 12
-1.0835474632
 22
28.9996632303
 32
2.5
 13
-0.7282563669
 23
30.2859026188
 33
2.5
  0
3DFACE
  5
2FB
100
AcDbEntity
  8
2
100
AcDbFace
  6
CONTINUOUS
 10
-1.0835474632
 20
28.9996632303
 30
2.5
 11
-23.0000000015
 21
27.5
 31
2.5
 12
-0.7282563669
 22
27.7134238417
 32
2.5
 13
-1.0835474632
 23
28.9996632303
 33
2.5
  0
3DFACE
  5
2FC
100
AcDbEntity
  8
2
100
AcDbFace
  6
CONTINUOUS
 10
0.0
 20
0.0
 30
2.5
 11
0.0
 21
12.5
 31
2.5
 12
-7.3502196832
 22
0.2860547108
 32
2.5
 13
0.0
 23
0.0
 33
2.5
  0
3DFACE
  5
2FD
100
AcDbEntity
  8
2
100
AcDbFace
  6
CONTINUOUS
 10
-8.0902053837
 20
0.0
 30
2.5
 11
0.0
 21
0.0
 31
2.5
 12
-7.3502196832
 22
0.2860547108
 32
2.5
 13
-8.0902053837
 23
0.0
 33
2.5
  0
3DFACE
  5
2FE
100
AcDbEntity
  8
2
100
AcDbFace
  6
CONTINUOUS
 10
-0.0735276776
 20
-6.4264723224
 30
2.5
 11
0.0
 21
-6.25
 31
2.5
 12
-30.4264723224
 22
-6.4264723224
 32
2.5
 13
-0.0735276776
 23
-6.4264723224
 33
2.5
  0
3DFACE
  5
2FF
100
AcDbEntity
  8
2
100
AcDbFace
  6
CONTINUOUS
 10
-30.4264723224
 20
-6.4264723224
 30
2.5
 11
0.0
 21
-6.25
 31
2.5
 12
-30.5
 22
-6.25
 32
2.5
 13
-30.4264723224
 23
-6.4264723224
 33
2.5
  0
3DFACE
  5
300
100
AcDbEntity
  8
2
100
AcDbFace
  6
CONTINUOUS
 10
-0.25
 20
-6.5
 30
2.5
 11
-0.0735276776
 21
-6.4264723224
 31
2.5
 12
-30.25
 22
-6.5
 32
2.5
 13
-0.25
 23
-6.5
 33
2.5
  0
3DFACE
  5
301
100
AcDbEntity
  8
2
100
AcDbFace
  6
CONTINUOUS
 10
-30.25
 20
-6.5
 30
2.5
 11
-0.0735276776
 21
-6.4264723224
 31
2.5
 12
-30.4264723224
 22
-6.4264723224
 32
2.5
 13
-30.25
 23
-6.5
 33
2.5
  0
3DFACE
  5
302
100
AcDbEntity
  8
2
100
AcDbFace
  6
CONTINUOUS
 10
-30.5
 20
12.5
 30
2.5
 11
-30.5
 21
0.0
 31
2.5
 12
-24.2071067797
 22
12.2071067812
 32
2.5
 13
-30.5
 23
12.5
 33
2.5
  0
3DFACE
  5
303
100
AcDbEntity
  8
2
100
AcDbFace
  6
CONTINUOUS
 10
-24.2071067797
 20
12.2071067812
 30
2.5
 11
-30.5
 21
0.0
 31
2.5
 12
-24.4999999986
 22
11.5
 32
2.5
 13
-24.2071067797
 23
12.2071067812
 33
2.5
  0
3DFACE
  5
304
100
AcDbEntity
  8
2
100
AcDbFace
  6
CONTINUOUS
 10
-24.4999999986
 20
11.5
 30
2.5
 11
-30.5
 21
0.0
 31
2.5
 12
-24.4999999986
 22
1.0
 32
2.5
 13
-24.4999999986
 23
11.5
 33
2.5
  0
3DFACE
  5
305
100
AcDbEntity
  8
2
100
AcDbFace
  6
CONTINUOUS
 10
-24.4999999986
 20
1.0
 30
2.5
 11
-30.5
 21
0.0
 31
2.5
 12
-24.2071067797
 22
0.2928932188
 32
2.5
 13
-24.4999999986
 23
1.0
 33
2.5
  0
3DFACE
  5
306
100
AcDbEntity
  8
2
100
AcDbFace
  6
CONTINUOUS
 10
-24.2071067797
 20
0.2928932188
 30
2.5
 11
-30.5
 21
0.0
 31
2.5
 12
-23.4999999986
 22
0.0
 32
2.5
 13
-24.2071067797
 23
0.2928932188
 33
2.5
  0
3DFACE
  5
307
100
AcDbEntity
  8
2
100
AcDbFace
  6
CONTINUOUS
 10
-23.4999999986
 20
12.5
 30
2.5
 11
-30.5
 21
12.5
 31
2.5
 12
-24.2071067797
 22
12.2071067812
 32
2.5
 13
-23.4999999986
 23
12.5
 33
2.5
  0
3DFACE
  5
308
100
AcDbEntity
  8
2
100
AcDbFace
  6
CONTINUOUS
 10
-30.5
 20
32.1219869584
 30
2.5
 11
-30.5
 21
30.5
 31
2.5
 12
-25.8362400054
 22
32.0335334729
 32
2.5
 13
-30.5
 23
32.1219869584
 33
2.5
  0
3DFACE
  5
309
100
AcDbEntity
  8
2
100
AcDbFace
  6
CONTINUOUS
 10
-30.5
 20
30.5
 30
2.5
 11
-0.7282563669
 21
30.2859026188
 31
2.5
 12
-6.7204045408
 22
30.5039153514
 32
2.5
 13
-30.5
 23
30.5
 33
2.5
  0
3DFACE
  5
30A
100
AcDbEntity
  8
2
100
AcDbFace
  6
CONTINUOUS
 10
-24.3361708168
 20
30.6219872921
 30
2.5
 11
-30.5
 21
30.5
 31
2.5
 12
-6.7204045408
 22
30.5039153514
 32
2.5
 13
-24.3361708168
 23
30.6219872921
 33
2.5
  0
3DFACE
  5
30B
100
AcDbEntity
  8
2
100
AcDbFace
  6
CONTINUOUS
 10
-30.5
 20
30.5
 30
2.5
 11
-24.3361708168
 21
30.6219872921
 31
2.5
 12
-25.3796252113
 22
31.0145116398
 32
2.5
 13
-30.5
 23
30.5
 33
2.5
  0
3DFACE
  5
30C
100
AcDbEntity
  8
2
100
AcDbFace
  6
CONTINUOUS
 10
-25.8362400054
 20
32.0335334729
 30
2.5
 11
-30.5
 21
30.5
 31
2.5
 12
-25.3796252113
 22
31.0145116398
 32
2.5
 13
-25.8362400054
 23
32.0335334729
 33
2.5
  0
3DFACE
  5
30D
100
AcDbEntity
  8
2
100
AcDbFace
  6
CONTINUOUS
 10
-30.1887778717
 20
33.3284527393
 30
2.5
 11
-30.5
 21
32.1219869584
 31
2.5
 12
-25.4346945273
 22
33.0735496583
 32
2.5
 13
-30.1887778717
 23
33.3284527393
 33
2.5
  0
3DFACE
  5
30E
100
AcDbEntity
  8
2
100
AcDbFace
  6
CONTINUOUS
 10
-25.4346945273
 20
33.0735496583
 30
2.5
 11
-30.5
 21
32.1219869584
 31
2.5
 12
-25.8362400054
 22
32.0335334729
 32
2.5
 13
-25.4346945273
 23
33.0735496583
 33
2.5
  0
3DFACE
  5
30F
100
AcDbEntity
  8
2
100
AcDbFace
  6
CONTINUOUS
 10
-29.3348640335
 20
34.2357840187
 30
2.5
 11
-30.1887778717
 21
33.3284527393
 31
2.5
 12
-24.0002388621
 22
33.6219869584
 32
2.5
 13
-29.3348640335
 23
34.2357840187
 33
2.5
  0
3DFACE
  5
310
100
AcDbEntity
  8
2
100
AcDbFace
  6
CONTINUOUS
 10
-24.0002388621
 20
33.6219869584
 30
2.5
 11
-30.1887778717
 21
33.3284527393
 31
2.5
 12
-25.4346945273
 22
33.0735496583
 32
2.5
 13
-24.0002388621
 23
33.6219869584
 33
2.5
  0
3DFACE
  5
311
100
AcDbEntity
  8
2
100
AcDbFace
  6
CONTINUOUS
 10
-16.5297775755
 20
40.6781144507
 30
2.5
 11
-29.3348640335
 21
34.2357840187
 31
2.5
 12
-8.3606985517
 22
39.6014727459
 32
2.5
 13
-16.5297775755
 23
40.6781144507
 33
2.5
  0
3DFACE
  5
312
100
AcDbEntity
  8
2
100
AcDbFace
  6
CONTINUOUS
 10
-8.3606985517
 20
39.6014727459
 30
2.5
 11
-29.3348640335
 21
34.2357840187
 31
2.5
 12
-24.0002388621
 22
33.6219869584
 32
2.5
 13
-8.3606985517
 23
39.6014727459
 33
2.5
  0
3DFACE
  5
313
100
AcDbEntity
  8
2
100
AcDbFace
  6
CONTINUOUS
 10
-16.30570664
 20
40.8622005139
 30
2.5
 11
-16.5297775755
 21
40.6781144507
 31
2.5
 12
-4.2947551794
 22
43.6117881397
 32
2.5
 13
-16.30570664
 23
40.8622005139
 33
2.5
  0
3DFACE
  5
314
100
AcDbEntity
  8
2
100
AcDbFace
  6
CONTINUOUS
 10
-4.2947551794
 20
43.6117881397
 30
2.5
 11
-16.5297775755
 21
40.6781144507
 31
2.5
 12
-8.3606985517
 22
39.6014727459
 32
2.5
 13
-4.2947551794
 23
43.6117881397
 33
2.5
  0
3DFACE
  5
315
100
AcDbEntity
  8
2
100
AcDbFace
  6
CONTINUOUS
 10
-16.1818236679
 20
41.1243998122
 30
2.5
 11
-16.30570664
 21
40.8622005139
 31
2.5
 12
-4.2947551794
 22
43.6117881397
 32
2.5
 13
-16.1818236679
 23
41.1243998122
 33
2.5
  0
3DFACE
  5
316
100
AcDbEntity
  8
2
100
AcDbFace
  6
CONTINUOUS
 10
-14.7925573503
 20
47.3436896124
 30
2.5
 11
-16.1818236679
 21
41.1243998122
 31
2.5
 12
-9.0241476354
 22
46.6211851046
 32
2.5
 13
-14.7925573503
 23
47.3436896124
 33
2.5
  0
3DFACE
  5
317
100
AcDbEntity
  8
2
100
AcDbFace
  6
CONTINUOUS
 10
-9.0241476354
 20
46.6211851046
 30
2.5
 11
-16.1818236679
 21
41.1243998122
 31
2.5
 12
-4.2947551794
 22
43.6117881397
 32
2.5
 13
-9.0241476354
 23
46.6211851046
 33
2.5
  0
3DFACE
  5
318
100
AcDbEntity
  8
2
100
AcDbFace
  6
CONTINUOUS
 10
-14.7068333197
 20
47.4835603089
 30
2.5
 11
-14.7925573503
 21
47.3436896124
 31
2.5
 12
-14.5536387834
 22
47.5422446785
 32
2.5
 13
-14.7068333197
 23
47.4835603089
 33
2.5
  0
3DFACE
  5
319
100
AcDbEntity
  8
2
100
AcDbFace
  6
CONTINUOUS
 10
-14.5536387834
 20
47.5422446785
 30
2.5
 11
-14.7925573503
 21
47.3436896124
 31
2.5
 12
-9.0241476354
 22
46.6211851046
 32
2.5
 13
-14.5536387834
 23
47.5422446785
 33
2.5
  0
3DFACE
  5
31A
100
AcDbEntity
  8
2
100
AcDbFace
  6
CONTINUOUS
 10
-1.1181805507
 20
38.9930224255
 30
2.5
 11
-4.2947551794
 21
43.6117881397
 31
2.5
 12
-7.2402292344
 22
39.0336032068
 32
2.5
 13
-1.1181805507
 23
38.9930224255
 33
2.5
  0
3DFACE
  5
31B
100
AcDbEntity
  8
2
100
AcDbFace
  6
CONTINUOUS
 10
-7.2402292344
 20
39.0336032068
 30
2.5
 11
-4.2947551794
 21
43.6117881397
 31
2.5
 12
-7.6746414705
 22
39.5657995121
 32
2.5
 13
-7.2402292344
 23
39.0336032068
 33
2.5
  0
3DFACE
  5
31C
100
AcDbEntity
  8
2
100
AcDbFace
  6
CONTINUOUS
 10
-7.6746414705
 20
39.5657995121
 30
2.5
 11
-4.2947551794
 21
43.6117881397
 31
2.5
 12
-8.3606985517
 22
39.6014727459
 32
2.5
 13
-7.6746414705
 23
39.5657995121
 33
2.5
  0
3DFACE
  5
31D
100
AcDbEntity
  8
2
100
AcDbFace
  6
CONTINUOUS
 10
0.0
 20
33.5000000015
 30
2.5
 11
-1.1181805507
 21
38.9930224255
 31
2.5
 12
-6.4243636593
 22
35.1191854765
 32
2.5
 13
0.0
 23
33.5000000015
 33
2.5
  0
3DFACE
  5
31E
100
AcDbEntity
  8
2
100
AcDbFace
  6
CONTINUOUS
 10
-6.4243636593
 20
35.1191854765
 30
2.5
 11
-1.1181805507
 21
38.9930224255
 31
2.5
 12
-7.2402292344
 22
39.0336032068
 32
2.5
 13
-6.4243636593
 23
35.1191854765
 33
2.5
  0
3DFACE
  5
31F
100
AcDbEntity
  8
2
100
AcDbFace
  6
CONTINUOUS
 10
-0.0
 20
33.1519062928
 30
2.5
 11
0.0
 21
33.5000000015
 31
2.5
 12
-6.0984633856
 22
31.1339512531
 32
2.5
 13
-0.0
 23
33.1519062928
 33
2.5
  0
3DFACE
  5
320
100
AcDbEntity
  8
2
100
AcDbFace
  6
CONTINUOUS
 10
-6.0984633856
 20
31.1339512531
 30
2.5
 11
0.0
 21
33.5000000015
 31
2.5
 12
-6.4243636593
 22
35.1191854765
 32
2.5
 13
-6.0984633856
 23
31.1339512531
 33
2.5
  0
3DFACE
  5
321
100
AcDbEntity
  8
2
100
AcDbFace
  6
CONTINUOUS
 10
-0.0
 20
31.7766471952
 30
2.5
 11
-0.0
 21
33.1519062928
 31
2.5
 12
-6.0984633856
 22
31.1339512531
 32
2.5
 13
-0.0
 23
31.7766471952
 33
2.5
  0
3DFACE
  5
322
100
AcDbEntity
  8
2
100
AcDbFace
  6
CONTINUOUS
 10
-0.0363087923
 20
31.5097201835
 30
2.5
 11
-0.0
 21
31.7766471952
 31
2.5
 12
-6.0984633856
 22
31.1339512531
 32
2.5
 13
-0.0363087923
 23
31.5097201835
 33
2.5
  0
3DFACE
  5
323
100
AcDbEntity
  8
2
100
AcDbFace
  6
CONTINUOUS
 10
-0.1425070743
 20
31.2621514398
 30
2.5
 11
-0.0363087923
 21
31.5097201835
 31
2.5
 12
-6.0984633856
 22
31.1339512531
 32
2.5
 13
-0.1425070743
 23
31.2621514398
 33
2.5
  0
3DFACE
  5
324
100
AcDbEntity
  8
2
100
AcDbFace
  6
CONTINUOUS
 10
-0.7282563669
 20
30.2859026188
 30
2.5
 11
-0.1425070743
 21
31.2621514398
 31
2.5
 12
-6.7204045408
 22
30.5039153514
 32
2.5
 13
-0.7282563669
 23
30.2859026188
 33
2.5
  0
3DFACE
  5
325
100
AcDbEntity
  8
2
100
AcDbFace
  6
CONTINUOUS
 10
-6.7204045408
 20
30.5039153514
 30
2.5
 11
-0.1425070743
 21
31.2621514398
 31
2.5
 12
-6.2773212431
 22
30.6885179759
 32
2.5
 13
-6.7204045408
 23
30.5039153514
 33
2.5
  0
3DFACE
  5
326
100
AcDbEntity
  8
2
100
AcDbFace
  6
CONTINUOUS
 10
-6.2773212431
 20
30.6885179759
 30
2.5
 11
-0.1425070743
 21
31.2621514398
 31
2.5
 12
-6.0984633856
 22
31.1339512531
 32
2.5
 13
-6.2773212431
 23
30.6885179759
 33
2.5
  0
3DFACE
  5
327
100
AcDbEntity
  8
2
100
AcDbFace
  6
CONTINUOUS
 10
-6.9950477098
 20
0.9954622128
 30
2.5
 11
0.0
 21
12.5
 31
2.5
 12
-5.9999999973
 22
11.4048423262
 32
2.5
 13
-6.9950477098
 23
0.9954622128
 33
2.5
  0
3DFACE
  5
328
100
AcDbEntity
  8
2
100
AcDbFace
  6
CONTINUOUS
 10
0.0
 20
12.5
 30
2.5
 11
-6.9950477098
 21
0.9954622128
 31
2.5
 12
-7.3502196832
 22
0.2860547108
 32
2.5
 13
0.0
 23
12.5
 33
2.5
  0
3DFACE
  5
329
100
AcDbEntity
  8
2
100
AcDbFace
  6
CONTINUOUS
 10
-5.9999999973
 20
11.4048423262
 30
2.5
 11
0.0
 21
12.5
 31
2.5
 12
-6.2554765096
 22
12.1726226008
 32
2.5
 13
-5.9999999973
 23
11.4048423262
 33
2.5
  0
3DFACE
  5
32A
100
AcDbEntity
  8
2
100
AcDbFace
  6
CONTINUOUS
 10
-6.2554765096
 20
12.1726226008
 30
2.5
 11
0.0
 21
12.5
 31
2.5
 12
-6.9954622101
 22
12.5
 32
2.5
 13
-6.2554765096
 23
12.1726226008
 33
2.5
  0
3DFACE
  5
32B
100
AcDbEntity
  8
3
100
AcDbFace
  6
CONTINUOUS
 10
-28.0
 20
-2.0
 30
0.0
 11
-26.9402551933
 21
-2.4388349016
 31
0.0
 12
-28.0
 22
-2.0
 32
2.5
 13
-28.0
 23
-2.0
 33
0.0
  0
3DFACE
  5
32C
100
AcDbEntity
  8
3
100
AcDbFace
  6
CONTINUOUS
 10
-26.9402551933
 20
-2.4388349016
 30
0.0
 11
-26.50051668
 21
-3.5
 31
0.0
 12
-26.9402551933
 22
-2.4388349016
 32
2.5
 13
-26.9402551933
 23
-2.4388349016
 33
0.0
  0
3DFACE
  5
32D
100
AcDbEntity
  8
3
100
AcDbFace
  6
CONTINUOUS
 10
-28.0
 20
-2.0
 30
2.5
 11
-26.9402551933
 21
-2.4388349016
 31
0.0
 12
-26.9402551933
 22
-2.4388349016
 32
2.5
 13
-28.0
 23
-2.0
 33
2.5
  0
3DFACE
  5
32E
100
AcDbEntity
  8
3
100
AcDbFace
  6
CONTINUOUS
 10
-26.50051668
 20
-3.5
 30
0.0
 11
-26.9402551933
 21
-4.5611650984
 31
0.0
 12
-26.50051668
 22
-3.5
 32
2.5
 13
-26.50051668
 23
-3.5
 33
0.0
  0
3DFACE
  5
32F
100
AcDbEntity
  8
3
100
AcDbFace
  6
CONTINUOUS
 10
-26.50051668
 20
-3.5
 30
0.0
 11
-26.50051668
 21
-3.5
 31
2.5
 12
-26.9402551933
 22
-2.4388349016
 32
2.5
 13
-26.50051668
 23
-3.5
 33
0.0
  0
3DFACE
  5
330
100
AcDbEntity
  8
3
100
AcDbFace
  6
CONTINUOUS
 10
-26.9402551933
 20
-4.5611650984
 30
0.0
 11
-28.0
 21
-5.0
 31
0.0
 12
-26.9402551933
 22
-4.5611650984
 32
2.5
 13
-26.9402551933
 23
-4.5611650984
 33
0.0
  0
3DFACE
  5
331
100
AcDbEntity
  8
3
100
AcDbFace
  6
CONTINUOUS
 10
-26.9402551933
 20
-4.5611650984
 30
0.0
 11
-26.9402551933
 21
-4.5611650984
 31
2.5
 12
-26.50051668
 22
-3.5
 32
2.5
 13
-26.9402551933
 23
-4.5611650984
 33
0.0
  0
3DFACE
  5
332
100
AcDbEntity
  8
3
100
AcDbFace
  6
CONTINUOUS
 10
-28.0
 20
-5.0
 30
0.0
 11
-28.0
 21
-5.0
 31
2.5
 12
-26.9402551933
 22
-4.5611650984
 32
2.5
 13
-28.0
 23
-5.0
 33
0.0
  0
3DFACE
  5
333
100
AcDbEntity
  8
4
100
AcDbFace
  6
CONTINUOUS
 10
-29.0597448067
 20
-2.4388349016
 30
0.0
 11
-28.0
 21
-2.0
 31
0.0
 12
-29.0597448067
 22
-2.4388349016
 32
2.5
 13
-29.0597448067
 23
-2.4388349016
 33
0.0
  0
3DFACE
  5
334
100
AcDbEntity
  8
4
100
AcDbFace
  6
CONTINUOUS
 10
-28.0
 20
-2.0
 30
0.0
 11
-28.0
 21
-2.0
 31
2.5
 12
-29.0597448067
 22
-2.4388349016
 32
2.5
 13
-28.0
 23
-2.0
 33
0.0
  0
3DFACE
  5
335
100
AcDbEntity
  8
4
100
AcDbFace
  6
CONTINUOUS
 10
-28.0
 20
-5.0
 30
0.0
 11
-29.0597448067
 21
-4.5611650984
 31
0.0
 12
-28.0
 22
-5.0
 32
2.5
 13
-28.0
 23
-5.0
 33
0.0
  0
3DFACE
  5
336
100
AcDbEntity
  8
4
100
AcDbFace
  6
CONTINUOUS
 10
-29.0597448067
 20
-4.5611650984
 30
0.0
 11
-29.49948332
 21
-3.5
 31
0.0
 12
-29.0597448067
 22
-4.5611650984
 32
2.5
 13
-29.0597448067
 23
-4.5611650984
 33
0.0
  0
3DFACE
  5
337
100
AcDbEntity
  8
4
100
AcDbFace
  6
CONTINUOUS
 10
-29.0597448067
 20
-4.5611650984
 30
0.0
 11
-29.0597448067
 21
-4.5611650984
 31
2.5
 12
-28.0
 22
-5.0
 32
2.5
 13
-29.0597448067
 23
-4.5611650984
 33
0.0
  0
3DFACE
  5
338
100
AcDbEntity
  8
4
100
AcDbFace
  6
CONTINUOUS
 10
-29.49948332
 20
-3.5
 30
0.0
 11
-29.0597448067
 21
-2.4388349016
 31
0.0
 12
-29.49948332
 22
-3.5
 32
2.5
 13
-29.49948332
 23
-3.5
 33
0.0
  0
3DFACE
  5
339
100
AcDbEntity
  8
4
100
AcDbFace
  6
CONTINUOUS
 10
-29.49948332
 20
-3.5
 30
0.0
 11
-29.49948332
 21
-3.5
 31
2.5
 12
-29.0597448067
 22
-4.5611650984
 32
2.5
 13
-29.49948332
 23
-3.5
 33
0.0
  0
3DFACE
  5
33A
100
AcDbEntity
  8
4
100
AcDbFace
  6
CONTINUOUS
 10
-29.0597448067
 20
-2.4388349016
 30
0.0
 11
-29.0597448067
 21
-2.4388349016
 31
2.5
 12
-29.49948332
 22
-3.5
 32
2.5
 13
-29.0597448067
 23
-2.4388349016
 33
0.0
  0
3DFACE
  5
33B
100
AcDbEntity
  8
5
100
AcDbFace
  6
CONTINUOUS
 10
-2.5
 20
-2.0
 30
0.0
 11
-1.4402551933
 21
-2.4388349016
 31
0.0
 12
-2.5
 22
-2.0
 32
2.5
 13
-2.5
 23
-2.0
 33
0.0
  0
3DFACE
  5
33C
100
AcDbEntity
  8
5
100
AcDbFace
  6
CONTINUOUS
 10
-1.4402551933
 20
-2.4388349016
 30
0.0
 11
-1.00051668
 21
-3.5
 31
0.0
 12
-1.4402551933
 22
-2.4388349016
 32
2.5
 13
-1.4402551933
 23
-2.4388349016
 33
0.0
  0
3DFACE
  5
33D
100
AcDbEntity
  8
5
100
AcDbFace
  6
CONTINUOUS
 10
-2.5
 20
-2.0
 30
2.5
 11
-1.4402551933
 21
-2.4388349016
 31
0.0
 12
-1.4402551933
 22
-2.4388349016
 32
2.5
 13
-2.5
 23
-2.0
 33
2.5
  0
3DFACE
  5
33E
100
AcDbEntity
  8
5
100
AcDbFace
  6
CONTINUOUS
 10
-1.00051668
 20
-3.5
 30
0.0
 11
-1.4402551933
 21
-4.5611650984
 31
0.0
 12
-1.00051668
 22
-3.5
 32
2.5
 13
-1.00051668
 23
-3.5
 33
0.0
  0
3DFACE
  5
33F
100
AcDbEntity
  8
5
100
AcDbFace
  6
CONTINUOUS
 10
-1.00051668
 20
-3.5
 30
0.0
 11
-1.00051668
 21
-3.5
 31
2.5
 12
-1.4402551933
 22
-2.4388349016
 32
2.5
 13
-1.00051668
 23
-3.5
 33
0.0
  0
3DFACE
  5
340
100
AcDbEntity
  8
5
100
AcDbFace
  6
CONTINUOUS
 10
-1.4402551933
 20
-4.5611650984
 30
0.0
 11
-2.5
 21
-5.0
 31
0.0
 12
-1.4402551933
 22
-4.5611650984
 32
2.5
 13
-1.4402551933
 23
-4.5611650984
 33
0.0
  0
3DFACE
  5
341
100
AcDbEntity
  8
5
100
AcDbFace
  6
CONTINUOUS
 10
-1.4402551933
 20
-4.5611650984
 30
0.0
 11
-1.4402551933
 21
-4.5611650984
 31
2.5
 12
-1.00051668
 22
-3.5
 32
2.5
 13
-1.4402551933
 23
-4.5611650984
 33
0.0
  0
3DFACE
  5
342
100
AcDbEntity
  8
5
100
AcDbFace
  6
CONTINUOUS
 10
-2.5
 20
-5.0
 30
0.0
 11
-2.5
 21
-5.0
 31
2.5
 12
-1.4402551933
 22
-4.5611650984
 32
2.5
 13
-2.5
 23
-5.0
 33
0.0
  0
3DFACE
  5
343
100
AcDbEntity
  8
6
100
AcDbFace
  6
CONTINUOUS
 10
-3.5597448067
 20
-2.4388349016
 30
0.0
 11
-2.5
 21
-2.0
 31
0.0
 12
-3.5597448067
 22
-2.4388349016
 32
2.5
 13
-3.5597448067
 23
-2.4388349016
 33
0.0
  0
3DFACE
  5
344
100
AcDbEntity
  8
6
100
AcDbFace
  6
CONTINUOUS
 10
-2.5
 20
-2.0
 30
0.0
 11
-2.5
 21
-2.0
 31
2.5
 12
-3.5597448067
 22
-2.4388349016
 32
2.5
 13
-2.5
 23
-2.0
 33
0.0
  0
3DFACE
  5
345
100
AcDbEntity
  8
6
100
AcDbFace
  6
CONTINUOUS
 10
-2.5
 20
-5.0
 30
0.0
 11
-3.5597448067
 21
-4.5611650984
 31
0.0
 12
-2.5
 22
-5.0
 32
2.5
 13
-2.5
 23
-5.0
 33
0.0
  0
3DFACE
  5
346
100
AcDbEntity
  8
6
100
AcDbFace
  6
CONTINUOUS
 10
-3.5597448067
 20
-4.5611650984
 30
0.0
 11
-3.99948332
 21
-3.5
 31
0.0
 12
-3.5597448067
 22
-4.5611650984
 32
2.5
 13
-3.5597448067
 23
-4.5611650984
 33
0.0
  0
3DFACE
  5
347
100
AcDbEntity
  8
6
100
AcDbFace
  6
CONTINUOUS
 10
-3.5597448067
 20
-4.5611650984
 30
0.0
 11
-3.5597448067
 21
-4.5611650984
 31
2.5
 12
-2.5
 22
-5.0
 32
2.5
 13
-3.5597448067
 23
-4.5611650984
 33
0.0
  0
3DFACE
  5
348
100
AcDbEntity
  8
6
100
AcDbFace
  6
CONTINUOUS
 10
-3.99948332
 20
-3.5
 30
0.0
 11
-3.5597448067
 21
-2.4388349016
 31
0.0
 12
-3.99948332
 22
-3.5
 32
2.5
 13
-3.99948332
 23
-3.5
 33
0.0
  0
3DFACE
  5
349
100
AcDbEntity
  8
6
100
AcDbFace
  6
CONTINUOUS
 10
-3.99948332
 20
-3.5
 30
0.0
 11
-3.99948332
 21
-3.5
 31
2.5
 12
-3.5597448067
 22
-4.5611650984
 32
2.5
 13
-3.99948332
 23
-3.5
 33
0.0
  0
3DFACE
  5
34A
100
AcDbEntity
  8
6
100
AcDbFace
  6
CONTINUOUS
 10
-3.5597448067
 20
-2.4388349016
 30
0.0
 11
-3.5597448067
 21
-2.4388349016
 31
2.5
 12
-3.99948332
 22
-3.5
 32
2.5
 13
-3.5597448067
 23
-2.4388349016
 33
0.0
  0
3DFACE
  5
34B
100
AcDbEntity
  8
7
100
AcDbFace
  6
CONTINUOUS
 10
-28.0
 20
17.5
 30
0.0
 11
-26.9402551933
 21
17.0611650984
 31
0.0
 12
-28.0
 22
17.5
 32
2.5
 13
-28.0
 23
17.5
 33
0.0
  0
3DFACE
  5
34C
100
AcDbEntity
  8
7
100
AcDbFace
  6
CONTINUOUS
 10
-26.9402551933
 20
17.0611650984
 30
0.0
 11
-26.50051668
 21
16.0
 31
0.0
 12
-26.9402551933
 22
17.0611650984
 32
2.5
 13
-26.9402551933
 23
17.0611650984
 33
0.0
  0
3DFACE
  5
34D
100
AcDbEntity
  8
7
100
AcDbFace
  6
CONTINUOUS
 10
-28.0
 20
17.5
 30
2.5
 11
-26.9402551933
 21
17.0611650984
 31
0.0
 12
-26.9402551933
 22
17.0611650984
 32
2.5
 13
-28.0
 23
17.5
 33
2.5
  0
3DFACE
  5
34E
100
AcDbEntity
  8
7
100
AcDbFace
  6
CONTINUOUS
 10
-26.50051668
 20
16.0
 30
0.0
 11
-26.9402551933
 21
14.9388349016
 31
0.0
 12
-26.50051668
 22
16.0
 32
2.5
 13
-26.50051668
 23
16.0
 33
0.0
  0
3DFACE
  5
34F
100
AcDbEntity
  8
7
100
AcDbFace
  6
CONTINUOUS
 10
-26.50051668
 20
16.0
 30
0.0
 11
-26.50051668
 21
16.0
 31
2.5
 12
-26.9402551933
 22
17.0611650984
 32
2.5
 13
-26.50051668
 23
16.0
 33
0.0
  0
3DFACE
  5
350
100
AcDbEntity
  8
7
100
AcDbFace
  6
CONTINUOUS
 10
-26.9402551933
 20
14.9388349016
 30
0.0
 11
-28.0
 21
14.5
 31
0.0
 12
-26.9402551933
 22
14.9388349016
 32
2.5
 13
-26.9402551933
 23
14.9388349016
 33
0.0
  0
3DFACE
  5
351
100
AcDbEntity
  8
7
100
AcDbFace
  6
CONTINUOUS
 10
-26.9402551933
 20
14.9388349016
 30
0.0
 11
-26.9402551933
 21
14.9388349016
 31
2.5
 12
-26.50051668
 22
16.0
 32
2.5
 13
-26.9402551933
 23
14.9388349016
 33
0.0
  0
3DFACE
  5
352
100
AcDbEntity
  8
7
100
AcDbFace
  6
CONTINUOUS
 10
-28.0
 20
14.5
 30
0.0
 11
-28.0
 21
14.5
 31
2.5
 12
-26.9402551933
 22
14.9388349016
 32
2.5
 13
-28.0
 23
14.5
 33
0.0
  0
3DFACE
  5
353
100
AcDbEntity
  8
8
100
AcDbFace
  6
CONTINUOUS
 10
-29.0597448067
 20
17.0611650984
 30
0.0
 11
-28.0
 21
17.5
 31
0.0
 12
-29.0597448067
 22
17.0611650984
 32
2.5
 13
-29.0597448067
 23
17.0611650984
 33
0.0
  0
3DFACE
  5
354
100
AcDbEntity
  8
8
100
AcDbFace
  6
CONTINUOUS
 10
-28.0
 20
17.5
 30
0.0
 11
-28.0
 21
17.5
 31
2.5
 12
-29.0597448067
 22
17.0611650984
 32
2.5
 13
-28.0
 23
17.5
 33
0.0
  0
3DFACE
  5
355
100
AcDbEntity
  8
8
100
AcDbFace
  6
CONTINUOUS
 10
-28.0
 20
14.5
 30
0.0
 11
-29.0597448067
 21
14.9388349016
 31
0.0
 12
-28.0
 22
14.5
 32
2.5
 13
-28.0
 23
14.5
 33
0.0
  0
3DFACE
  5
356
100
AcDbEntity
  8
8
100
AcDbFace
  6
CONTINUOUS
 10
-29.0597448067
 20
14.9388349016
 30
0.0
 11
-29.49948332
 21
16.0
 31
0.0
 12
-29.0597448067
 22
14.9388349016
 32
2.5
 13
-29.0597448067
 23
14.9388349016
 33
0.0
  0
3DFACE
  5
357
100
AcDbEntity
  8
8
100
AcDbFace
  6
CONTINUOUS
 10
-29.0597448067
 20
14.9388349016
 30
0.0
 11
-29.0597448067
 21
14.9388349016
 31
2.5
 12
-28.0
 22
14.5
 32
2.5
 13
-29.0597448067
 23
14.9388349016
 33
0.0
  0
3DFACE
  5
358
100
AcDbEntity
  8
8
100
AcDbFace
  6
CONTINUOUS
 10
-29.49948332
 20
16.0
 30
0.0
 11
-29.0597448067
 21
17.0611650984
 31
0.0
 12
-29.49948332
 22
16.0
 32
2.5
 13
-29.49948332
 23
16.0
 33
0.0
  0
3DFACE
  5
359
100
AcDbEntity
  8
8
100
AcDbFace
  6
CONTINUOUS
 10
-29.49948332
 20
16.0
 30
0.0
 11
-29.49948332
 21
16.0
 31
2.5
 12
-29.0597448067
 22
14.9388349016
 32
2.5
 13
-29.49948332
 23
16.0
 33
0.0
  0
3DFACE
  5
35A
100
AcDbEntity
  8
8
100
AcDbFace
  6
CONTINUOUS
 10
-29.0597448067
 20
17.0611650984
 30
0.0
 11
-29.0597448067
 21
17.0611650984
 31
2.5
 12
-29.49948332
 22
16.0
 32
2.5
 13
-29.0597448067
 23
17.0611650984
 33
0.0
  0
3DFACE
  5
35B
100
AcDbEntity
  8
9
100
AcDbFace
  6
CONTINUOUS
 10
-2.5
 20
17.5
 30
0.0
 11
-1.4402551933
 21
17.0611650984
 31
0.0
 12
-2.5
 22
17.5
 32
2.5
 13
-2.5
 23
17.5
 33
0.0
  0
3DFACE
  5
35C
100
AcDbEntity
  8
9
100
AcDbFace
  6
CONTINUOUS
 10
-1.4402551933
 20
17.0611650984
 30
0.0
 11
-1.00051668
 21
16.0
 31
0.0
 12
-1.4402551933
 22
17.0611650984
 32
2.5
 13
-1.4402551933
 23
17.0611650984
 33
0.0
  0
3DFACE
  5
35D
100
AcDbEntity
  8
9
100
AcDbFace
  6
CONTINUOUS
 10
-2.5
 20
17.5
 30
2.5
 11
-1.4402551933
 21
17.0611650984
 31
0.0
 12
-1.4402551933
 22
17.0611650984
 32
2.5
 13
-2.5
 23
17.5
 33
2.5
  0
3DFACE
  5
35E
100
AcDbEntity
  8
9
100
AcDbFace
  6
CONTINUOUS
 10
-1.00051668
 20
16.0
 30
0.0
 11
-1.4402551933
 21
14.9388349016
 31
0.0
 12
-1.00051668
 22
16.0
 32
2.5
 13
-1.00051668
 23
16.0
 33
0.0
  0
3DFACE
  5
35F
100
AcDbEntity
  8
9
100
AcDbFace
  6
CONTINUOUS
 10
-1.00051668
 20
16.0
 30
0.0
 11
-1.00051668
 21
16.0
 31
2.5
 12
-1.4402551933
 22
17.0611650984
 32
2.5
 13
-1.00051668
 23
16.0
 33
0.0
  0
3DFACE
  5
360
100
AcDbEntity
  8
9
100
AcDbFace
  6
CONTINUOUS
 10
-1.4402551933
 20
14.9388349016
 30
0.0
 11
-2.5
 21
14.5
 31
0.0
 12
-1.4402551933
 22
14.9388349016
 32
2.5
 13
-1.4402551933
 23
14.9388349016
 33
0.0
  0
3DFACE
  5
361
100
AcDbEntity
  8
9
100
AcDbFace
  6
CONTINUOUS
 10
-1.4402551933
 20
14.9388349016
 30
0.0
 11
-1.4402551933
 21
14.9388349016
 31
2.5
 12
-1.00051668
 22
16.0
 32
2.5
 13
-1.4402551933
 23
14.9388349016
 33
0.0
  0
3DFACE
  5
362
100
AcDbEntity
  8
9
100
AcDbFace
  6
CONTINUOUS
 10
-2.5
 20
14.5
 30
0.0
 11
-2.5
 21
14.5
 31
2.5
 12
-1.4402551933
 22
14.9388349016
 32
2.5
 13
-2.5
 23
14.5
 33
0.0
  0
3DFACE
  5
363
100
AcDbEntity
  8
10
100
AcDbFace
  6
CONTINUOUS
 10
-3.5597448067
 20
17.0611650984
 30
0.0
 11
-2.5
 21
17.5
 31
0.0
 12
-3.5597448067
 22
17.0611650984
 32
2.5
 13
-3.5597448067
 23
17.0611650984
 33
0.0
  0
3DFACE
  5
364
100
AcDbEntity
  8
10
100
AcDbFace
  6
CONTINUOUS
 10
-2.5
 20
17.5
 30
0.0
 11
-2.5
 21
17.5
 31
2.5
 12
-3.5597448067
 22
17.0611650984
 32
2.5
 13
-2.5
 23
17.5
 33
0.0
  0
3DFACE
  5
365
100
AcDbEntity
  8
10
100
AcDbFace
  6
CONTINUOUS
 10
-2.5
 20
14.5
 30
0.0
 11
-3.5597448067
 21
14.9388349016
 31
0.0
 12
-2.5
 22
14.5
 32
2.5
 13
-2.5
 23
14.5
 33
0.0
  0
3DFACE
  5
366
100
AcDbEntity
  8
10
100
AcDbFace
  6
CONTINUOUS
 10
-3.5597448067
 20
14.9388349016
 30
0.0
 11
-3.99948332
 21
16.0
 31
0.0
 12
-3.5597448067
 22
14.9388349016
 32
2.5
 13
-3.5597448067
 23
14.9388349016
 33
0.0
  0
3DFACE
  5
367
100
AcDbEntity
  8
10
100
AcDbFace
  6
CONTINUOUS
 10
-3.5597448067
 20
14.9388349016
 30
0.0
 11
-3.5597448067
 21
14.9388349016
 31
2.5
 12
-2.5
 22
14.5
 32
2.5
 13
-3.5597448067
 23
14.9388349016
 33
0.0
  0
3DFACE
  5
368
100
AcDbEntity
  8
10
100
AcDbFace
  6
CONTINUOUS
 10
-3.99948332
 20
16.0
 30
0.0
 11
-3.5597448067
 21
17.0611650984
 31
0.0
 12
-3.99948332
 22
16.0
 32
2.5
 13
-3.99948332
 23
16.0
 33
0.0
  0
3DFACE
  5
369
100
AcDbEntity
  8
10
100
AcDbFace
  6
CONTINUOUS
 10
-3.99948332
 20
16.0
 30
0.0
 11
-3.99948332
 21
16.0
 31
2.5
 12
-3.5597448067
 22
14.9388349016
 32
2.5
 13
-3.99948332
 23
16.0
 33
0.0
  0
3DFACE
  5
36A
100
AcDbEntity
  8
10
100
AcDbFace
  6
CONTINUOUS
 10
-3.5597448067
 20
17.0611650984
 30
0.0
 11
-3.5597448067
 21
17.0611650984
 31
2.5
 12
-3.99948332
 22
16.0
 32
2.5
 13
-3.5597448067
 23
17.0611650984
 33
0.0
  0
3DFACE
  5
36B
100
AcDbEntity
  8
11
100
AcDbFace
  6
CONTINUOUS
 10
-13.5000000015
 20
27.5
 30
0.0
 11
-11.7326333281
 21
26.7673666733
 31
0.0
 12
-13.5000000015
 22
27.5
 32
2.5
 13
-13.5000000015
 23
27.5
 33
0.0
  0
3DFACE
  5
36C
100
AcDbEntity
  8
11
100
AcDbFace
  6
CONTINUOUS
 10
-11.7326333281
 20
26.7673666733
 30
0.0
 11
-11.0000000015
 21
25.0
 31
0.0
 12
-11.7326333281
 22
26.7673666733
 32
2.5
 13
-11.7326333281
 23
26.7673666733
 33
0.0
  0
3DFACE
  5
36D
100
AcDbEntity
  8
11
100
AcDbFace
  6
CONTINUOUS
 10
-13.5000000015
 20
27.5
 30
2.5
 11
-11.7326333281
 21
26.7673666733
 31
0.0
 12
-11.7326333281
 22
26.7673666733
 32
2.5
 13
-13.5000000015
 23
27.5
 33
2.5
  0
3DFACE
  5
36E
100
AcDbEntity
  8
11
100
AcDbFace
  6
CONTINUOUS
 10
-11.0000000015
 20
25.0
 30
0.0
 11
-11.7326333281
 21
23.2326333267
 31
0.0
 12
-11.0000000015
 22
25.0
 32
2.5
 13
-11.0000000015
 23
25.0
 33
0.0
  0
3DFACE
  5
36F
100
AcDbEntity
  8
11
100
AcDbFace
  6
CONTINUOUS
 10
-11.0000000015
 20
25.0
 30
0.0
 11
-11.0000000015
 21
25.0
 31
2.5
 12
-11.7326333281
 22
26.7673666733
 32
2.5
 13
-11.0000000015
 23
25.0
 33
0.0
  0
3DFACE
  5
370
100
AcDbEntity
  8
11
100
AcDbFace
  6
CONTINUOUS
 10
-11.7326333281
 20
23.2326333267
 30
0.0
 11
-13.5000000015
 21
22.5
 31
0.0
 12
-11.7326333281
 22
23.2326333267
 32
2.5
 13
-11.7326333281
 23
23.2326333267
 33
0.0
  0
3DFACE
  5
371
100
AcDbEntity
  8
11
100
AcDbFace
  6
CONTINUOUS
 10
-11.7326333281
 20
23.2326333267
 30
0.0
 11
-11.7326333281
 21
23.2326333267
 31
2.5
 12
-11.0000000015
 22
25.0
 32
2.5
 13
-11.7326333281
 23
23.2326333267
 33
0.0
  0
3DFACE
  5
372
100
AcDbEntity
  8
11
100
AcDbFace
  6
CONTINUOUS
 10
-13.5000000015
 20
22.5
 30
0.0
 11
-13.5000000015
 21
22.5
 31
2.5
 12
-11.7326333281
 22
23.2326333267
 32
2.5
 13
-13.5000000015
 23
22.5
 33
0.0
  0
3DFACE
  5
373
100
AcDbEntity
  8
12
100
AcDbFace
  6
CONTINUOUS
 10
-15.2673666748
 20
26.7673666733
 30
0.0
 11
-13.5000000015
 21
27.5
 31
0.0
 12
-15.2673666748
 22
26.7673666733
 32
2.5
 13
-15.2673666748
 23
26.7673666733
 33
0.0
  0
3DFACE
  5
374
100
AcDbEntity
  8
12
100
AcDbFace
  6
CONTINUOUS
 10
-13.5000000015
 20
27.5
 30
0.0
 11
-13.5000000015
 21
27.5
 31
2.5
 12
-15.2673666748
 22
26.7673666733
 32
2.5
 13
-13.5000000015
 23
27.5
 33
0.0
  0
3DFACE
  5
375
100
AcDbEntity
  8
12
100
AcDbFace
  6
CONTINUOUS
 10
-13.5000000015
 20
22.5
 30
0.0
 11
-15.2673666748
 21
23.2326333267
 31
0.0
 12
-13.5000000015
 22
22.5
 32
2.5
 13
-13.5000000015
 23
22.5
 33
0.0
  0
3DFACE
  5
376
100
AcDbEntity
  8
12
100
AcDbFace
  6
CONTINUOUS
 10
-15.2673666748
 20
23.2326333267
 30
0.0
 11
-16.0000000015
 21
25.0
 31
0.0
 12
-15.2673666748
 22
23.2326333267
 32
2.5
 13
-15.2673666748
 23
23.2326333267
 33
0.0
  0
3DFACE
  5
377
100
AcDbEntity
  8
12
100
AcDbFace
  6
CONTINUOUS
 10
-15.2673666748
 20
23.2326333267
 30
0.0
 11
-15.2673666748
 21
23.2326333267
 31
2.5
 12
-13.5000000015
 22
22.5
 32
2.5
 13
-15.2673666748
 23
23.2326333267
 33
0.0
  0
3DFACE
  5
378
100
AcDbEntity
  8
12
100
AcDbFace
  6
CONTINUOUS
 10
-16.0000000015
 20
25.0
 30
0.0
 11
-15.2673666748
 21
26.7673666733
 31
0.0
 12
-16.0000000015
 22
25.0
 32
2.5
 13
-16.0000000015
 23
25.0
 33
0.0
  0
3DFACE
  5
379
100
AcDbEntity
  8
12
100
AcDbFace
  6
CONTINUOUS
 10
-16.0000000015
 20
25.0
 30
0.0
 11
-16.0000000015
 21
25.0
 31
2.5
 12
-15.2673666748
 22
23.2326333267
 32
2.5
 13
-16.0000000015
 23
25.0
 33
0.0
  0
3DFACE
  5
37A
100
AcDbEntity
  8
12
100
AcDbFace
  6
CONTINUOUS
 10
-15.2673666748
 20
26.7673666733
 30
0.0
 11
-15.2673666748
 21
26.7673666733
 31
2.5
 12
-16.0000000015
 22
25.0
 32
2.5
 13
-15.2673666748
 23
26.7673666733
 33
0.0
  0
3DFACE
  5
37B
100
AcDbEntity
  8
13
100
AcDbFace
  6
CONTINUOUS
 10
0.0
 20
0.0
 30
0.0
 11
0.0
 21
12.5
 31
0.0
 12
0.0
 22
0.0
 32
2.5
 13
0.0
 23
0.0
 33
0.0
  0
3DFACE
  5
37C
100
AcDbEntity
  8
13
100
AcDbFace
  6
CONTINUOUS
 10
0.0
 20
0.0
 30
2.5
 11
0.0
 21
12.5
 31
0.0
 12
0.0
 22
12.5
 32
2.5
 13
0.0
 23
0.0
 33
2.5
  0
3DFACE
  5
37D
100
AcDbEntity
  8
14
100
AcDbFace
  6
CONTINUOUS
 10
0.0
 20
12.5
 30
0.0
 11
0.0
 21
26.2226792653
 31
0.0
 12
0.0
 22
12.5
 32
2.5
 13
0.0
 23
12.5
 33
0.0
  0
3DFACE
  5
37E
100
AcDbEntity
  8
14
100
AcDbFace
  6
CONTINUOUS
 10
0.0
 20
26.2226792653
 30
0.0
 11
0.0
 21
26.2226792653
 31
2.5
 12
0.0
 22
12.5
 32
2.5
 13
0.0
 23
26.2226792653
 33
0.0
  0
3DFACE
  5
37F
100
AcDbEntity
  8
15
100
AcDbFace
  6
CONTINUOUS
 10
-0.0
 20
33.1519062928
 30
0.0
 11
0.0
 21
33.5000000015
 31
0.0
 12
0.0
 22
33.5000000015
 32
2.5
 13
-0.0
 23
33.1519062928
 33
0.0
  0
3DFACE
  5
380
100
AcDbEntity
  8
15
100
AcDbFace
  6
CONTINUOUS
 10
-0.0
 20
33.1519062928
 30
0.0
 11
0.0
 21
33.5000000015
 31
2.5
 12
-0.0
 22
33.1519062928
 32
2.5
 13
-0.0
 23
33.1519062928
 33
0.0
  0
3DFACE
  5
381
100
AcDbEntity
  8
16
100
AcDbFace
  6
CONTINUOUS
 10
-29.3348640335
 20
34.2357840187
 30
0.0
 11
-30.1887778717
 21
33.3284527393
 31
0.0
 12
-29.3348640335
 22
34.2357840187
 32
2.5
 13
-29.3348640335
 23
34.2357840187
 33
0.0
  0
3DFACE
  5
382
100
AcDbEntity
  8
16
100
AcDbFace
  6
CONTINUOUS
 10
-30.1887778717
 20
33.3284527393
 30
0.0
 11
-30.5
 21
32.1219869584
 31
0.0
 12
-30.1887778717
 22
33.3284527393
 32
2.5
 13
-30.1887778717
 23
33.3284527393
 33
0.0
  0
3DFACE
  5
383
100
AcDbEntity
  8
16
100
AcDbFace
  6
CONTINUOUS
 10
-30.1887778717
 20
33.3284527393
 30
0.0
 11
-30.1887778717
 21
33.3284527393
 31
2.5
 12
-29.3348640335
 22
34.2357840187
 32
2.5
 13
-30.1887778717
 23
33.3284527393
 33
0.0
  0
3DFACE
  5
384
100
AcDbEntity
  8
16
100
AcDbFace
  6
CONTINUOUS
 10
-30.5
 20
32.1219869584
 30
0.0
 11
-30.5
 21
32.1219869584
 31
2.5
 12
-30.1887778717
 22
33.3284527393
 32
2.5
 13
-30.5
 23
32.1219869584
 33
0.0
  0
3DFACE
  5
385
100
AcDbEntity
  8
17
100
AcDbFace
  6
CONTINUOUS
 10
-30.5
 20
32.1219869584
 30
0.0
 11
-30.5
 21
30.5
 31
0.0
 12
-30.5
 22
30.5
 32
2.5
 13
-30.5
 23
32.1219869584
 33
0.0
  0
3DFACE
  5
386
100
AcDbEntity
  8
17
100
AcDbFace
  6
CONTINUOUS
 10
-30.5
 20
32.1219869584
 30
0.0
 11
-30.5
 21
30.5
 31
2.5
 12
-30.5
 22
32.1219869584
 32
2.5
 13
-30.5
 23
32.1219869584
 33
0.0
  0
3DFACE
  5
387
100
AcDbEntity
  8
18
100
AcDbFace
  6
CONTINUOUS
 10
-30.5
 20
30.5
 30
0.0
 11
-30.5
 21
12.5
 31
0.0
 12
-30.5
 22
30.5
 32
2.5
 13
-30.5
 23
30.5
 33
0.0
  0
3DFACE
  5
388
100
AcDbEntity
  8
18
100
AcDbFace
  6
CONTINUOUS
 10
-30.5
 20
12.5
 30
0.0
 11
-30.5
 21
12.5
 31
2.5
 12
-30.5
 22
30.5
 32
2.5
 13
-30.5
 23
12.5
 33
0.0
  0
3DFACE
  5
389
100
AcDbEntity
  8
19
100
AcDbFace
  6
CONTINUOUS
 10
-30.5
 20
12.5
 30
0.0
 11
-30.5
 21
0.0
 31
0.0
 12
-30.5
 22
12.5
 32
2.5
 13
-30.5
 23
12.5
 33
0.0
  0
3DFACE
  5
38A
100
AcDbEntity
  8
19
100
AcDbFace
  6
CONTINUOUS
 10
-30.5
 20
0.0
 30
0.0
 11
-30.5
 21
0.0
 31
2.5
 12
-30.5
 22
12.5
 32
2.5
 13
-30.5
 23
0.0
 33
0.0
  0
3DFACE
  5
38B
100
AcDbEntity
  8
20
100
AcDbFace
  6
CONTINUOUS
 10
-30.5
 20
0.0
 30
0.0
 11
-30.5
 21
-6.25
 31
0.0
 12
-30.5
 22
0.0
 32
2.5
 13
-30.5
 23
0.0
 33
0.0
  0
3DFACE
  5
38C
100
AcDbEntity
  8
20
100
AcDbFace
  6
CONTINUOUS
 10
-30.5
 20
-6.25
 30
0.0
 11
-30.5
 21
-6.25
 31
2.5
 12
-30.5
 22
0.0
 32
2.5
 13
-30.5
 23
-6.25
 33
0.0
  0
3DFACE
  5
38D
100
AcDbEntity
  8
21
100
AcDbFace
  6
CONTINUOUS
 10
-30.25
 20
-6.5
 30
0.0
 11
-0.25
 21
-6.5
 31
0.0
 12
-30.25
 22
-6.5
 32
2.5
 13
-30.25
 23
-6.5
 33
0.0
  0
3DFACE
  5
38E
100
AcDbEntity
  8
21
100
AcDbFace
  6
CONTINUOUS
 10
-0.25
 20
-6.5
 30
0.0
 11
-0.25
 21
-6.5
 31
2.5
 12
-30.25
 22
-6.5
 32
2.5
 13
-0.25
 23
-6.5
 33
0.0
  0
3DFACE
  5
38F
100
AcDbEntity
  8
22
100
AcDbFace
  6
CONTINUOUS
 10
0.0
 20
-6.25
 30
0.0
 11
0.0
 21
0.0
 31
0.0
 12
0.0
 22
-6.25
 32
2.5
 13
0.0
 23
-6.25
 33
0.0
  0
3DFACE
  5
390
100
AcDbEntity
  8
22
100
AcDbFace
  6
CONTINUOUS
 10
0.0
 20
0.0
 30
0.0
 11
0.0
 21
0.0
 31
2.5
 12
0.0
 22
-6.25
 32
2.5
 13
0.0
 23
0.0
 33
0.0
  0
3DFACE
  5
391
100
AcDbEntity
  8
23
100
AcDbFace
  6
CONTINUOUS
 10
-8.0902053837
 20
0.0
 30
0.0
 11
-23.4999999986
 21
0.0
 31
0.0
 12
-8.0902053837
 22
0.0
 32
2.5
 13
-8.0902053837
 23
0.0
 33
0.0
  0
3DFACE
  5
392
100
AcDbEntity
  8
23
100
AcDbFace
  6
CONTINUOUS
 10
-23.4999999986
 20
0.0
 30
0.0
 11
-23.4999999986
 21
0.0
 31
2.5
 12
-8.0902053837
 22
0.0
 32
2.5
 13
-23.4999999986
 23
0.0
 33
0.0
  0
3DFACE
  5
393
100
AcDbEntity
  8
24
100
AcDbFace
  6
CONTINUOUS
 10
-24.4999999986
 20
1.0
 30
0.0
 11
-24.4999999986
 21
11.5
 31
0.0
 12
-24.4999999986
 22
1.0
 32
2.5
 13
-24.4999999986
 23
1.0
 33
0.0
  0
3DFACE
  5
394
100
AcDbEntity
  8
24
100
AcDbFace
  6
CONTINUOUS
 10
-24.4999999986
 20
11.5
 30
0.0
 11
-24.4999999986
 21
11.5
 31
2.5
 12
-24.4999999986
 22
1.0
 32
2.5
 13
-24.4999999986
 23
11.5
 33
0.0
  0
3DFACE
  5
395
100
AcDbEntity
  8
25
100
AcDbFace
  6
CONTINUOUS
 10
-23.4999999986
 20
12.5
 30
0.0
 11
-6.9954622101
 21
12.5
 31
0.0
 12
-23.4999999986
 22
12.5
 32
2.5
 13
-23.4999999986
 23
12.5
 33
0.0
  0
3DFACE
  5
396
100
AcDbEntity
  8
25
100
AcDbFace
  6
CONTINUOUS
 10
-6.9954622101
 20
12.5
 30
0.0
 11
-6.9954622101
 21
12.5
 31
2.5
 12
-23.4999999986
 22
12.5
 32
2.5
 13
-6.9954622101
 23
12.5
 33
0.0
  0
3DFACE
  5
397
100
AcDbEntity
  8
26
100
AcDbFace
  6
CONTINUOUS
 10
-5.9999999973
 20
11.4048423262
 30
0.0
 11
-6.9950477098
 21
0.9954622128
 31
0.0
 12
-5.9999999973
 22
11.4048423262
 32
2.5
 13
-5.9999999973
 23
11.4048423262
 33
0.0
  0
3DFACE
  5
398
100
AcDbEntity
  8
26
100
AcDbFace
  6
CONTINUOUS
 10
-6.9950477098
 20
0.9954622128
 30
0.0
 11
-6.9950477098
 21
0.9954622128
 31
2.5
 12
-5.9999999973
 22
11.4048423262
 32
2.5
 13
-6.9950477098
 23
0.9954622128
 33
0.0
  0
3DFACE
  5
399
100
AcDbEntity
  8
27
100
AcDbFace
  6
CONTINUOUS
 10
-24.3361708168
 20
30.6219872921
 30
0.0
 11
-25.3796252113
 21
31.0145116398
 31
0.0
 12
-24.3361708168
 22
30.6219872921
 32
2.5
 13
-24.3361708168
 23
30.6219872921
 33
0.0
  0
3DFACE
  5
39A
100
AcDbEntity
  8
27
100
AcDbFace
  6
CONTINUOUS
 10
-25.3796252113
 20
31.0145116398
 30
0.0
 11
-25.8362400054
 21
32.0335334729
 31
0.0
 12
-25.3796252113
 22
31.0145116398
 32
2.5
 13
-25.3796252113
 23
31.0145116398
 33
0.0
  0
3DFACE
  5
39B
100
AcDbEntity
  8
27
100
AcDbFace
  6
CONTINUOUS
 10
-24.3361708168
 20
30.6219872921
 30
2.5
 11
-25.3796252113
 21
31.0145116398
 31
0.0
 12
-25.3796252113
 22
31.0145116398
 32
2.5
 13
-24.3361708168
 23
30.6219872921
 33
2.5
  0
3DFACE
  5
39C
100
AcDbEntity
  8
27
100
AcDbFace
  6
CONTINUOUS
 10
-25.8362400054
 20
32.0335334729
 30
0.0
 11
-25.4346945273
 21
33.0735496583
 31
0.0
 12
-25.8362400054
 22
32.0335334729
 32
2.5
 13
-25.8362400054
 23
32.0335334729
 33
0.0
  0
3DFACE
  5
39D
100
AcDbEntity
  8
27
100
AcDbFace
  6
CONTINUOUS
 10
-25.8362400054
 20
32.0335334729
 30
0.0
 11
-25.8362400054
 21
32.0335334729
 31
2.5
 12
-25.3796252113
 22
31.0145116398
 32
2.5
 13
-25.8362400054
 23
32.0335334729
 33
0.0
  0
3DFACE
  5
39E
100
AcDbEntity
  8
27
100
AcDbFace
  6
CONTINUOUS
 10
-25.4346945273
 20
33.0735496583
 30
0.0
 11
-25.4346945273
 21
33.0735496583
 31
2.5
 12
-25.8362400054
 22
32.0335334729
 32
2.5
 13
-25.4346945273
 23
33.0735496583
 33
0.0
  0
3DFACE
  5
39F
100
AcDbEntity
  8
28
100
AcDbFace
  6
CONTINUOUS
 10
-25.4346945273
 20
33.0735496583
 30
0.0
 11
-24.0002388621
 21
33.6219869584
 31
0.0
 12
-24.0002388621
 22
33.6219869584
 32
2.5
 13
-25.4346945273
 23
33.0735496583
 33
0.0
  0
3DFACE
  5
3A0
100
AcDbEntity
  8
28
100
AcDbFace
  6
CONTINUOUS
 10
-25.4346945273
 20
33.0735496583
 30
0.0
 11
-24.0002388621
 21
33.6219869584
 31
2.5
 12
-25.4346945273
 22
33.0735496583
 32
2.5
 13
-25.4346945273
 23
33.0735496583
 33
0.0
  0
3DFACE
  5
3A1
100
AcDbEntity
  8
29
100
AcDbFace
  6
CONTINUOUS
 10
-24.0002388621
 20
33.6219869584
 30
0.0
 11
-8.3606985517
 21
39.6014727459
 31
0.0
 12
-24.0002388621
 22
33.6219869584
 32
2.5
 13
-24.0002388621
 23
33.6219869584
 33
0.0
  0
3DFACE
  5
3A2
100
AcDbEntity
  8
29
100
AcDbFace
  6
CONTINUOUS
 10
-8.3606985517
 20
39.6014727459
 30
0.0
 11
-8.3606985517
 21
39.6014727459
 31
2.5
 12
-24.0002388621
 22
33.6219869584
 32
2.5
 13
-8.3606985517
 23
39.6014727459
 33
0.0
  0
3DFACE
  5
3A3
100
AcDbEntity
  8
30
100
AcDbFace
  6
CONTINUOUS
 10
-8.3606985517
 20
39.6014727459
 30
0.0
 11
-7.6746414705
 21
39.5657995121
 31
0.0
 12
-8.3606985517
 22
39.6014727459
 32
2.5
 13
-8.3606985517
 23
39.6014727459
 33
0.0
  0
3DFACE
  5
3A4
100
AcDbEntity
  8
30
100
AcDbFace
  6
CONTINUOUS
 10
-7.6746414705
 20
39.5657995121
 30
0.0
 11
-7.2402292344
 21
39.0336032068
 31
0.0
 12
-7.6746414705
 22
39.5657995121
 32
2.5
 13
-7.6746414705
 23
39.5657995121
 33
0.0
  0
3DFACE
  5
3A5
100
AcDbEntity
  8
30
100
AcDbFace
  6
CONTINUOUS
 10
-7.6746414705
 20
39.5657995121
 30
0.0
 11
-7.6746414705
 21
39.5657995121
 31
2.5
 12
-8.3606985517
 22
39.6014727459
 32
2.5
 13
-7.6746414705
 23
39.5657995121
 33
0.0
  0
3DFACE
  5
3A6
100
AcDbEntity
  8
30
100
AcDbFace
  6
CONTINUOUS
 10
-7.2402292344
 20
39.0336032068
 30
0.0
 11
-7.2402292344
 21
39.0336032068
 31
2.5
 12
-7.6746414705
 22
39.5657995121
 32
2.5
 13
-7.2402292344
 23
39.0336032068
 33
0.0
  0
3DFACE
  5
3A7
100
AcDbEntity
  8
31
100
AcDbFace
  6
CONTINUOUS
 10
-7.2402292344
 20
39.0336032068
 30
0.0
 11
-6.4243636593
 21
35.1191854765
 31
0.0
 12
-7.2402292344
 22
39.0336032068
 32
2.5
 13
-7.2402292344
 23
39.0336032068
 33
0.0
  0
3DFACE
  5
3A8
100
AcDbEntity
  8
31
100
AcDbFace
  6
CONTINUOUS
 10
-6.4243636593
 20
35.1191854765
 30
0.0
 11
-6.0984633856
 21
31.1339512531
 31
0.0
 12
-6.4243636593
 22
35.1191854765
 32
2.5
 13
-6.4243636593
 23
35.1191854765
 33
0.0
  0
3DFACE
  5
3A9
100
AcDbEntity
  8
31
100
AcDbFace
  6
CONTINUOUS
 10
-6.4243636593
 20
35.1191854765
 30
0.0
 11
-6.4243636593
 21
35.1191854765
 31
2.5
 12
-7.2402292344
 22
39.0336032068
 32
2.5
 13
-6.4243636593
 23
35.1191854765
 33
0.0
  0
3DFACE
  5
3AA
100
AcDbEntity
  8
31
100
AcDbFace
  6
CONTINUOUS
 10
-6.0984633856
 20
31.1339512531
 30
0.0
 11
-6.0984633856
 21
31.1339512531
 31
2.5
 12
-6.4243636593
 22
35.1191854765
 32
2.5
 13
-6.0984633856
 23
31.1339512531
 33
0.0
  0
3DFACE
  5
3AB
100
AcDbEntity
  8
32
100
AcDbFace
  6
CONTINUOUS
 10
-6.0984633856
 20
31.1339512531
 30
0.0
 11
-6.2773212431
 21
30.6885179759
 31
0.0
 12
-6.0984633856
 22
31.1339512531
 32
2.5
 13
-6.0984633856
 23
31.1339512531
 33
0.0
  0
3DFACE
  5
3AC
100
AcDbEntity
  8
32
100
AcDbFace
  6
CONTINUOUS
 10
-6.2773212431
 20
30.6885179759
 30
0.0
 11
-6.7204045408
 21
30.5039153514
 31
0.0
 12
-6.2773212431
 22
30.6885179759
 32
2.5
 13
-6.2773212431
 23
30.6885179759
 33
0.0
  0
3DFACE
  5
3AD
100
AcDbEntity
  8
32
100
AcDbFace
  6
CONTINUOUS
 10
-6.2773212431
 20
30.6885179759
 30
0.0
 11
-6.2773212431
 21
30.6885179759
 31
2.5
 12
-6.0984633856
 22
31.1339512531
 32
2.5
 13
-6.2773212431
 23
30.6885179759
 33
0.0
  0
3DFACE
  5
3AE
100
AcDbEntity
  8
32
100
AcDbFace
  6
CONTINUOUS
 10
-6.7204045408
 20
30.5039153514
 30
0.0
 11
-6.7204045408
 21
30.5039153514
 31
2.5
 12
-6.2773212431
 22
30.6885179759
 32
2.5
 13
-6.7204045408
 23
30.5039153514
 33
0.0
  0
3DFACE
  5
3AF
100
AcDbEntity
  8
33
100
AcDbFace
  6
CONTINUOUS
 10
-6.7204045408
 20
30.5039153514
 30
0.0
 11
-24.3361708168
 21
30.6219872921
 31
0.0
 12
-6.7204045408
 22
30.5039153514
 32
2.5
 13
-6.7204045408
 23
30.5039153514
 33
0.0
  0
3DFACE
  5
3B0
100
AcDbEntity
  8
33
100
AcDbFace
  6
CONTINUOUS
 10
-24.3361708168
 20
30.6219872921
 30
0.0
 11
-24.3361708168
 21
30.6219872921
 31
2.5
 12
-6.7204045408
 22
30.5039153514
 32
2.5
 13
-24.3361708168
 23
30.6219872921
 33
0.0
  0
3DFACE
  5
3B1
100
AcDbEntity
  8
34
100
AcDbFace
  6
CONTINUOUS
 10
-16.5297775755
 20
40.6781144507
 30
0.0
 11
-29.3348640335
 21
34.2357840187
 31
0.0
 12
-16.5297775755
 22
40.6781144507
 32
2.5
 13
-16.5297775755
 23
40.6781144507
 33
0.0
  0
3DFACE
  5
3B2
100
AcDbEntity
  8
34
100
AcDbFace
  6
CONTINUOUS
 10
-29.3348640335
 20
34.2357840187
 30
0.0
 11
-29.3348640335
 21
34.2357840187
 31
2.5
 12
-16.5297775755
 22
40.6781144507
 32
2.5
 13
-29.3348640335
 23
34.2357840187
 33
0.0
  0
3DFACE
  5
3B3
100
AcDbEntity
  8
35
100
AcDbFace
  6
CONTINUOUS
 10
-23.4999999986
 20
0.0
 30
0.0
 11
-24.2071067797
 21
0.2928932188
 31
0.0
 12
-23.4999999986
 22
0.0
 32
2.5
 13
-23.4999999986
 23
0.0
 33
0.0
  0
3DFACE
  5
3B4
100
AcDbEntity
  8
35
100
AcDbFace
  6
CONTINUOUS
 10
-24.2071067797
 20
0.2928932188
 30
0.0
 11
-24.4999999986
 21
1.0
 31
0.0
 12
-24.2071067797
 22
0.2928932188
 32
2.5
 13
-24.2071067797
 23
0.2928932188
 33
0.0
  0
3DFACE
  5
3B5
100
AcDbEntity
  8
35
100
AcDbFace
  6
CONTINUOUS
 10
-24.2071067797
 20
0.2928932188
 30
0.0
 11
-24.2071067797
 21
0.2928932188
 31
2.5
 12
-23.4999999986
 22
0.0
 32
2.5
 13
-24.2071067797
 23
0.2928932188
 33
0.0
  0
3DFACE
  5
3B6
100
AcDbEntity
  8
35
100
AcDbFace
  6
CONTINUOUS
 10
-24.4999999986
 20
1.0
 30
0.0
 11
-24.4999999986
 21
1.0
 31
2.5
 12
-24.2071067797
 22
0.2928932188
 32
2.5
 13
-24.4999999986
 23
1.0
 33
0.0
  0
3DFACE
  5
3B7
100
AcDbEntity
  8
36
100
AcDbFace
  6
CONTINUOUS
 10
-6.9950477098
 20
0.9954622128
 30
0.0
 11
-7.3502196832
 21
0.2860547108
 31
0.0
 12
-6.9950477098
 22
0.9954622128
 32
2.5
 13
-6.9950477098
 23
0.9954622128
 33
0.0
  0
3DFACE
  5
3B8
100
AcDbEntity
  8
36
100
AcDbFace
  6
CONTINUOUS
 10
-7.3502196832
 20
0.2860547108
 30
0.0
 11
-8.0902053837
 21
0.0
 31
0.0
 12
-7.3502196832
 22
0.2860547108
 32
2.5
 13
-7.3502196832
 23
0.2860547108
 33
0.0
  0
3DFACE
  5
3B9
100
AcDbEntity
  8
36
100
AcDbFace
  6
CONTINUOUS
 10
-6.9950477098
 20
0.9954622128
 30
2.5
 11
-7.3502196832
 21
0.2860547108
 31
0.0
 12
-7.3502196832
 22
0.2860547108
 32
2.5
 13
-6.9950477098
 23
0.9954622128
 33
2.5
  0
3DFACE
  5
3BA
100
AcDbEntity
  8
36
100
AcDbFace
  6
CONTINUOUS
 10
-8.0902053837
 20
0.0
 30
0.0
 11
-8.0902053837
 21
0.0
 31
2.5
 12
-7.3502196832
 22
0.2860547108
 32
2.5
 13
-8.0902053837
 23
0.0
 33
0.0
  0
3DFACE
  5
3BB
100
AcDbEntity
  8
37
100
AcDbFace
  6
CONTINUOUS
 10
-24.4999999986
 20
11.5
 30
0.0
 11
-24.2071067797
 21
12.2071067812
 31
0.0
 12
-24.4999999986
 22
11.5
 32
2.5
 13
-24.4999999986
 23
11.5
 33
0.0
  0
3DFACE
  5
3BC
100
AcDbEntity
  8
37
100
AcDbFace
  6
CONTINUOUS
 10
-24.2071067797
 20
12.2071067812
 30
0.0
 11
-23.4999999986
 21
12.5
 31
0.0
 12
-24.2071067797
 22
12.2071067812
 32
2.5
 13
-24.2071067797
 23
12.2071067812
 33
0.0
  0
3DFACE
  5
3BD
100
AcDbEntity
  8
37
100
AcDbFace
  6
CONTINUOUS
 10
-24.2071067797
 20
12.2071067812
 30
0.0
 11
-24.2071067797
 21
12.2071067812
 31
2.5
 12
-24.4999999986
 22
11.5
 32
2.5
 13
-24.2071067797
 23
12.2071067812
 33
0.0
  0
3DFACE
  5
3BE
100
AcDbEntity
  8
37
100
AcDbFace
  6
CONTINUOUS
 10
-23.4999999986
 20
12.5
 30
0.0
 11
-23.4999999986
 21
12.5
 31
2.5
 12
-24.2071067797
 22
12.2071067812
 32
2.5
 13
-23.4999999986
 23
12.5
 33
0.0
  0
3DFACE
  5
3BF
100
AcDbEntity
  8
38
100
AcDbFace
  6
CONTINUOUS
 10
-6.9954622101
 20
12.5
 30
0.0
 11
-6.2554765096
 21
12.1726226008
 31
0.0
 12
-6.9954622101
 22
12.5
 32
2.5
 13
-6.9954622101
 23
12.5
 33
0.0
  0
3DFACE
  5
3C0
100
AcDbEntity
  8
38
100
AcDbFace
  6
CONTINUOUS
 10
-6.2554765096
 20
12.1726226008
 30
0.0
 11
-5.9999999973
 21
11.4048423262
 31
0.0
 12
-6.2554765096
 22
12.1726226008
 32
2.5
 13
-6.2554765096
 23
12.1726226008
 33
0.0
  0
3DFACE
  5
3C1
100
AcDbEntity
  8
38
100
AcDbFace
  6
CONTINUOUS
 10
-6.2554765096
 20
12.1726226008
 30
0.0
 11
-6.2554765096
 21
12.1726226008
 31
2.5
 12
-6.9954622101
 22
12.5
 32
2.5
 13
-6.2554765096
 23
12.1726226008
 33
0.0
  0
3DFACE
  5
3C2
100
AcDbEntity
  8
38
100
AcDbFace
  6
CONTINUOUS
 10
-5.9999999973
 20
11.4048423262
 30
0.0
 11
-5.9999999973
 21
11.4048423262
 31
2.5
 12
-6.2554765096
 22
12.1726226008
 32
2.5
 13
-5.9999999973
 23
11.4048423262
 33
0.0
  0
3DFACE
  5
3C3
100
AcDbEntity
  8
39
100
AcDbFace
  6
CONTINUOUS
 10
-30.5
 20
-6.25
 30
0.0
 11
-30.4264723224
 21
-6.4264723224
 31
0.0
 12
-30.5
 22
-6.25
 32
2.5
 13
-30.5
 23
-6.25
 33
0.0
  0
3DFACE
  5
3C4
100
AcDbEntity
  8
39
100
AcDbFace
  6
CONTINUOUS
 10
-30.4264723224
 20
-6.4264723224
 30
0.0
 11
-30.25
 21
-6.5
 31
0.0
 12
-30.4264723224
 22
-6.4264723224
 32
2.5
 13
-30.4264723224
 23
-6.4264723224
 33
0.0
  0
3DFACE
  5
3C5
100
AcDbEntity
  8
39
100
AcDbFace
  6
CONTINUOUS
 10
-30.4264723224
 20
-6.4264723224
 30
0.0
 11
-30.4264723224
 21
-6.4264723224
 31
2.5
 12
-30.5
 22
-6.25
 32
2.5
 13
-30.4264723224
 23
-6.4264723224
 33
0.0
  0
3DFACE
  5
3C6
100
AcDbEntity
  8
39
100
AcDbFace
  6
CONTINUOUS
 10
-30.25
 20
-6.5
 30
0.0
 11
-30.25
 21
-6.5
 31
2.5
 12
-30.4264723224
 22
-6.4264723224
 32
2.5
 13
-30.25
 23
-6.5
 33
0.0
  0
3DFACE
  5
3C7
100
AcDbEntity
  8
40
100
AcDbFace
  6
CONTINUOUS
 10
-0.25
 20
-6.5
 30
0.0
 11
-0.0735276776
 21
-6.4264723224
 31
0.0
 12
-0.25
 22
-6.5
 32
2.5
 13
-0.25
 23
-6.5
 33
0.0
  0
3DFACE
  5
3C8
100
AcDbEntity
  8
40
100
AcDbFace
  6
CONTINUOUS
 10
-0.0735276776
 20
-6.4264723224
 30
0.0
 11
0.0
 21
-6.25
 31
0.0
 12
-0.0735276776
 22
-6.4264723224
 32
2.5
 13
-0.0735276776
 23
-6.4264723224
 33
0.0
  0
3DFACE
  5
3C9
100
AcDbEntity
  8
40
100
AcDbFace
  6
CONTINUOUS
 10
-0.0735276776
 20
-6.4264723224
 30
0.0
 11
-0.0735276776
 21
-6.4264723224
 31
2.5
 12
-0.25
 22
-6.5
 32
2.5
 13
-0.0735276776
 23
-6.4264723224
 33
0.0
  0
3DFACE
  5
3CA
100
AcDbEntity
  8
40
100
AcDbFace
  6
CONTINUOUS
 10
0.0
 20
-6.25
 30
0.0
 11
0.0
 21
-6.25
 31
2.5
 12
-0.0735276776
 22
-6.4264723224
 32
2.5
 13
0.0
 23
-6.25
 33
0.0
  0
3DFACE
  5
3CB
100
AcDbEntity
  8
41
100
AcDbFace
  6
CONTINUOUS
 10
-23.0000000015
 20
27.5
 30
0.0
 11
-21.2326333281
 21
26.7673666733
 31
0.0
 12
-23.0000000015
 22
27.5
 32
2.5
 13
-23.0000000015
 23
27.5
 33
0.0
  0
3DFACE
  5
3CC
100
AcDbEntity
  8
41
100
AcDbFace
  6
CONTINUOUS
 10
-21.2326333281
 20
26.7673666733
 30
0.0
 11
-20.5000000015
 21
25.0
 31
0.0
 12
-21.2326333281
 22
26.7673666733
 32
2.5
 13
-21.2326333281
 23
26.7673666733
 33
0.0
  0
3DFACE
  5
3CD
100
AcDbEntity
  8
41
100
AcDbFace
  6
CONTINUOUS
 10
-23.0000000015
 20
27.5
 30
2.5
 11
-21.2326333281
 21
26.7673666733
 31
0.0
 12
-21.2326333281
 22
26.7673666733
 32
2.5
 13
-23.0000000015
 23
27.5
 33
2.5
  0
3DFACE
  5
3CE
100
AcDbEntity
  8
41
100
AcDbFace
  6
CONTINUOUS
 10
-20.5000000015
 20
25.0
 30
0.0
 11
-21.2326333281
 21
23.2326333267
 31
0.0
 12
-20.5000000015
 22
25.0
 32
2.5
 13
-20.5000000015
 23
25.0
 33
0.0
  0
3DFACE
  5
3CF
100
AcDbEntity
  8
41
100
AcDbFace
  6
CONTINUOUS
 10
-20.5000000015
 20
25.0
 30
0.0
 11
-20.5000000015
 21
25.0
 31
2.5
 12
-21.2326333281
 22
26.7673666733
 32
2.5
 13
-20.5000000015
 23
25.0
 33
0.0
  0
3DFACE
  5
3D0
100
AcDbEntity
  8
41
100
AcDbFace
  6
CONTINUOUS
 10
-21.2326333281
 20
23.2326333267
 30
0.0
 11
-23.0000000015
 21
22.5
 31
0.0
 12
-21.2326333281
 22
23.2326333267
 32
2.5
 13
-21.2326333281
 23
23.2326333267
 33
0.0
  0
3DFACE
  5
3D1
100
AcDbEntity
  8
41
100
AcDbFace
  6
CONTINUOUS
 10
-21.2326333281
 20
23.2326333267
 30
0.0
 11
-21.2326333281
 21
23.2326333267
 31
2.5
 12
-20.5000000015
 22
25.0
 32
2.5
 13
-21.2326333281
 23
23.2326333267
 33
0.0
  0
3DFACE
  5
3D2
100
AcDbEntity
  8
41
100
AcDbFace
  6
CONTINUOUS
 10
-23.0000000015
 20
22.5
 30
0.0
 11
-23.0000000015
 21
22.5
 31
2.5
 12
-21.2326333281
 22
23.2326333267
 32
2.5
 13
-23.0000000015
 23
22.5
 33
0.0
  0
3DFACE
  5
3D3
100
AcDbEntity
  8
42
100
AcDbFace
  6
CONTINUOUS
 10
-24.7673666748
 20
26.7673666733
 30
0.0
 11
-23.0000000015
 21
27.5
 31
0.0
 12
-24.7673666748
 22
26.7673666733
 32
2.5
 13
-24.7673666748
 23
26.7673666733
 33
0.0
  0
3DFACE
  5
3D4
100
AcDbEntity
  8
42
100
AcDbFace
  6
CONTINUOUS
 10
-23.0000000015
 20
27.5
 30
0.0
 11
-23.0000000015
 21
27.5
 31
2.5
 12
-24.7673666748
 22
26.7673666733
 32
2.5
 13
-23.0000000015
 23
27.5
 33
0.0
  0
3DFACE
  5
3D5
100
AcDbEntity
  8
42
100
AcDbFace
  6
CONTINUOUS
 10
-23.0000000015
 20
22.5
 30
0.0
 11
-24.7673666748
 21
23.2326333267
 31
0.0
 12
-23.0000000015
 22
22.5
 32
2.5
 13
-23.0000000015
 23
22.5
 33
0.0
  0
3DFACE
  5
3D6
100
AcDbEntity
  8
42
100
AcDbFace
  6
CONTINUOUS
 10
-24.7673666748
 20
23.2326333267
 30
0.0
 11
-25.5000000015
 21
25.0
 31
0.0
 12
-24.7673666748
 22
23.2326333267
 32
2.5
 13
-24.7673666748
 23
23.2326333267
 33
0.0
  0
3DFACE
  5
3D7
100
AcDbEntity
  8
42
100
AcDbFace
  6
CONTINUOUS
 10
-24.7673666748
 20
23.2326333267
 30
0.0
 11
-24.7673666748
 21
23.2326333267
 31
2.5
 12
-23.0000000015
 22
22.5
 32
2.5
 13
-24.7673666748
 23
23.2326333267
 33
0.0
  0
3DFACE
  5
3D8
100
AcDbEntity
  8
42
100
AcDbFace
  6
CONTINUOUS
 10
-25.5000000015
 20
25.0
 30
0.0
 11
-24.7673666748
 21
26.7673666733
 31
0.0
 12
-25.5000000015
 22
25.0
 32
2.5
 13
-25.5000000015
 23
25.0
 33
0.0
  0
3DFACE
  5
3D9
100
AcDbEntity
  8
42
100
AcDbFace
  6
CONTINUOUS
 10
-25.5000000015
 20
25.0
 30
0.0
 11
-25.5000000015
 21
25.0
 31
2.5
 12
-24.7673666748
 22
23.2326333267
 32
2.5
 13
-25.5000000015
 23
25.0
 33
0.0
  0
3DFACE
  5
3DA
100
AcDbEntity
  8
42
100
AcDbFace
  6
CONTINUOUS
 10
-24.7673666748
 20
26.7673666733
 30
0.0
 11
-24.7673666748
 21
26.7673666733
 31
2.5
 12
-25.5000000015
 22
25.0
 32
2.5
 13
-24.7673666748
 23
26.7673666733
 33
0.0
  0
3DFACE
  5
3DB
100
AcDbEntity
  8
43
100
AcDbFace
  6
CONTINUOUS
 10
-0.1425070743
 20
26.7371750207
 30
0.0
 11
-0.7282563669
 21
27.7134238417
 31
0.0
 12
-0.7282563669
 22
27.7134238417
 32
2.5
 13
-0.1425070743
 23
26.7371750207
 33
0.0
  0
3DFACE
  5
3DC
100
AcDbEntity
  8
43
100
AcDbFace
  6
CONTINUOUS
 10
-0.1425070743
 20
26.7371750207
 30
0.0
 11
-0.7282563669
 21
27.7134238417
 31
2.5
 12
-0.1425070743
 22
26.7371750207
 32
2.5
 13
-0.1425070743
 23
26.7371750207
 33
0.0
  0
3DFACE
  5
3DD
100
AcDbEntity
  8
44
100
AcDbFace
  6
CONTINUOUS
 10
-0.7282563669
 20
30.2859026188
 30
0.0
 11
-0.1425070743
 21
31.2621514398
 31
0.0
 12
-0.1425070743
 22
31.2621514398
 32
2.5
 13
-0.7282563669
 23
30.2859026188
 33
0.0
  0
3DFACE
  5
3DE
100
AcDbEntity
  8
44
100
AcDbFace
  6
CONTINUOUS
 10
-0.7282563669
 20
30.2859026188
 30
0.0
 11
-0.1425070743
 21
31.2621514398
 31
2.5
 12
-0.7282563669
 22
30.2859026188
 32
2.5
 13
-0.7282563669
 23
30.2859026188
 33
0.0
  0
3DFACE
  5
3DF
100
AcDbEntity
  8
45
100
AcDbFace
  6
CONTINUOUS
 10
-0.0
 20
31.7766471952
 30
0.0
 11
-0.0
 21
33.1519062928
 31
0.0
 12
-0.0
 22
33.1519062928
 32
2.5
 13
-0.0
 23
31.7766471952
 33
0.0
  0
3DFACE
  5
3E0
100
AcDbEntity
  8
45
100
AcDbFace
  6
CONTINUOUS
 10
-0.0
 20
31.7766471952
 30
0.0
 11
-0.0
 21
33.1519062928
 31
2.5
 12
-0.0
 22
31.7766471952
 32
2.5
 13
-0.0
 23
31.7766471952
 33
0.0
  0
3DFACE
  5
3E1
100
AcDbEntity
  8
46
100
AcDbFace
  6
CONTINUOUS
 10
0.0
 20
26.2226792653
 30
0.0
 11
-0.0363087923
 21
26.489606277
 31
0.0
 12
0.0
 22
26.2226792653
 32
2.5
 13
0.0
 23
26.2226792653
 33
0.0
  0
3DFACE
  5
3E2
100
AcDbEntity
  8
46
100
AcDbFace
  6
CONTINUOUS
 10
-0.0363087923
 20
26.489606277
 30
0.0
 11
-0.1425070743
 21
26.7371750207
 31
0.0
 12
-0.0363087923
 22
26.489606277
 32
2.5
 13
-0.0363087923
 23
26.489606277
 33
0.0
  0
3DFACE
  5
3E3
100
AcDbEntity
  8
46
100
AcDbFace
  6
CONTINUOUS
 10
-0.0363087923
 20
26.489606277
 30
0.0
 11
-0.0363087923
 21
26.489606277
 31
2.5
 12
0.0
 22
26.2226792653
 32
2.5
 13
-0.0363087923
 23
26.489606277
 33
0.0
  0
3DFACE
  5
3E4
100
AcDbEntity
  8
46
100
AcDbFace
  6
CONTINUOUS
 10
-0.1425070743
 20
26.7371750207
 30
0.0
 11
-0.1425070743
 21
26.7371750207
 31
2.5
 12
-0.0363087923
 22
26.489606277
 32
2.5
 13
-0.1425070743
 23
26.7371750207
 33
0.0
  0
3DFACE
  5
3E5
100
AcDbEntity
  8
47
100
AcDbFace
  6
CONTINUOUS
 10
-0.7282563669
 20
27.7134238417
 30
0.0
 11
-1.0835474632
 21
28.9996632303
 31
0.0
 12
-0.7282563669
 22
27.7134238417
 32
2.5
 13
-0.7282563669
 23
27.7134238417
 33
0.0
  0
3DFACE
  5
3E6
100
AcDbEntity
  8
47
100
AcDbFace
  6
CONTINUOUS
 10
-1.0835474632
 20
28.9996632303
 30
0.0
 11
-0.7282563669
 21
30.2859026188
 31
0.0
 12
-1.0835474632
 22
28.9996632303
 32
2.5
 13
-1.0835474632
 23
28.9996632303
 33
0.0
  0
3DFACE
  5
3E7
100
AcDbEntity
  8
47
100
AcDbFace
  6
CONTINUOUS
 10
-1.0835474632
 20
28.9996632303
 30
0.0
 11
-1.0835474632
 21
28.9996632303
 31
2.5
 12
-0.7282563669
 22
27.7134238417
 32
2.5
 13
-1.0835474632
 23
28.9996632303
 33
0.0
  0
3DFACE
  5
3E8
100
AcDbEntity
  8
47
100
AcDbFace
  6
CONTINUOUS
 10
-0.7282563669
 20
30.2859026188
 30
0.0
 11
-0.7282563669
 21
30.2859026188
 31
2.5
 12
-1.0835474632
 22
28.9996632303
 32
2.5
 13
-0.7282563669
 23
30.2859026188
 33
0.0
  0
3DFACE
  5
3E9
100
AcDbEntity
  8
48
100
AcDbFace
  6
CONTINUOUS
 10
-0.1425070743
 20
31.2621514398
 30
0.0
 11
-0.0363087923
 21
31.5097201835
 31
0.0
 12
-0.1425070743
 22
31.2621514398
 32
2.5
 13
-0.1425070743
 23
31.2621514398
 33
0.0
  0
3DFACE
  5
3EA
100
AcDbEntity
  8
48
100
AcDbFace
  6
CONTINUOUS
 10
-0.0363087923
 20
31.5097201835
 30
0.0
 11
-0.0
 21
31.7766471952
 31
0.0
 12
-0.0363087923
 22
31.5097201835
 32
2.5
 13
-0.0363087923
 23
31.5097201835
 33
0.0
  0
3DFACE
  5
3EB
100
AcDbEntity
  8
48
100
AcDbFace
  6
CONTINUOUS
 10
-0.0363087923
 20
31.5097201835
 30
0.0
 11
-0.0363087923
 21
31.5097201835
 31
2.5
 12
-0.1425070743
 22
31.2621514398
 32
2.5
 13
-0.0363087923
 23
31.5097201835
 33
0.0
  0
3DFACE
  5
3EC
100
AcDbEntity
  8
48
100
AcDbFace
  6
CONTINUOUS
 10
-0.0
 20
31.7766471952
 30
0.0
 11
-0.0
 21
31.7766471952
 31
2.5
 12
-0.0363087923
 22
31.5097201835
 32
2.5
 13
-0.0
 23
31.7766471952
 33
0.0
  0
3DFACE
  5
3ED
100
AcDbEntity
  8
49
100
AcDbFace
  6
CONTINUOUS
 10
0.0
 20
33.5000000015
 30
0.0
 11
-1.1181805507
 21
38.9930224255
 31
0.0
 12
0.0
 22
33.5000000015
 32
2.5
 13
0.0
 23
33.5000000015
 33
0.0
  0
3DFACE
  5
3EE
100
AcDbEntity
  8
49
100
AcDbFace
  6
CONTINUOUS
 10
-1.1181805507
 20
38.9930224255
 30
0.0
 11
-4.2947551794
 21
43.6117881397
 31
0.0
 12
-1.1181805507
 22
38.9930224255
 32
2.5
 13
-1.1181805507
 23
38.9930224255
 33
0.0
  0
3DFACE
  5
3EF
100
AcDbEntity
  8
49
100
AcDbFace
  6
CONTINUOUS
 10
-1.1181805507
 20
38.9930224255
 30
0.0
 11
-1.1181805507
 21
38.9930224255
 31
2.5
 12
0.0
 22
33.5000000015
 32
2.5
 13
-1.1181805507
 23
38.9930224255
 33
0.0
  0
3DFACE
  5
3F0
100
AcDbEntity
  8
49
100
AcDbFace
  6
CONTINUOUS
 10
-4.2947551794
 20
43.6117881397
 30
0.0
 11
-9.0241476354
 21
46.6211851046
 31
0.0
 12
-4.2947551794
 22
43.6117881397
 32
2.5
 13
-4.2947551794
 23
43.6117881397
 33
0.0
  0
3DFACE
  5
3F1
100
AcDbEntity
  8
49
100
AcDbFace
  6
CONTINUOUS
 10
-4.2947551794
 20
43.6117881397
 30
0.0
 11
-4.2947551794
 21
43.6117881397
 31
2.5
 12
-1.1181805507
 22
38.9930224255
 32
2.5
 13
-4.2947551794
 23
43.6117881397
 33
0.0
  0
3DFACE
  5
3F2
100
AcDbEntity
  8
49
100
AcDbFace
  6
CONTINUOUS
 10
-9.0241476354
 20
46.6211851046
 30
0.0
 11
-14.5536387834
 21
47.5422446785
 31
0.0
 12
-9.0241476354
 22
46.6211851046
 32
2.5
 13
-9.0241476354
 23
46.6211851046
 33
0.0
  0
3DFACE
  5
3F3
100
AcDbEntity
  8
49
100
AcDbFace
  6
CONTINUOUS
 10
-9.0241476354
 20
46.6211851046
 30
0.0
 11
-9.0241476354
 21
46.6211851046
 31
2.5
 12
-4.2947551794
 22
43.6117881397
 32
2.5
 13
-9.0241476354
 23
46.6211851046
 33
0.0
  0
3DFACE
  5
3F4
100
AcDbEntity
  8
49
100
AcDbFace
  6
CONTINUOUS
 10
-14.5536387834
 20
47.5422446785
 30
0.0
 11
-14.5536387834
 21
47.5422446785
 31
2.5
 12
-9.0241476354
 22
46.6211851046
 32
2.5
 13
-14.5536387834
 23
47.5422446785
 33
0.0
  0
3DFACE
  5
3F5
100
AcDbEntity
  8
50
100
AcDbFace
  6
CONTINUOUS
 10
-14.7925573503
 20
47.3436896124
 30
0.0
 11
-16.1818236679
 21
41.1243998122
 31
0.0
 12
-14.7925573503
 22
47.3436896124
 32
2.5
 13
-14.7925573503
 23
47.3436896124
 33
0.0
  0
3DFACE
  5
3F6
100
AcDbEntity
  8
50
100
AcDbFace
  6
CONTINUOUS
 10
-16.1818236679
 20
41.1243998122
 30
0.0
 11
-16.1818236679
 21
41.1243998122
 31
2.5
 12
-14.7925573503
 22
47.3436896124
 32
2.5
 13
-16.1818236679
 23
41.1243998122
 33
0.0
  0
3DFACE
  5
3F7
100
AcDbEntity
  8
51
100
AcDbFace
  6
CONTINUOUS
 10
-14.5536387834
 20
47.5422446785
 30
0.0
 11
-14.7068333197
 21
47.4835603089
 31
0.0
 12
-14.5536387834
 22
47.5422446785
 32
2.5
 13
-14.5536387834
 23
47.5422446785
 33
0.0
  0
3DFACE
  5
3F8
100
AcDbEntity
  8
51
100
AcDbFace
  6
CONTINUOUS
 10
-14.7068333197
 20
47.4835603089
 30
0.0
 11
-14.7925573503
 21
47.3436896124
 31
0.0
 12
-14.7068333197
 22
47.4835603089
 32
2.5
 13
-14.7068333197
 23
47.4835603089
 33
0.0
  0
3DFACE
  5
3F9
100
AcDbEntity
  8
51
100
AcDbFace
  6
CONTINUOUS
 10
-14.7068333197
 20
47.4835603089
 30
0.0
 11
-14.7068333197
 21
47.4835603089
 31
2.5
 12
-14.5536387834
 22
47.5422446785
 32
2.5
 13
-14.7068333197
 23
47.4835603089
 33
0.0
  0
3DFACE
  5
3FA
100
AcDbEntity
  8
51
100
AcDbFace
  6
CONTINUOUS
 10
-14.7925573503
 20
47.3436896124
 30
0.0
 11
-14.7925573503
 21
47.3436896124
 31
2.5
 12
-14.7068333197
 22
47.4835603089
 32
2.5
 13
-14.7925573503
 23
47.3436896124
 33
0.0
  0
3DFACE
  5
3FB
100
AcDbEntity
  8
52
100
AcDbFace
  6
CONTINUOUS
 10
-16.1818236679
 20
41.1243998122
 30
0.0
 11
-16.30570664
 21
40.8622005139
 31
0.0
 12
-16.1818236679
 22
41.1243998122
 32
2.5
 13
-16.1818236679
 23
41.1243998122
 33
0.0
  0
3DFACE
  5
3FC
100
AcDbEntity
  8
52
100
AcDbFace
  6
CONTINUOUS
 10
-16.30570664
 20
40.8622005139
 30
0.0
 11
-16.5297775755
 21
40.6781144507
 31
0.0
 12
-16.30570664
 22
40.8622005139
 32
2.5
 13
-16.30570664
 23
40.8622005139
 33
0.0
  0
3DFACE
  5
3FD
100
AcDbEntity
  8
52
100
AcDbFace
  6
CONTINUOUS
 10
-16.30570664
 20
40.8622005139
 30
0.0
 11
-16.30570664
 21
40.8622005139
 31
2.5
 12
-16.1818236679
 22
41.1243998122
 32
2.5
 13
-16.30570664
 23
40.8622005139
 33
0.0
  0
3DFACE
  5
3FE
100
AcDbEntity
  8
52
100
AcDbFace
  6
CONTINUOUS
 10
-16.5297775755
 20
40.6781144507
 30
0.0
 11
-16.5297775755
 21
40.6781144507
 31
2.5
 12
-16.30570664
 22
40.8622005139
 32
2.5
 13
-16.5297775755
 23
40.6781144507
 33
0.0
  0
ENDSEC
  0
SECTION
  2
OBJECTS
  0
DICTIONARY
  5
C
100
AcDbDictionary
280
0
281
1
  3
ACAD_GROUP
350
D
  3
ACAD_MLINESTYLE
350
17
  3
ACAD_LAYOUT
350
1A
  3
ACAD_PLOTSETTINGS
350
19
  3
ACAD_PLOTSTYLENAME
350
E
  0
DICTIONARY
  5
D
102
{ACAD_REACTORS
330
C
102
}
100
AcDbDictionary
280
0
281
1
  0
ACDBDICTIONARYWDFLT
  5
E
102
{ACAD_REACTORS
330
C
102
}
100
AcDbDictionary
281
1
  3
Normal
350
F
100
AcDbDictionaryWithDefault
340
F
  0
DICTIONARY
  5
17
102
{ACAD_REACTORS
330
C
102
}
100
AcDbDictionary
280
0
281
1
  3
Standard
350
18
  0
DICTIONARY
  5
19
102
{ACAD_REACTORS
330
C
102
}
100
AcDbDictionary
281
1
  0
DICTIONARY
  5
1A
102
{ACAD_REACTORS
330
C
102
}
100
AcDbDictionary
281
1
  3
Model
350
3FF
  3
Layout1
350
400
  0
ACDBPLACEHOLDER
  5
F
102
{ACAD_REACTORS
330
E
102
}
  0
MLINESTYLE
  5
18
102
{ACAD_REACTORS
330
17
102
}
100
AcDbMlineStyle
  2
STANDARD
 70
0
  3

 62
256
 51
90.0
 52
90.0
 71
2
 49
0.5
 62
256
  6
BYLAYER
 49
-0.5
 62
256
  6
BYLAYER
  0
LAYOUT
  5
3FF
102
{ACAD_REACTORS
330
1A
102
}
100
AcDbPlotSettings
  1

  2
none_device
  4
ANSI_A_(11.00_x_8.50_Inches)
  6

 40
0.0
 41
0.0
 42
0.0
 43
0.0
 44
1000.0
 45
843.75
 46
0.0
 47
0.0
 48
0.0
 49
0.0
140
0.0
141
0.0
142
1.0
143
1.0
 70
1024
 72
1
 73
0
 74
0
  7

 75
0
147
1.0
148
0.0
149
0.0
100
AcDbLayout
  1
Model
 70
0
 71
0
 10
0.0
 20
0.0
 11
1000.0
 21
843.75
 12
0.0
 22
0.0
 32
0.0
 14
0.0
 24
0.0
 34
0.0
 15
0.0
 25
0.0
 35
0.0
146
0.0
 13
0.0
 23
0.0
 33
0.0
 16
1.0
 26
0.0
 36
0.0
 17
0.0
 27
1.0
 37
0.0
 76
0
330
232
345
0
346
0
  0
LAYOUT
  5
400
102
{ACAD_REACTORS
330
1A
102
}
100
AcDbPlotSettings
  1

  2
none_device
  4
ANSI_A_(11.00_x_8.50_Inches)
  6

 40
0.0
 41
0.0
 42
0.0
 43
0.0
 44
1000.0
 45
843.75
 46
0.0
 47
0.0
 48
0.0
 49
0.0
140
0.0
141
0.0
142
1.0
143
1.0
 70
0
 72
1
 73
0
 74
0
  7

 75
0
147
1.0
148
0.0
149
0.0
100
AcDbLayout
  1
Layout1
 70
0
 71
1
 10
0.0
 20
0.0
 11
1000.0
 21
843.75
 12
0.0
 22
0.0
 32
0.0
 14
0.0
 24
0.0
 34
0.0
 15
0.0
 25
0.0
 35
0.0
146
0.0
 13
0.0
 23
0.0
 33
0.0
 16
1.0
 26
0.0
 36
0.0
 17
0.0
 27
1.0
 37
0.0
 76
0
330
233
345
0
346
0
  0
ENDSEC
  0
EOF
